<svg id="mobile-solutions-icon" xmlns="http://www.w3.org/2000/svg" width="59.895" height="48.521" viewBox="0 0 59.895 48.521">
  <path id="Subtraction_38" data-name="Subtraction 38" d="M12.152,15.224H0V13.5H1.521a14.087,14.087,0,0,1,.318-1.719L0,10.995,1.207,7.786l1.87.8c.211-.392.446-.78.7-1.153l-1.882-2,2.3-2.445L6,4.9A12.616,12.616,0,0,1,7.768,3.6L7.019,1.607,10.037.323l.736,1.955a11.6,11.6,0,0,1,1.92-.368V0h3.251V1.991a11.46,11.46,0,0,1,1.313.287L17.992.323,21.01,1.607,20.262,3.6A12.747,12.747,0,0,1,21.7,4.613l1.532-1.629,2.3,2.445L24,7.057a13.552,13.552,0,0,1,.957,1.524l1.87-.8,1.207,3.209-1.84.782a14.089,14.089,0,0,1,.318,1.719h2.129v1.728H16.046a2.221,2.221,0,0,0-.6-1.528,1.958,1.958,0,0,0-1.436-.634,1.913,1.913,0,0,0-.78.166,2.345,2.345,0,0,0-1.084,2ZM15.944,5.5v4.5a5.485,5.485,0,0,1,3.1,3.5h4.179a10.122,10.122,0,0,0-2.5-5.183A9.175,9.175,0,0,0,15.944,5.5Zm-3.251-.114A9.073,9.073,0,0,0,7.514,8.09,10.079,10.079,0,0,0,4.81,13.5H8.988a5.484,5.484,0,0,1,3.705-3.711Z" transform="translate(59.895 16.69) rotate(90)" fill="#d13e3e"/>
  <path id="Subtraction_40" data-name="Subtraction 40" d="M15.944,15.223H12.693v-1.91a11.6,11.6,0,0,1-1.92-.368L10.037,14.9,7.019,13.616l.749-1.988A12.7,12.7,0,0,1,6,10.322l-1.8,1.918L1.892,9.8l1.882-2c-.254-.377-.489-.765-.7-1.153l-1.87.8L0,4.229l1.84-.782a14.257,14.257,0,0,1-.318-1.718H0V0H12.152a2.343,2.343,0,0,0,1.084,2,1.911,1.911,0,0,0,.779.166A2.1,2.1,0,0,0,16.046,0H28.638V1.729H26.509a14.082,14.082,0,0,1-.318,1.718l1.84.782L26.823,7.437l-1.87-.8A13.553,13.553,0,0,1,24,8.166L25.527,9.8l-2.3,2.445L21.7,10.611a12.875,12.875,0,0,1-1.434,1.018l.748,1.988L17.992,14.9l-.735-1.955a11.456,11.456,0,0,1-1.313.287v1.99ZM4.81,1.729a10.077,10.077,0,0,0,2.7,5.4,9.074,9.074,0,0,0,5.179,2.7v-4.4a5.486,5.486,0,0,1-3.705-3.71Zm14.232,0h0a5.481,5.481,0,0,1-3.1,3.5v4.5a9.174,9.174,0,0,0,4.782-2.813A10.12,10.12,0,0,0,23.22,1.729H19.042Z" transform="translate(15.223 0.516) rotate(90)" fill="#d13e3e"/>
  <path id="Subtraction_34" data-name="Subtraction 34" d="M21.261,48.521H3a3,3,0,0,1-3-3V3A3,3,0,0,1,3,0H21.261a3,3,0,0,1,3,3V45.521A3,3,0,0,1,21.261,48.521ZM13.082,19.682a1.011,1.011,0,0,0-.975.75L10.2,27.567a1.011,1.011,0,1,0,1.953.522l1.906-7.135a1.012,1.012,0,0,0-.978-1.272Zm3.13,0a1.011,1.011,0,0,0-.734,1.707l2.791,2.944-2.753,2.615a1.011,1.011,0,1,0,1.392,1.466L20.393,25.1a1.011,1.011,0,0,0,.038-1.427L16.946,20A1,1,0,0,0,16.212,19.682Zm-8.164,0A1,1,0,0,0,7.314,20L3.83,23.674A1.011,1.011,0,0,0,3.867,25.1l3.485,3.311a1.011,1.011,0,0,0,1.392-1.466L5.992,24.332l2.79-2.943a1.011,1.011,0,0,0-.734-1.707ZM7.987,1.737a.778.778,0,1,0,0,1.556h8.288a.778.778,0,0,0,0-1.556Z" transform="translate(17.818 0)" fill="#d13e3e"/>
</svg>
