<svg xmlns="http://www.w3.org/2000/svg" xmlns:xlink="http://www.w3.org/1999/xlink" width="1464" height="1464" viewBox="0 0 1464 1464">
  <defs>
    <radialGradient id="radial-gradient" cx="0.5" cy="0.5" r="0.5" gradientUnits="objectBoundingBox">
      <stop offset="0" stop-color="#ff0a15" stop-opacity="0.169"/>
      <stop offset="0.778" stop-color="#7c1014"/>
      <stop offset="1" stop-color="#57090c"/>
    </radialGradient>
    <filter id="Ellipse_15" x="428" y="428" width="608" height="608" filterUnits="userSpaceOnUse">
      <feOffset dy="3" input="SourceAlpha"/>
      <feGaussianBlur stdDeviation="3" result="blur"/>
      <feFlood flood-opacity="0.161"/>
      <feComposite operator="in" in2="blur"/>
    </filter>
    <filter id="Ellipse_15-2" x="428" y="428" width="608" height="608" filterUnits="userSpaceOnUse">
      <feOffset dy="3" input="SourceAlpha"/>
      <feGaussianBlur stdDeviation="3" result="blur-2"/>
      <feFlood flood-opacity="0.161" result="color"/>
      <feComposite operator="out" in="SourceGraphic" in2="blur-2"/>
      <feComposite operator="in" in="color"/>
      <feComposite operator="in" in2="SourceGraphic"/>
    </filter>
    <radialGradient id="radial-gradient-3" cx="0.5" cy="0.5" r="0.5" gradientUnits="objectBoundingBox">
      <stop offset="0" stop-color="#ff0a15"/>
      <stop offset="0.778" stop-color="#7c1014"/>
      <stop offset="1" stop-color="#57090c"/>
    </radialGradient>
    <filter id="Ellipse_14" x="525" y="525" width="414" height="414" filterUnits="userSpaceOnUse">
      <feOffset dy="3" input="SourceAlpha"/>
      <feGaussianBlur stdDeviation="3" result="blur-3"/>
      <feFlood flood-opacity="0.161"/>
      <feComposite operator="in" in2="blur-3"/>
    </filter>
    <filter id="Ellipse_14-2" x="525" y="525" width="414" height="414" filterUnits="userSpaceOnUse">
      <feOffset dy="3" input="SourceAlpha"/>
      <feGaussianBlur stdDeviation="3" result="blur-4"/>
      <feFlood flood-opacity="0.161" result="color-2"/>
      <feComposite operator="out" in="SourceGraphic" in2="blur-4"/>
      <feComposite operator="in" in="color-2"/>
      <feComposite operator="in" in2="SourceGraphic"/>
    </filter>
    <filter id="Ellipse_13" x="579" y="579" width="306" height="306" filterUnits="userSpaceOnUse">
      <feOffset dy="3" input="SourceAlpha"/>
      <feGaussianBlur stdDeviation="3" result="blur-5"/>
      <feFlood flood-opacity="0.161"/>
      <feComposite operator="in" in2="blur-5"/>
    </filter>
    <filter id="Ellipse_13-2" x="579" y="579" width="306" height="306" filterUnits="userSpaceOnUse">
      <feOffset dy="3" input="SourceAlpha"/>
      <feGaussianBlur stdDeviation="3" result="blur-6"/>
      <feFlood flood-opacity="0.161" result="color-3"/>
      <feComposite operator="out" in="SourceGraphic" in2="blur-6"/>
      <feComposite operator="in" in="color-3"/>
      <feComposite operator="in" in2="SourceGraphic"/>
    </filter>
    <filter id="Ellipse_78" x="261" y="261" width="942" height="942" filterUnits="userSpaceOnUse">
      <feOffset dy="3" input="SourceAlpha"/>
      <feGaussianBlur stdDeviation="3" result="blur-7"/>
      <feFlood flood-opacity="0.161"/>
      <feComposite operator="in" in2="blur-7"/>
    </filter>
    <filter id="Ellipse_78-2" x="261" y="261" width="942" height="942" filterUnits="userSpaceOnUse">
      <feOffset dy="3" input="SourceAlpha"/>
      <feGaussianBlur stdDeviation="3" result="blur-8"/>
      <feFlood flood-opacity="0.161" result="color-4"/>
      <feComposite operator="out" in="SourceGraphic" in2="blur-8"/>
      <feComposite operator="in" in="color-4"/>
      <feComposite operator="in" in2="SourceGraphic"/>
    </filter>
    <filter id="Path_3381" x="0" y="0" width="1464" height="1464" filterUnits="userSpaceOnUse">
      <feOffset dy="3" input="SourceAlpha"/>
      <feGaussianBlur stdDeviation="3" result="blur-9"/>
      <feFlood flood-opacity="0.161"/>
      <feComposite operator="in" in2="blur-9"/>
    </filter>
    <filter id="Path_3381-2" x="0" y="0" width="1464" height="1464" filterUnits="userSpaceOnUse">
      <feOffset dy="3" input="SourceAlpha"/>
      <feGaussianBlur stdDeviation="3" result="blur-10"/>
      <feFlood flood-opacity="0.161" result="color-5"/>
      <feComposite operator="out" in="SourceGraphic" in2="blur-10"/>
      <feComposite operator="in" in="color-5"/>
      <feComposite operator="in" in2="SourceGraphic"/>
    </filter>
    <radialGradient id="radial-gradient-11" cx="0.5" cy="0.5" r="0.5" gradientUnits="objectBoundingBox">
      <stop offset="0" stop-color="#ff0a15"/>
      <stop offset="0.778" stop-color="#7c1014"/>
      <stop offset="1" stop-color="#ff000a"/>
    </radialGradient>
  </defs>
  <g id="Group_1903" data-name="Group 1903" transform="translate(-1080 137)">
    <g data-type="innerShadowGroup">
      <g transform="matrix(1, 0, 0, 1, 1080, -137)" filter="url(#Ellipse_15)">
        <g id="Ellipse_15-3" data-name="Ellipse 15" transform="translate(437 434)" stroke="rgba(204,52,52,0.38)" stroke-width="2" opacity="0.323" fill="url(#radial-gradient)">
          <circle cx="295" cy="295" r="295" stroke="none"/>
          <circle cx="295" cy="295" r="294" fill="none"/>
        </g>
      </g>
      <circle id="Ellipse_15-4" data-name="Ellipse 15" cx="295" cy="295" r="295" transform="translate(1517 297)" opacity="0.323" fill="url(#radial-gradient)"/>
      <g transform="matrix(1, 0, 0, 1, 1080, -137)" filter="url(#Ellipse_15-2)">
        <circle id="Ellipse_15-5" data-name="Ellipse 15" cx="295" cy="295" r="295" transform="translate(437 434)" fill="#fff" opacity="0.323"/>
      </g>
      <g id="Ellipse_15-6" data-name="Ellipse 15" transform="translate(1517 297)" fill="none" stroke="rgba(204,52,52,0.38)" stroke-width="2" opacity="0.323">
        <circle cx="295" cy="295" r="295" stroke="none"/>
        <circle cx="295" cy="295" r="294" fill="none"/>
      </g>
    </g>
    <g data-type="innerShadowGroup">
      <g transform="matrix(1, 0, 0, 1, 1080, -137)" filter="url(#Ellipse_14)">
        <g id="Ellipse_14-3" data-name="Ellipse 14" transform="translate(534 531)" stroke="rgba(204,52,52,0.38)" stroke-width="2" opacity="0.454" fill="url(#radial-gradient-3)">
          <circle cx="198" cy="198" r="198" stroke="none"/>
          <circle cx="198" cy="198" r="197" fill="none"/>
        </g>
      </g>
      <circle id="Ellipse_14-4" data-name="Ellipse 14" cx="198" cy="198" r="198" transform="translate(1614 394)" opacity="0.454" fill="url(#radial-gradient-3)"/>
      <g transform="matrix(1, 0, 0, 1, 1080, -137)" filter="url(#Ellipse_14-2)">
        <circle id="Ellipse_14-5" data-name="Ellipse 14" cx="198" cy="198" r="198" transform="translate(534 531)" fill="#fff" opacity="0.454"/>
      </g>
      <g id="Ellipse_14-6" data-name="Ellipse 14" transform="translate(1614 394)" fill="none" stroke="rgba(204,52,52,0.38)" stroke-width="2" opacity="0.454">
        <circle cx="198" cy="198" r="198" stroke="none"/>
        <circle cx="198" cy="198" r="197" fill="none"/>
      </g>
    </g>
    <g data-type="innerShadowGroup">
      <g transform="matrix(1, 0, 0, 1, 1080, -137)" filter="url(#Ellipse_13)">
        <g id="Ellipse_13-3" data-name="Ellipse 13" transform="translate(588 585)" stroke="#cc3434" stroke-width="2" opacity="0.454" fill="url(#radial-gradient-3)">
          <circle cx="144" cy="144" r="144" stroke="none"/>
          <circle cx="144" cy="144" r="143" fill="none"/>
        </g>
      </g>
      <circle id="Ellipse_13-4" data-name="Ellipse 13" cx="144" cy="144" r="144" transform="translate(1668 448)" opacity="0.454" fill="url(#radial-gradient-3)"/>
      <g transform="matrix(1, 0, 0, 1, 1080, -137)" filter="url(#Ellipse_13-2)">
        <circle id="Ellipse_13-5" data-name="Ellipse 13" cx="144" cy="144" r="144" transform="translate(588 585)" fill="#fff" opacity="0.454"/>
      </g>
      <g id="Ellipse_13-6" data-name="Ellipse 13" transform="translate(1668 448)" fill="none" stroke="#cc3434" stroke-width="2" opacity="0.454">
        <circle cx="144" cy="144" r="144" stroke="none"/>
        <circle cx="144" cy="144" r="143" fill="none"/>
      </g>
    </g>
    <g data-type="innerShadowGroup">
      <g transform="matrix(1, 0, 0, 1, 1080, -137)" filter="url(#Ellipse_78)">
        <g id="Ellipse_78-3" data-name="Ellipse 78" transform="translate(270 267)" stroke="rgba(204,52,52,0.38)" stroke-width="2" opacity="0.149" fill="url(#radial-gradient)">
          <circle cx="462" cy="462" r="462" stroke="none"/>
          <circle cx="462" cy="462" r="461" fill="none"/>
        </g>
      </g>
      <circle id="Ellipse_78-4" data-name="Ellipse 78" cx="462" cy="462" r="462" transform="translate(1350 130)" opacity="0.149" fill="url(#radial-gradient)"/>
      <g transform="matrix(1, 0, 0, 1, 1080, -137)" filter="url(#Ellipse_78-2)">
        <circle id="Ellipse_78-5" data-name="Ellipse 78" cx="462" cy="462" r="462" transform="translate(270 267)" fill="#fff" opacity="0.149"/>
      </g>
      <g id="Ellipse_78-6" data-name="Ellipse 78" transform="translate(1350 130)" fill="none" stroke="rgba(204,52,52,0.38)" stroke-width="2" opacity="0.149">
        <circle cx="462" cy="462" r="462" stroke="none"/>
        <circle cx="462" cy="462" r="461" fill="none"/>
      </g>
    </g>
    <g data-type="innerShadowGroup">
      <g transform="matrix(1, 0, 0, 1, 1080, -137)" filter="url(#Path_3381)">
        <g id="Path_3381-3" data-name="Path 3381" transform="translate(9 6)" opacity="0.081" fill="url(#radial-gradient)">
          <path d="M723,0c399.3,0,723,323.7,723,723s-323.7,723-723,723S0,1122.3,0,723,323.7,0,723,0Z" stroke="none"/>
          <path d="M 723 2 C 698.4052734375 2 673.6021728515625 3.2523193359375 649.2794799804688 5.7225341796875 C 625.3094482421875 8.1568603515625 601.2238159179688 11.832763671875 577.6912841796875 16.648193359375 C 554.4634399414062 21.4012451171875 531.2163696289062 27.3787841796875 508.5960083007812 34.414306640625 C 486.228515625 41.3714599609375 463.9418334960938 49.5283203125 442.3549194335938 58.658935546875 C 420.96728515625 67.705078125 399.7625732421875 77.9200439453125 379.3299560546875 89.0196533203125 C 359.0426025390625 100.04052734375 339.0418701171875 112.1912841796875 319.8834228515625 125.1343994140625 C 300.817626953125 138.014892578125 282.1427001953125 151.9796142578125 264.3778076171875 166.6405029296875 C 246.6563720703125 181.265869140625 229.4296875 196.9224853515625 213.176025390625 213.176025390625 C 196.9224853515625 229.4296875 181.265869140625 246.6563720703125 166.6405029296875 264.3778076171875 C 151.9796142578125 282.1427001953125 138.014892578125 300.817626953125 125.1343994140625 319.8834228515625 C 112.1912841796875 339.0418701171875 100.04052734375 359.0426025390625 89.0196533203125 379.3299560546875 C 77.9200439453125 399.7625732421875 67.705078125 420.96728515625 58.658935546875 442.3549194335938 C 49.5283203125 463.9418334960938 41.3714599609375 486.228515625 34.414306640625 508.5960083007812 C 27.3787841796875 531.2163696289062 21.4012451171875 554.4634399414062 16.648193359375 577.6912841796875 C 11.832763671875 601.2238159179688 8.1568603515625 625.3094482421875 5.7225341796875 649.2794799804688 C 3.2523193359375 673.6021728515625 2 698.4052734375 2 723 C 2 747.5947265625 3.2523193359375 772.3978271484375 5.7225341796875 796.7205200195312 C 8.1568603515625 820.6905517578125 11.832763671875 844.7761840820312 16.648193359375 868.3087158203125 C 21.4012451171875 891.5365600585938 27.3787841796875 914.7836303710938 34.414306640625 937.4039916992188 C 41.3714599609375 959.771484375 49.5283203125 982.0582275390625 58.658935546875 1003.645080566406 C 67.705078125 1025.03271484375 77.9200439453125 1046.237426757812 89.0196533203125 1066.670043945312 C 100.04052734375 1086.95751953125 112.1912841796875 1106.958251953125 125.1343994140625 1126.116577148438 C 138.014892578125 1145.182373046875 151.9796142578125 1163.857299804688 166.6405029296875 1181.622192382812 C 181.265869140625 1199.343627929688 196.9224853515625 1216.5703125 213.176025390625 1232.823974609375 C 229.4296875 1249.077392578125 246.6563720703125 1264.734130859375 264.3778076171875 1279.359497070312 C 282.1427001953125 1294.020385742188 300.817626953125 1307.985107421875 319.8834228515625 1320.865600585938 C 339.0418701171875 1333.808715820312 359.0426025390625 1345.95947265625 379.3299560546875 1356.980346679688 C 399.7625732421875 1368.079956054688 420.96728515625 1378.294921875 442.3549194335938 1387.341064453125 C 463.9418334960938 1396.4716796875 486.228515625 1404.628540039062 508.5960083007812 1411.585693359375 C 531.2163696289062 1418.621215820312 554.4634399414062 1424.598754882812 577.6912841796875 1429.351806640625 C 601.2238159179688 1434.167236328125 625.3094482421875 1437.843139648438 649.2794799804688 1440.277465820312 C 673.6021728515625 1442.747680664062 698.4052734375 1444 723 1444 C 747.5947265625 1444 772.3978271484375 1442.747680664062 796.7205200195312 1440.277465820312 C 820.6905517578125 1437.843139648438 844.7761840820312 1434.167236328125 868.3087158203125 1429.351806640625 C 891.5365600585938 1424.598754882812 914.7836303710938 1418.621215820312 937.4039916992188 1411.585693359375 C 959.771484375 1404.628540039062 982.0582275390625 1396.4716796875 1003.645080566406 1387.341064453125 C 1025.03271484375 1378.294921875 1046.237426757812 1368.079956054688 1066.670043945312 1356.980346679688 C 1086.95751953125 1345.95947265625 1106.958251953125 1333.808715820312 1126.116577148438 1320.865600585938 C 1145.182373046875 1307.985107421875 1163.857299804688 1294.020385742188 1181.622192382812 1279.359497070312 C 1199.343627929688 1264.734130859375 1216.5703125 1249.077392578125 1232.823974609375 1232.823974609375 C 1249.077392578125 1216.5703125 1264.734130859375 1199.343627929688 1279.359497070312 1181.622192382812 C 1294.020385742188 1163.857299804688 1307.985107421875 1145.182373046875 1320.865600585938 1126.116577148438 C 1333.808715820312 1106.958251953125 1345.95947265625 1086.95751953125 1356.980346679688 1066.670043945312 C 1368.079956054688 1046.237426757812 1378.294921875 1025.03271484375 1387.341064453125 1003.645080566406 C 1396.4716796875 982.0582275390625 1404.628540039062 959.771484375 1411.585693359375 937.4039916992188 C 1418.621215820312 914.7836303710938 1424.598754882812 891.5365600585938 1429.351806640625 868.3087158203125 C 1434.167236328125 844.7761840820312 1437.843139648438 820.6905517578125 1440.277465820312 796.7205200195312 C 1442.747680664062 772.3978271484375 1444 747.5947265625 1444 723 C 1444 698.4052734375 1442.747680664062 673.6021728515625 1440.277465820312 649.2794799804688 C 1437.843139648438 625.3094482421875 1434.167236328125 601.2238159179688 1429.351806640625 577.6912841796875 C 1424.598754882812 554.4634399414062 1418.621215820312 531.2163696289062 1411.585693359375 508.5960083007812 C 1404.628540039062 486.228515625 1396.4716796875 463.9418334960938 1387.341064453125 442.3549194335938 C 1378.294921875 420.96728515625 1368.079956054688 399.7625732421875 1356.980346679688 379.3299560546875 C 1345.95947265625 359.0426025390625 1333.808715820312 339.0418701171875 1320.865600585938 319.8834228515625 C 1307.985107421875 300.817626953125 1294.020385742188 282.1427001953125 1279.359497070312 264.3778076171875 C 1264.734130859375 246.6563720703125 1249.077392578125 229.4296875 1232.823974609375 213.176025390625 C 1216.5703125 196.9224853515625 1199.343627929688 181.265869140625 1181.622192382812 166.6405029296875 C 1163.857299804688 151.9796142578125 1145.182373046875 138.014892578125 1126.116577148438 125.1343994140625 C 1106.958251953125 112.1912841796875 1086.95751953125 100.04052734375 1066.670043945312 89.0196533203125 C 1046.237426757812 77.9200439453125 1025.03271484375 67.705078125 1003.645080566406 58.658935546875 C 982.0582275390625 49.5283203125 959.771484375 41.3714599609375 937.4039916992188 34.414306640625 C 914.7836303710938 27.3787841796875 891.5365600585938 21.4012451171875 868.3087158203125 16.648193359375 C 844.7761840820312 11.832763671875 820.6905517578125 8.1568603515625 796.7205200195312 5.7225341796875 C 772.3978271484375 3.2523193359375 747.5947265625 2 723 2 M 723 0 C 1122.3017578125 0 1446 323.6982421875 1446 723 C 1446 1122.3017578125 1122.3017578125 1446 723 1446 C 323.6982421875 1446 0 1122.3017578125 0 723 C 0 323.6982421875 323.6982421875 0 723 0 Z" stroke="none" fill="rgba(204,52,52,0.38)"/>
        </g>
      </g>
      <g id="Path_3381-4" data-name="Path 3381" transform="translate(1089 -131)" opacity="0.081" fill="url(#radial-gradient)">
        <path d="M723,0c399.3,0,723,323.7,723,723s-323.7,723-723,723S0,1122.3,0,723,323.7,0,723,0Z" stroke="none"/>
        <path d="M 723 2 C 698.4052734375 2 673.6021728515625 3.2523193359375 649.2794799804688 5.7225341796875 C 625.3094482421875 8.1568603515625 601.2238159179688 11.832763671875 577.6912841796875 16.648193359375 C 554.4634399414062 21.4012451171875 531.2163696289062 27.3787841796875 508.5960083007812 34.414306640625 C 486.228515625 41.3714599609375 463.9418334960938 49.5283203125 442.3549194335938 58.658935546875 C 420.96728515625 67.705078125 399.7625732421875 77.9200439453125 379.3299560546875 89.0196533203125 C 359.0426025390625 100.04052734375 339.0418701171875 112.1912841796875 319.8834228515625 125.1343994140625 C 300.817626953125 138.014892578125 282.1427001953125 151.9796142578125 264.3778076171875 166.6405029296875 C 246.6563720703125 181.265869140625 229.4296875 196.9224853515625 213.176025390625 213.176025390625 C 196.9224853515625 229.4296875 181.265869140625 246.6563720703125 166.6405029296875 264.3778076171875 C 151.9796142578125 282.1427001953125 138.014892578125 300.817626953125 125.1343994140625 319.8834228515625 C 112.1912841796875 339.0418701171875 100.04052734375 359.0426025390625 89.0196533203125 379.3299560546875 C 77.9200439453125 399.7625732421875 67.705078125 420.96728515625 58.658935546875 442.3549194335938 C 49.5283203125 463.9418334960938 41.3714599609375 486.228515625 34.414306640625 508.5960083007812 C 27.3787841796875 531.2163696289062 21.4012451171875 554.4634399414062 16.648193359375 577.6912841796875 C 11.832763671875 601.2238159179688 8.1568603515625 625.3094482421875 5.7225341796875 649.2794799804688 C 3.2523193359375 673.6021728515625 2 698.4052734375 2 723 C 2 747.5947265625 3.2523193359375 772.3978271484375 5.7225341796875 796.7205200195312 C 8.1568603515625 820.6905517578125 11.832763671875 844.7761840820312 16.648193359375 868.3087158203125 C 21.4012451171875 891.5365600585938 27.3787841796875 914.7836303710938 34.414306640625 937.4039916992188 C 41.3714599609375 959.771484375 49.5283203125 982.0582275390625 58.658935546875 1003.645080566406 C 67.705078125 1025.03271484375 77.9200439453125 1046.237426757812 89.0196533203125 1066.670043945312 C 100.04052734375 1086.95751953125 112.1912841796875 1106.958251953125 125.1343994140625 1126.116577148438 C 138.014892578125 1145.182373046875 151.9796142578125 1163.857299804688 166.6405029296875 1181.622192382812 C 181.265869140625 1199.343627929688 196.9224853515625 1216.5703125 213.176025390625 1232.823974609375 C 229.4296875 1249.077392578125 246.6563720703125 1264.734130859375 264.3778076171875 1279.359497070312 C 282.1427001953125 1294.020385742188 300.817626953125 1307.985107421875 319.8834228515625 1320.865600585938 C 339.0418701171875 1333.808715820312 359.0426025390625 1345.95947265625 379.3299560546875 1356.980346679688 C 399.7625732421875 1368.079956054688 420.96728515625 1378.294921875 442.3549194335938 1387.341064453125 C 463.9418334960938 1396.4716796875 486.228515625 1404.628540039062 508.5960083007812 1411.585693359375 C 531.2163696289062 1418.621215820312 554.4634399414062 1424.598754882812 577.6912841796875 1429.351806640625 C 601.2238159179688 1434.167236328125 625.3094482421875 1437.843139648438 649.2794799804688 1440.277465820312 C 673.6021728515625 1442.747680664062 698.4052734375 1444 723 1444 C 747.5947265625 1444 772.3978271484375 1442.747680664062 796.7205200195312 1440.277465820312 C 820.6905517578125 1437.843139648438 844.7761840820312 1434.167236328125 868.3087158203125 1429.351806640625 C 891.5365600585938 1424.598754882812 914.7836303710938 1418.621215820312 937.4039916992188 1411.585693359375 C 959.771484375 1404.628540039062 982.0582275390625 1396.4716796875 1003.645080566406 1387.341064453125 C 1025.03271484375 1378.294921875 1046.237426757812 1368.079956054688 1066.670043945312 1356.980346679688 C 1086.95751953125 1345.95947265625 1106.958251953125 1333.808715820312 1126.116577148438 1320.865600585938 C 1145.182373046875 1307.985107421875 1163.857299804688 1294.020385742188 1181.622192382812 1279.359497070312 C 1199.343627929688 1264.734130859375 1216.5703125 1249.077392578125 1232.823974609375 1232.823974609375 C 1249.077392578125 1216.5703125 1264.734130859375 1199.343627929688 1279.359497070312 1181.622192382812 C 1294.020385742188 1163.857299804688 1307.985107421875 1145.182373046875 1320.865600585938 1126.116577148438 C 1333.808715820312 1106.958251953125 1345.95947265625 1086.95751953125 1356.980346679688 1066.670043945312 C 1368.079956054688 1046.237426757812 1378.294921875 1025.03271484375 1387.341064453125 1003.645080566406 C 1396.4716796875 982.0582275390625 1404.628540039062 959.771484375 1411.585693359375 937.4039916992188 C 1418.621215820312 914.7836303710938 1424.598754882812 891.5365600585938 1429.351806640625 868.3087158203125 C 1434.167236328125 844.7761840820312 1437.843139648438 820.6905517578125 1440.277465820312 796.7205200195312 C 1442.747680664062 772.3978271484375 1444 747.5947265625 1444 723 C 1444 698.4052734375 1442.747680664062 673.6021728515625 1440.277465820312 649.2794799804688 C 1437.843139648438 625.3094482421875 1434.167236328125 601.2238159179688 1429.351806640625 577.6912841796875 C 1424.598754882812 554.4634399414062 1418.621215820312 531.2163696289062 1411.585693359375 508.5960083007812 C 1404.628540039062 486.228515625 1396.4716796875 463.9418334960938 1387.341064453125 442.3549194335938 C 1378.294921875 420.96728515625 1368.079956054688 399.7625732421875 1356.980346679688 379.3299560546875 C 1345.95947265625 359.0426025390625 1333.808715820312 339.0418701171875 1320.865600585938 319.8834228515625 C 1307.985107421875 300.817626953125 1294.020385742188 282.1427001953125 1279.359497070312 264.3778076171875 C 1264.734130859375 246.6563720703125 1249.077392578125 229.4296875 1232.823974609375 213.176025390625 C 1216.5703125 196.9224853515625 1199.343627929688 181.265869140625 1181.622192382812 166.6405029296875 C 1163.857299804688 151.9796142578125 1145.182373046875 138.014892578125 1126.116577148438 125.1343994140625 C 1106.958251953125 112.1912841796875 1086.95751953125 100.04052734375 1066.670043945312 89.0196533203125 C 1046.237426757812 77.9200439453125 1025.03271484375 67.705078125 1003.645080566406 58.658935546875 C 982.0582275390625 49.5283203125 959.771484375 41.3714599609375 937.4039916992188 34.414306640625 C 914.7836303710938 27.3787841796875 891.5365600585938 21.4012451171875 868.3087158203125 16.648193359375 C 844.7761840820312 11.832763671875 820.6905517578125 8.1568603515625 796.7205200195312 5.7225341796875 C 772.3978271484375 3.2523193359375 747.5947265625 2 723 2 M 723 0 C 1122.3017578125 0 1446 323.6982421875 1446 723 C 1446 1122.3017578125 1122.3017578125 1446 723 1446 C 323.6982421875 1446 0 1122.3017578125 0 723 C 0 323.6982421875 323.6982421875 0 723 0 Z" stroke="none"/>
      </g>
      <g transform="matrix(1, 0, 0, 1, 1080, -137)" filter="url(#Path_3381-2)">
        <g id="Path_3381-5" data-name="Path 3381" transform="translate(9 6)" fill="#fff" opacity="0.081">
          <path d="M723,0c399.3,0,723,323.7,723,723s-323.7,723-723,723S0,1122.3,0,723,323.7,0,723,0Z" stroke="none"/>
          <path d="M 723 2 C 698.4052734375 2 673.6021728515625 3.2523193359375 649.2794799804688 5.7225341796875 C 625.3094482421875 8.1568603515625 601.2238159179688 11.832763671875 577.6912841796875 16.648193359375 C 554.4634399414062 21.4012451171875 531.2163696289062 27.3787841796875 508.5960083007812 34.414306640625 C 486.228515625 41.3714599609375 463.9418334960938 49.5283203125 442.3549194335938 58.658935546875 C 420.96728515625 67.705078125 399.7625732421875 77.9200439453125 379.3299560546875 89.0196533203125 C 359.0426025390625 100.04052734375 339.0418701171875 112.1912841796875 319.8834228515625 125.1343994140625 C 300.817626953125 138.014892578125 282.1427001953125 151.9796142578125 264.3778076171875 166.6405029296875 C 246.6563720703125 181.265869140625 229.4296875 196.9224853515625 213.176025390625 213.176025390625 C 196.9224853515625 229.4296875 181.265869140625 246.6563720703125 166.6405029296875 264.3778076171875 C 151.9796142578125 282.1427001953125 138.014892578125 300.817626953125 125.1343994140625 319.8834228515625 C 112.1912841796875 339.0418701171875 100.04052734375 359.0426025390625 89.0196533203125 379.3299560546875 C 77.9200439453125 399.7625732421875 67.705078125 420.96728515625 58.658935546875 442.3549194335938 C 49.5283203125 463.9418334960938 41.3714599609375 486.228515625 34.414306640625 508.5960083007812 C 27.3787841796875 531.2163696289062 21.4012451171875 554.4634399414062 16.648193359375 577.6912841796875 C 11.832763671875 601.2238159179688 8.1568603515625 625.3094482421875 5.7225341796875 649.2794799804688 C 3.2523193359375 673.6021728515625 2 698.4052734375 2 723 C 2 747.5947265625 3.2523193359375 772.3978271484375 5.7225341796875 796.7205200195312 C 8.1568603515625 820.6905517578125 11.832763671875 844.7761840820312 16.648193359375 868.3087158203125 C 21.4012451171875 891.5365600585938 27.3787841796875 914.7836303710938 34.414306640625 937.4039916992188 C 41.3714599609375 959.771484375 49.5283203125 982.0582275390625 58.658935546875 1003.645080566406 C 67.705078125 1025.03271484375 77.9200439453125 1046.237426757812 89.0196533203125 1066.670043945312 C 100.04052734375 1086.95751953125 112.1912841796875 1106.958251953125 125.1343994140625 1126.116577148438 C 138.014892578125 1145.182373046875 151.9796142578125 1163.857299804688 166.6405029296875 1181.622192382812 C 181.265869140625 1199.343627929688 196.9224853515625 1216.5703125 213.176025390625 1232.823974609375 C 229.4296875 1249.077392578125 246.6563720703125 1264.734130859375 264.3778076171875 1279.359497070312 C 282.1427001953125 1294.020385742188 300.817626953125 1307.985107421875 319.8834228515625 1320.865600585938 C 339.0418701171875 1333.808715820312 359.0426025390625 1345.95947265625 379.3299560546875 1356.980346679688 C 399.7625732421875 1368.079956054688 420.96728515625 1378.294921875 442.3549194335938 1387.341064453125 C 463.9418334960938 1396.4716796875 486.228515625 1404.628540039062 508.5960083007812 1411.585693359375 C 531.2163696289062 1418.621215820312 554.4634399414062 1424.598754882812 577.6912841796875 1429.351806640625 C 601.2238159179688 1434.167236328125 625.3094482421875 1437.843139648438 649.2794799804688 1440.277465820312 C 673.6021728515625 1442.747680664062 698.4052734375 1444 723 1444 C 747.5947265625 1444 772.3978271484375 1442.747680664062 796.7205200195312 1440.277465820312 C 820.6905517578125 1437.843139648438 844.7761840820312 1434.167236328125 868.3087158203125 1429.351806640625 C 891.5365600585938 1424.598754882812 914.7836303710938 1418.621215820312 937.4039916992188 1411.585693359375 C 959.771484375 1404.628540039062 982.0582275390625 1396.4716796875 1003.645080566406 1387.341064453125 C 1025.03271484375 1378.294921875 1046.237426757812 1368.079956054688 1066.670043945312 1356.980346679688 C 1086.95751953125 1345.95947265625 1106.958251953125 1333.808715820312 1126.116577148438 1320.865600585938 C 1145.182373046875 1307.985107421875 1163.857299804688 1294.020385742188 1181.622192382812 1279.359497070312 C 1199.343627929688 1264.734130859375 1216.5703125 1249.077392578125 1232.823974609375 1232.823974609375 C 1249.077392578125 1216.5703125 1264.734130859375 1199.343627929688 1279.359497070312 1181.622192382812 C 1294.020385742188 1163.857299804688 1307.985107421875 1145.182373046875 1320.865600585938 1126.116577148438 C 1333.808715820312 1106.958251953125 1345.95947265625 1086.95751953125 1356.980346679688 1066.670043945312 C 1368.079956054688 1046.237426757812 1378.294921875 1025.03271484375 1387.341064453125 1003.645080566406 C 1396.4716796875 982.0582275390625 1404.628540039062 959.771484375 1411.585693359375 937.4039916992188 C 1418.621215820312 914.7836303710938 1424.598754882812 891.5365600585938 1429.351806640625 868.3087158203125 C 1434.167236328125 844.7761840820312 1437.843139648438 820.6905517578125 1440.277465820312 796.7205200195312 C 1442.747680664062 772.3978271484375 1444 747.5947265625 1444 723 C 1444 698.4052734375 1442.747680664062 673.6021728515625 1440.277465820312 649.2794799804688 C 1437.843139648438 625.3094482421875 1434.167236328125 601.2238159179688 1429.351806640625 577.6912841796875 C 1424.598754882812 554.4634399414062 1418.621215820312 531.2163696289062 1411.585693359375 508.5960083007812 C 1404.628540039062 486.228515625 1396.4716796875 463.9418334960938 1387.341064453125 442.3549194335938 C 1378.294921875 420.96728515625 1368.079956054688 399.7625732421875 1356.980346679688 379.3299560546875 C 1345.95947265625 359.0426025390625 1333.808715820312 339.0418701171875 1320.865600585938 319.8834228515625 C 1307.985107421875 300.817626953125 1294.020385742188 282.1427001953125 1279.359497070312 264.3778076171875 C 1264.734130859375 246.6563720703125 1249.077392578125 229.4296875 1232.823974609375 213.176025390625 C 1216.5703125 196.9224853515625 1199.343627929688 181.265869140625 1181.622192382812 166.6405029296875 C 1163.857299804688 151.9796142578125 1145.182373046875 138.014892578125 1126.116577148438 125.1343994140625 C 1106.958251953125 112.1912841796875 1086.95751953125 100.04052734375 1066.670043945312 89.0196533203125 C 1046.237426757812 77.9200439453125 1025.03271484375 67.705078125 1003.645080566406 58.658935546875 C 982.0582275390625 49.5283203125 959.771484375 41.3714599609375 937.4039916992188 34.414306640625 C 914.7836303710938 27.3787841796875 891.5365600585938 21.4012451171875 868.3087158203125 16.648193359375 C 844.7761840820312 11.832763671875 820.6905517578125 8.1568603515625 796.7205200195312 5.7225341796875 C 772.3978271484375 3.2523193359375 747.5947265625 2 723 2 M 723 0 C 1122.3017578125 0 1446 323.6982421875 1446 723 C 1446 1122.3017578125 1122.3017578125 1446 723 1446 C 323.6982421875 1446 0 1122.3017578125 0 723 C 0 323.6982421875 323.6982421875 0 723 0 Z" stroke="none"/>
        </g>
      </g>
      <g id="Path_3381-6" data-name="Path 3381" transform="translate(1089 -131)" fill="none" opacity="0.081">
        <path d="M723,0c399.3,0,723,323.7,723,723s-323.7,723-723,723S0,1122.3,0,723,323.7,0,723,0Z" stroke="none"/>
        <path d="M 723 2 C 698.4052734375 2 673.6021728515625 3.2523193359375 649.2794799804688 5.7225341796875 C 625.3094482421875 8.1568603515625 601.2238159179688 11.832763671875 577.6912841796875 16.648193359375 C 554.4634399414062 21.4012451171875 531.2163696289062 27.3787841796875 508.5960083007812 34.414306640625 C 486.228515625 41.3714599609375 463.9418334960938 49.5283203125 442.3549194335938 58.658935546875 C 420.96728515625 67.705078125 399.7625732421875 77.9200439453125 379.3299560546875 89.0196533203125 C 359.0426025390625 100.04052734375 339.0418701171875 112.1912841796875 319.8834228515625 125.1343994140625 C 300.817626953125 138.014892578125 282.1427001953125 151.9796142578125 264.3778076171875 166.6405029296875 C 246.6563720703125 181.265869140625 229.4296875 196.9224853515625 213.176025390625 213.176025390625 C 196.9224853515625 229.4296875 181.265869140625 246.6563720703125 166.6405029296875 264.3778076171875 C 151.9796142578125 282.1427001953125 138.014892578125 300.817626953125 125.1343994140625 319.8834228515625 C 112.1912841796875 339.0418701171875 100.04052734375 359.0426025390625 89.0196533203125 379.3299560546875 C 77.9200439453125 399.7625732421875 67.705078125 420.96728515625 58.658935546875 442.3549194335938 C 49.5283203125 463.9418334960938 41.3714599609375 486.228515625 34.414306640625 508.5960083007812 C 27.3787841796875 531.2163696289062 21.4012451171875 554.4634399414062 16.648193359375 577.6912841796875 C 11.832763671875 601.2238159179688 8.1568603515625 625.3094482421875 5.7225341796875 649.2794799804688 C 3.2523193359375 673.6021728515625 2 698.4052734375 2 723 C 2 747.5947265625 3.2523193359375 772.3978271484375 5.7225341796875 796.7205200195312 C 8.1568603515625 820.6905517578125 11.832763671875 844.7761840820312 16.648193359375 868.3087158203125 C 21.4012451171875 891.5365600585938 27.3787841796875 914.7836303710938 34.414306640625 937.4039916992188 C 41.3714599609375 959.771484375 49.5283203125 982.0582275390625 58.658935546875 1003.645080566406 C 67.705078125 1025.03271484375 77.9200439453125 1046.237426757812 89.0196533203125 1066.670043945312 C 100.04052734375 1086.95751953125 112.1912841796875 1106.958251953125 125.1343994140625 1126.116577148438 C 138.014892578125 1145.182373046875 151.9796142578125 1163.857299804688 166.6405029296875 1181.622192382812 C 181.265869140625 1199.343627929688 196.9224853515625 1216.5703125 213.176025390625 1232.823974609375 C 229.4296875 1249.077392578125 246.6563720703125 1264.734130859375 264.3778076171875 1279.359497070312 C 282.1427001953125 1294.020385742188 300.817626953125 1307.985107421875 319.8834228515625 1320.865600585938 C 339.0418701171875 1333.808715820312 359.0426025390625 1345.95947265625 379.3299560546875 1356.980346679688 C 399.7625732421875 1368.079956054688 420.96728515625 1378.294921875 442.3549194335938 1387.341064453125 C 463.9418334960938 1396.4716796875 486.228515625 1404.628540039062 508.5960083007812 1411.585693359375 C 531.2163696289062 1418.621215820312 554.4634399414062 1424.598754882812 577.6912841796875 1429.351806640625 C 601.2238159179688 1434.167236328125 625.3094482421875 1437.843139648438 649.2794799804688 1440.277465820312 C 673.6021728515625 1442.747680664062 698.4052734375 1444 723 1444 C 747.5947265625 1444 772.3978271484375 1442.747680664062 796.7205200195312 1440.277465820312 C 820.6905517578125 1437.843139648438 844.7761840820312 1434.167236328125 868.3087158203125 1429.351806640625 C 891.5365600585938 1424.598754882812 914.7836303710938 1418.621215820312 937.4039916992188 1411.585693359375 C 959.771484375 1404.628540039062 982.0582275390625 1396.4716796875 1003.645080566406 1387.341064453125 C 1025.03271484375 1378.294921875 1046.237426757812 1368.079956054688 1066.670043945312 1356.980346679688 C 1086.95751953125 1345.95947265625 1106.958251953125 1333.808715820312 1126.116577148438 1320.865600585938 C 1145.182373046875 1307.985107421875 1163.857299804688 1294.020385742188 1181.622192382812 1279.359497070312 C 1199.343627929688 1264.734130859375 1216.5703125 1249.077392578125 1232.823974609375 1232.823974609375 C 1249.077392578125 1216.5703125 1264.734130859375 1199.343627929688 1279.359497070312 1181.622192382812 C 1294.020385742188 1163.857299804688 1307.985107421875 1145.182373046875 1320.865600585938 1126.116577148438 C 1333.808715820312 1106.958251953125 1345.95947265625 1086.95751953125 1356.980346679688 1066.670043945312 C 1368.079956054688 1046.237426757812 1378.294921875 1025.03271484375 1387.341064453125 1003.645080566406 C 1396.4716796875 982.0582275390625 1404.628540039062 959.771484375 1411.585693359375 937.4039916992188 C 1418.621215820312 914.7836303710938 1424.598754882812 891.5365600585938 1429.351806640625 868.3087158203125 C 1434.167236328125 844.7761840820312 1437.843139648438 820.6905517578125 1440.277465820312 796.7205200195312 C 1442.747680664062 772.3978271484375 1444 747.5947265625 1444 723 C 1444 698.4052734375 1442.747680664062 673.6021728515625 1440.277465820312 649.2794799804688 C 1437.843139648438 625.3094482421875 1434.167236328125 601.2238159179688 1429.351806640625 577.6912841796875 C 1424.598754882812 554.4634399414062 1418.621215820312 531.2163696289062 1411.585693359375 508.5960083007812 C 1404.628540039062 486.228515625 1396.4716796875 463.9418334960938 1387.341064453125 442.3549194335938 C 1378.294921875 420.96728515625 1368.079956054688 399.7625732421875 1356.980346679688 379.3299560546875 C 1345.95947265625 359.0426025390625 1333.808715820312 339.0418701171875 1320.865600585938 319.8834228515625 C 1307.985107421875 300.817626953125 1294.020385742188 282.1427001953125 1279.359497070312 264.3778076171875 C 1264.734130859375 246.6563720703125 1249.077392578125 229.4296875 1232.823974609375 213.176025390625 C 1216.5703125 196.9224853515625 1199.343627929688 181.265869140625 1181.622192382812 166.6405029296875 C 1163.857299804688 151.9796142578125 1145.182373046875 138.014892578125 1126.116577148438 125.1343994140625 C 1106.958251953125 112.1912841796875 1086.95751953125 100.04052734375 1066.670043945312 89.0196533203125 C 1046.237426757812 77.9200439453125 1025.03271484375 67.705078125 1003.645080566406 58.658935546875 C 982.0582275390625 49.5283203125 959.771484375 41.3714599609375 937.4039916992188 34.414306640625 C 914.7836303710938 27.3787841796875 891.5365600585938 21.4012451171875 868.3087158203125 16.648193359375 C 844.7761840820312 11.832763671875 820.6905517578125 8.1568603515625 796.7205200195312 5.7225341796875 C 772.3978271484375 3.2523193359375 747.5947265625 2 723 2 M 723 0 C 1122.3017578125 0 1446 323.6982421875 1446 723 C 1446 1122.3017578125 1122.3017578125 1446 723 1446 C 323.6982421875 1446 0 1122.3017578125 0 723 C 0 323.6982421875 323.6982421875 0 723 0 Z" stroke="none" fill="rgba(204,52,52,0.38)"/>
      </g>
    </g>
    <circle id="Ellipse_5" data-name="Ellipse 5" cx="103" cy="103" r="103" transform="translate(1709 489)" fill="url(#radial-gradient-11)"/>
  </g>
</svg>
