<svg xmlns="http://www.w3.org/2000/svg" width="11" height="15.815" viewBox="0 0 11 15.815">
  <path id="Subtraction_10" data-name="Subtraction 10" d="M5.5,15.815h0c-.014-.019-1.4-1.883-2.75-4.071A33.3,33.3,0,0,1,.859,8.313,7.608,7.608,0,0,1,0,5.426,5.329,5.329,0,0,1,.432,3.314,5.4,5.4,0,0,1,1.611,1.589,5.565,5.565,0,0,1,7.641.426,5.486,5.486,0,0,1,9.389,1.589a5.4,5.4,0,0,1,1.179,1.725A5.329,5.329,0,0,1,11,5.426a7.608,7.608,0,0,1-.859,2.888A33.3,33.3,0,0,1,8.25,11.744C6.9,13.932,5.514,15.8,5.5,15.815ZM5.587,3.1A2.525,2.525,0,0,0,2.968,5.512,2.525,2.525,0,0,0,5.587,7.924,2.524,2.524,0,0,0,8.206,5.512,2.525,2.525,0,0,0,5.587,3.1Z" fill="#fff"/>
</svg>
