<svg id="Group_2014" data-name="Group 2014" xmlns="http://www.w3.org/2000/svg" width="16.859" height="13.055" viewBox="0 0 16.859 13.055">
  <path id="Path_3382" data-name="Path 3382" d="M21.818,9.69H6.081a.561.561,0,0,0-.561.561v1.127a.184.184,0,0,0,.1.132l8.274,4.726a.129.129,0,0,0,.068.018.134.134,0,0,0,.073-.018l8.023-4.721c.046-.023.164-.091.21-.119s.109-.073.109-.137V10.251A.561.561,0,0,0,21.818,9.69Z" transform="translate(-5.52 -9.69)" fill="#fff"/>
  <path id="Path_3383" data-name="Path 3383" d="M36.665,17.088a.142.142,0,0,0-.141,0L31.981,19.76a.128.128,0,0,0-.064.1.131.131,0,0,0,.032.114l4.543,4.894a.129.129,0,0,0,.1.046.229.229,0,0,0,.055-.009.146.146,0,0,0,.087-.132V17.211A.144.144,0,0,0,36.665,17.088Z" transform="translate(-19.875 -13.703)" fill="#fff"/>
  <path id="Path_3384" data-name="Path 3384" d="M16.571,24.885a.14.14,0,0,0-.173-.027l-1.82,1.072a.726.726,0,0,1-.7,0l-1.606-.917a.138.138,0,0,0-.164.018l-6.08,5.642a.145.145,0,0,0-.046.119.155.155,0,0,0,.073.1.531.531,0,0,0,.278.082H21.907a.137.137,0,0,0,.128-.087.133.133,0,0,0-.027-.151Z" transform="translate(-5.769 -17.929)" fill="#fff"/>
  <path id="Path_3385" data-name="Path 3385" d="M10.519,20.276a.145.145,0,0,0,.046-.119.141.141,0,0,0-.068-.1L5.73,17.33a.155.155,0,0,0-.141,0,.15.15,0,0,0-.068.123v7.139a.131.131,0,0,0,.082.128.126.126,0,0,0,.059.014.157.157,0,0,0,.1-.036Z" transform="translate(-5.52 -13.836)" fill="#fff"/>
</svg>
