<svg xmlns="http://www.w3.org/2000/svg" width="12.928" height="14.693" viewBox="0 0 12.928 14.693">
  <path id="Path_3378" data-name="Path 3378" d="M143.027,642.062l-1.237,2.626a.6.6,0,0,1-.64.36,12.512,12.512,0,0,1-7.218-4.138,15.985,15.985,0,0,1-3.751-8.271.779.779,0,0,1,.343-.769c.762-.461,1.585-1,2.32-1.429a.589.589,0,0,1,.82.254l1.412,2.549a.984.984,0,0,1-.1,1.1l-.687.8a1.034,1.034,0,0,0-.21.9,6.6,6.6,0,0,0,1.454,2.883,5.441,5.441,0,0,0,2.9,1.728.729.729,0,0,0,.7-.234l.693-.758a.611.611,0,0,1,.822-.1l2.16,1.54A.784.784,0,0,1,143.027,642.062Z" transform="translate(-130.175 -630.363)" fill="#fff"/>
</svg>
