<svg xmlns="http://www.w3.org/2000/svg" xmlns:xlink="http://www.w3.org/1999/xlink" width="63.542" height="62.453" viewBox="0 0 63.542 62.453">
  <defs>
    <linearGradient id="linear-gradient" x1="0.169" y1="-0.071" x2="0.939" y2="1.133" gradientUnits="objectBoundingBox">
      <stop offset="0.006" stop-color="#ab1e23"/>
      <stop offset="0.022" stop-color="#af1d23"/>
      <stop offset="0.108" stop-color="#c51d24"/>
      <stop offset="0.209" stop-color="#d61d25"/>
      <stop offset="0.335" stop-color="#e21d25"/>
      <stop offset="0.511" stop-color="#e91d25"/>
      <stop offset="1" stop-color="#eb1d26"/>
    </linearGradient>
    <linearGradient id="linear-gradient-2" x1="0.504" y1="0.059" x2="0.492" y2="1.014" gradientUnits="objectBoundingBox">
      <stop offset="0.006" stop-color="#eb1d26"/>
      <stop offset="0.395" stop-color="#ec2b25"/>
      <stop offset="1" stop-color="#f04b23"/>
    </linearGradient>
  </defs>
  <g id="zynappse-logo" transform="translate(-1628.551 -94.306)">
    <path id="Path_3179" data-name="Path 3179" d="M1746.025,115.822l-18.12.46-17.772-.46a19.142,19.142,0,0,1,7.616-14.357l-21.056-1.032a5.187,5.187,0,1,1-.075-2.222h28.99a16.876,16.876,0,0,1,2.473-.18C1737.65,98.032,1745.471,105.9,1746.025,115.822Z" transform="translate(-53.962)" fill="url(#linear-gradient)"/>
    <path id="Path_3180" data-name="Path 3180" d="M2040.411,415.138l17.772.46,18.12-.46" transform="translate(-384.24 -299.316)" fill="none"/>
    <path id="Path_3181" data-name="Path 3181" d="M1689.9,465.553a5.713,5.713,0,0,1-5.633,5.783,5.559,5.559,0,0,1-4.418-2.2l-33.026.954a10.273,10.273,0,1,1,1.358-10.691l23.334-6.561c-8.611-1.313-15.243-9.049-15.374-18.441,2.9.112,10.343.37,17.824.344,7.571-.03,15.176-.344,18.127-.475-.071,9.744-7.145,17.738-16.186,18.677h-.007l-26.914,9.157a10.459,10.459,0,0,1,.116,1.545,10.046,10.046,0,0,1-.277,2.364l29.981.976a5.884,5.884,0,0,1-.176-1.436,5.637,5.637,0,1,1,11.271,0Z" transform="translate(0 -317.165)" fill="url(#linear-gradient-2)"/>
    <path id="Path_3182" data-name="Path 3182" d="M2040.411,415.138l17.772.46,18.12-.46" transform="translate(-384.24 -299.316)" fill="none"/>
  </g>
</svg>
