<svg xmlns="http://www.w3.org/2000/svg" width="71" height="71" viewBox="0 0 71 71">
  <g id="Group_1934" data-name="Group 1934" transform="translate(-15270 21455)">
    <g id="Ellipse_736" data-name="Ellipse 736" transform="translate(15270 -21455)" fill="rgba(255,255,255,0.45)" stroke="#707070" stroke-width="1">
      <circle cx="35.5" cy="35.5" r="35.5" stroke="none"/>
      <circle cx="35.5" cy="35.5" r="35" fill="none"/>
    </g>
    <g id="Group_1929" data-name="Group 1929" transform="translate(15286.27 -21432.885)">
      <path id="Path_3258" data-name="Path 3258" d="M884.411,560.558c-.191,2.535-2.276,4.213-4.78,4.654-4.765.84-9.454.715-14.178.715A94.717,94.717,0,0,1,851.1,565.2a5.542,5.542,0,0,1-4.683-4.654c-.178-2.573-.368-5.354-.368-8.216,0-2.744.271-5.468.464-8.2a5.282,5.282,0,0,1,4.789-4.679,144.772,144.772,0,0,1,28.326,0,5.274,5.274,0,0,1,4.788,4.654c.207,2.739.5,5.476.5,8.222S884.618,557.815,884.411,560.558Z" transform="translate(-846.044 -538.763)" fill="#fff"/>
      <path id="Path_3259" data-name="Path 3259" d="M950.93,590.733v11.725l10.183-5.848Z" transform="translate(-935.375 -583.026)" fill="#6e6b6b" opacity="0.45"/>
    </g>
  </g>
</svg>
