<svg xmlns="http://www.w3.org/2000/svg" width="71" height="71" viewBox="0 0 71 71">
  <g id="facebook-icon" transform="translate(-15601 21455)">
    <circle id="Ellipse_735" data-name="Ellipse 735" cx="35.5" cy="35.5" r="35.5" transform="translate(15601 -21455)" fill="rgba(255,255,255,0.45)"/>
    <path id="Path_3257" data-name="Path 3257" d="M172.435,199.383v-5.252a1.182,1.182,0,0,0-1.182-1.182h-5.339a9.348,9.348,0,0,0-9.348,9.348v4.695a.589.589,0,0,1-.589.589H151.46a1.18,1.18,0,0,0-1.18,1.18v6.629a.589.589,0,0,0,.589.589h4.954a.589.589,0,0,1,.589.588l.046,16.32a1.18,1.18,0,0,0,1.18,1.177h6.2a1.18,1.18,0,0,0,1.18-1.18V216.569a.589.589,0,0,1,.589-.589h5.348a1.18,1.18,0,0,0,1.18-1.173l.037-6.089a1.18,1.18,0,0,0-1.18-1.188h-5.335a.589.589,0,0,1-.589-.588l-.009-3.587a2.816,2.816,0,0,1,2.843-2.823l3.344.031A1.18,1.18,0,0,0,172.435,199.383Z" transform="translate(15474.574 -21631.777)" fill="#fff"/>
  </g>
</svg>
