<svg xmlns="http://www.w3.org/2000/svg" width="71" height="71" viewBox="0 0 71 71">
  <g id="Group_1931" data-name="Group 1931" transform="translate(-15880 21454.521)">
    <g id="Ellipse_734" data-name="Ellipse 734" transform="translate(15880 -21454.521)" fill="rgba(255,255,255,0.45)" stroke="#707070" stroke-width="1">
      <circle cx="35.5" cy="35.5" r="35.5" stroke="none"/>
      <circle cx="35.5" cy="35.5" r="35" fill="none"/>
    </g>
    <path id="Path_3260" data-name="Path 3260" d="M165.924,662.9q-1.722,3.652-3.44,7.3a1.668,1.668,0,0,1-1.78,1,34.8,34.8,0,0,1-20.077-11.51,44.463,44.463,0,0,1-10.432-23.007,2.166,2.166,0,0,1,.954-2.138c2.119-1.282,4.408-2.791,6.453-3.974a1.639,1.639,0,0,1,2.282.706l3.927,7.09a2.738,2.738,0,0,1-.29,3.057l-1.912,2.22a2.875,2.875,0,0,0-.584,2.5,18.365,18.365,0,0,0,4.045,8.02,15.135,15.135,0,0,0,8.057,4.808,2.028,2.028,0,0,0,1.948-.651q.963-1.055,1.928-2.108a1.7,1.7,0,0,1,2.285-.268l6.009,4.284A2.182,2.182,0,0,1,165.924,662.9Z" transform="translate(15767.346 -22068.334)" fill="#fff"/>
  </g>
</svg>
