<?xml version="1.0" encoding="utf-8"?>
<!-- Generator: Adobe Illustrator 20.1.0, SVG Export Plug-In . SVG Version: 6.00 Build 0)  -->
<svg version="1.1" id="Web_and_Development" xmlns="http://www.w3.org/2000/svg" xmlns:xlink="http://www.w3.org/1999/xlink"
	 x="0px" y="0px" viewBox="0 0 1172.7 1154.5" style="enable-background:new 0 0 1172.7 1154.5;" xml:space="preserve">
<style type="text/css">
	.st0{fill:#4DABCF;}
	.st1{fill:#E2C59D;}
	.st2{fill:#F9D5A5;}
	.st3{opacity:0.2;}
	.st4{opacity:0.1;}
	.st5{fill-rule:evenodd;clip-rule:evenodd;fill:#0B2E44;}
	.st6{opacity:0.8;fill-rule:evenodd;clip-rule:evenodd;fill:#39C3DE;}
	.st7{opacity:0.1;fill-rule:evenodd;clip-rule:evenodd;}
	.st8{fill:#EFEFEF;}
	.st9{fill:#D8472A;}
	.st10{fill:#0093A2;}
	.st11{opacity:0.5;fill:#FFFFFF;}
	.st12{fill:#EAE8E8;}
	.st13{fill:#0898AF;}
	.st14{fill:#3F3F3F;}
	.st15{fill:#E0E0E0;}
	.st16{opacity:0.2;fill:#FFFFFF;}
</style>
<g id="E-Commerce">
	<g id="Background_21_">
		<circle id="Background_2_21_" class="st0" cx="586.9" cy="569.6" r="532"/>
	</g>
	<g id="E-Commerce_2_">
		<g id="Acces_2_">
			<path class="st1" d="M584,598.3h122.5l52.7,121.8v353l-39.2,11.7L677,1094l-48.9,6l-22.7,0.7l-28,0.9l-33.7-1.7l-18.8-2.2
				l-17.2-2V952.5c0,0-99.9-72.4-107.1-130.4c0,0,33-4.7,125.8-6c92.8-1.3,100.5-51.9,151.8-80.2l-17.8-59.3
				C660.4,676.6,586.7,678.6,584,598.3z"/>
			<path class="st2" d="M421.7,521.2c-6.7,11.3-25,12.7-41,3.3l-42.2-25c-16-9.5-23.5-26.3-16.8-37.5l4-6.8c6.7-11.3,25-12.7,41-3.3
				l42.2,25c16,9.5,23.5,26.2,16.8,37.5L421.7,521.2z"/>
			<path class="st3" d="M401.4,827.1c1.4,6.5,3.8,13.2,7.1,20H672l10.6-52.4h-70l-7.2,0.6c-18.2,11.8-41.7,20.3-79,20.8
				c-65.3,0.9-101,3.5-116.4,5L401.4,827.1z"/>
			<path class="st4" d="M408.9,476.9l-14.2-8.4v61.4c11.5,2.4,22.3-0.7,27-8.7l4-6.8C432.4,503.1,424.8,486.3,408.9,476.9z"/>
			<g id="Phone_6_">
				<path class="st5" d="M711.3,819.5c0,10.1-8.2,18.3-18.3,18.3H418.7c-10.1,0-18.3-8.2-18.3-18.3V315.1c0-10.1,8.2-18.3,18.3-18.3
					H693c10.1,0,18.3,8.2,18.3,18.3V819.5z"/>
				<rect x="429" y="361" class="st6" width="253.6" height="369.9"/>
				<polygon class="st7" points="682.6,361 677.9,361 429,715.9 429,730.8 682.6,730.8 				"/>
			</g>
			<g>
				<rect x="429" y="361" class="st8" width="253.6" height="369.9"/>
				<rect x="429" y="361" class="st0" width="253.6" height="52.3"/>
				<rect x="429" y="459.6" class="st9" width="253.6" height="94.4"/>
				<rect x="444.5" y="577.5" class="st9" width="27.2" height="27.2"/>
				<rect x="444.5" y="629.5" class="st9" width="27.2" height="27.2"/>
				<rect x="444.5" y="682.5" class="st9" width="27.2" height="27.2"/>
				<g>
					<rect x="491.2" y="577.5" class="st10" width="126.7" height="2.9"/>
					<rect x="491.2" y="584.7" class="st10" width="126.7" height="3.5"/>
					<rect x="491.2" y="593.8" class="st10" width="126.7" height="2.9"/>
					<rect x="491.2" y="601.8" class="st10" width="126.7" height="2.9"/>
				</g>
				<g>
					<rect x="491.2" y="629.5" class="st10" width="126.7" height="2.9"/>
					<rect x="491.2" y="636.7" class="st10" width="126.7" height="3.5"/>
					<rect x="491.2" y="645.8" class="st10" width="126.7" height="2.9"/>
					<rect x="491.2" y="653.8" class="st10" width="126.7" height="2.9"/>
				</g>
				<g>
					<rect x="491.2" y="682.5" class="st10" width="126.7" height="2.9"/>
					<rect x="491.2" y="689.7" class="st10" width="126.7" height="3.5"/>
					<rect x="491.2" y="698.7" class="st10" width="126.7" height="2.9"/>
					<rect x="491.2" y="706.7" class="st10" width="126.7" height="2.9"/>
				</g>
			</g>
			<path class="st2" d="M785,720.1l-52.7-121.8H609.9c2.6,80.3,76.4,78.3,76.4,78.3l17.8,59.3c-51.4,28.3-60.6,103.4-60.6,103.4
				s-17.7,189.9,47.9,252.1l23.5-5.2l27.2-7.5l24.4-8.1l18.6-7.1V720.1z"/>
			<g>
				<path class="st2" d="M421.7,606.1c-6.7,11.3-21.2,15-32.5,8.3l-29.7-17.6c-11.3-6.7-15-21.2-8.3-32.5l4-6.8
					c6.7-11.3,21.2-15,32.5-8.3l29.7,17.6c11.3,6.7,15,21.2,8.3,32.5L421.7,606.1z"/>
				<path class="st11" d="M414.1,570.5l-2.9-1.7L388.4,608l2.6,1.5c9.2,5.5,21.1,2.4,26.6-6.8l3.3-5.6
					C426.4,587.9,423.4,576,414.1,570.5z"/>
			</g>
			<g>
				<path class="st2" d="M421.7,684.4c-6.7,11.3-21.2,15-32.5,8.3l-29.7-17.6c-11.3-6.7-15-21.2-8.3-32.5l4-6.8
					c6.7-11.3,21.2-15,32.5-8.3l29.7,17.6c11.3,6.7,15,21.2,8.3,32.5L421.7,684.4z"/>
				<path class="st11" d="M414.1,648.8l-2.9-1.7l-22.8,39.2l2.6,1.5c9.2,5.5,21.1,2.4,26.6-6.8l3.3-5.6
					C426.4,666.2,423.4,654.3,414.1,648.8z"/>
			</g>
			<g>
				<path class="st2" d="M415.8,756.5c-5.5,9.3-17.4,12.3-26.7,6.8l-24.5-14.5c-9.3-5.5-12.3-17.4-6.8-26.7l3.3-5.6
					c5.5-9.3,17.4-12.3,26.7-6.8l24.5,14.5c9.3,5.5,12.3,17.4,6.8,26.7L415.8,756.5z"/>
				<path class="st11" d="M409.6,727.2l-2.4-1.4L388.4,758l2.1,1.3c7.6,4.5,17.4,2,21.9-5.6l2.7-4.6
					C419.7,741.5,417.1,731.7,409.6,727.2z"/>
			</g>
			<path class="st11" d="M662.9,599.8c0-0.5,0-1-0.1-1.5h-46.2c-0.1,0.5-0.1,1-0.1,1.5c0,9.6,10.4,17.4,23.2,17.4
				C652.6,617.3,662.9,609.5,662.9,599.8z"/>
		</g>
		<g id="Search_2_">
			<path class="st12" d="M658.2,405.3c0,4-3.3,7.3-7.3,7.3H458.6c-4,0-7.3-3.3-7.3-7.3v-3.8c0-4,3.3-7.3,7.3-7.3h192.3
				c4,0,7.3,3.3,7.3,7.3V405.3z"/>
			<path class="st13" d="M650.9,394.2h-35.5v18.4h35.5c4,0,7.3-3.3,7.3-7.3v-3.8C658.2,397.5,654.9,394.2,650.9,394.2z"/>
			<g>
				<path class="st14" d="M463.6,401.1c-0.1,0.2-0.3,0.4-0.5,0.6c-0.2,0.2-0.4,0.4-0.6,0.6c-0.2,0.2-0.4,0.4-0.6,0.6
					c-0.2,0.2-0.4,0.4-0.6,0.6c0.2,0.1,0.4,0.3,0.7,0.5c0.2,0.2,0.5,0.4,0.7,0.7c0.2,0.2,0.4,0.5,0.6,0.7c0.2,0.3,0.4,0.5,0.5,0.7
					H463c-0.1-0.2-0.3-0.5-0.5-0.7c-0.2-0.2-0.4-0.4-0.6-0.7c-0.2-0.2-0.4-0.4-0.6-0.6c-0.2-0.2-0.4-0.3-0.6-0.5v2.4h-0.7v-5.1h0.7
					v2.2c0.2-0.2,0.4-0.3,0.6-0.5c0.2-0.2,0.4-0.4,0.6-0.6c0.2-0.2,0.4-0.4,0.6-0.6c0.2-0.2,0.3-0.4,0.4-0.5H463.6z"/>
				<path class="st14" d="M464.5,406.1v-5.1h3.1v0.6h-2.4v1.5h2.1v0.6h-2.1v1.8h2.6v0.6H464.5z"/>
				<path class="st14" d="M469.8,406.1v-2c-0.3-0.5-0.6-1-0.9-1.5c-0.3-0.5-0.6-1-0.8-1.5h0.8c0.2,0.4,0.4,0.8,0.6,1.2
					c0.2,0.4,0.5,0.8,0.7,1.2c0.2-0.4,0.5-0.8,0.7-1.2c0.2-0.4,0.4-0.8,0.6-1.2h0.8c-0.3,0.5-0.5,1-0.8,1.5c-0.3,0.5-0.6,1-0.9,1.5
					v2H469.8z"/>
				<path class="st14" d="M477.5,402.7c-0.2,0.7-0.4,1.3-0.6,1.8c-0.2,0.6-0.4,1.1-0.6,1.6h-0.7c-0.3-0.7-0.5-1.5-0.7-2.4
					c-0.2-0.8-0.4-1.7-0.6-2.7h0.7c0.1,0.4,0.1,0.8,0.2,1.1c0.1,0.4,0.1,0.7,0.2,1.1c0.1,0.4,0.2,0.7,0.2,1c0.1,0.3,0.2,0.6,0.2,0.9
					c0.2-0.5,0.4-1.1,0.6-1.7c0.2-0.6,0.4-1.2,0.6-1.9h0.6c0.2,0.7,0.4,1.3,0.6,1.9c0.2,0.6,0.4,1.2,0.6,1.7
					c0.1-0.3,0.2-0.6,0.2-0.9c0.1-0.3,0.2-0.7,0.2-1c0.1-0.4,0.1-0.7,0.2-1.1c0.1-0.4,0.1-0.8,0.2-1.1h0.7c-0.2,1-0.4,1.9-0.6,2.7
					c-0.2,0.8-0.4,1.6-0.7,2.4h-0.7c-0.2-0.5-0.4-1.1-0.6-1.6C477.9,404,477.7,403.4,477.5,402.7z"/>
				<path class="st14" d="M481.2,403.6c0-0.4,0.1-0.8,0.2-1.1c0.1-0.3,0.3-0.6,0.5-0.8c0.2-0.2,0.5-0.4,0.8-0.5
					c0.3-0.1,0.6-0.2,0.9-0.2c0.3,0,0.6,0.1,0.9,0.2c0.3,0.1,0.5,0.3,0.8,0.5c0.2,0.2,0.4,0.5,0.5,0.8c0.1,0.3,0.2,0.7,0.2,1.1
					c0,0.4-0.1,0.8-0.2,1.1c-0.1,0.3-0.3,0.6-0.5,0.8c-0.2,0.2-0.5,0.4-0.8,0.5c-0.3,0.1-0.6,0.2-0.9,0.2c-0.3,0-0.6-0.1-0.9-0.2
					c-0.3-0.1-0.6-0.3-0.8-0.5c-0.2-0.2-0.4-0.5-0.5-0.8C481.2,404.4,481.2,404,481.2,403.6z M481.9,403.6c0,0.3,0,0.6,0.1,0.8
					c0.1,0.3,0.2,0.5,0.3,0.6c0.1,0.2,0.3,0.3,0.5,0.4c0.2,0.1,0.4,0.1,0.7,0.1c0.3,0,0.5,0,0.7-0.1c0.2-0.1,0.4-0.2,0.5-0.4
					c0.1-0.2,0.3-0.4,0.3-0.6c0.1-0.2,0.1-0.5,0.1-0.8c0-0.3,0-0.6-0.1-0.8c-0.1-0.2-0.2-0.5-0.3-0.6c-0.1-0.2-0.3-0.3-0.5-0.4
					c-0.2-0.1-0.4-0.1-0.7-0.1c-0.3,0-0.5,0-0.7,0.1c-0.2,0.1-0.4,0.2-0.5,0.4c-0.1,0.2-0.3,0.4-0.3,0.6
					C481.9,403,481.9,403.3,481.9,403.6z"/>
				<path class="st14" d="M489.5,404c0.1,0.1,0.2,0.2,0.3,0.4c0.1,0.2,0.2,0.3,0.4,0.5c0.1,0.2,0.3,0.4,0.4,0.6
					c0.1,0.2,0.2,0.4,0.3,0.6h-0.8c-0.1-0.2-0.2-0.4-0.3-0.6c-0.1-0.2-0.2-0.4-0.3-0.5c-0.1-0.2-0.2-0.3-0.3-0.5
					c-0.1-0.1-0.2-0.3-0.3-0.4c-0.1,0-0.1,0-0.2,0c-0.1,0-0.1,0-0.2,0h-0.6v2H487v-5c0.2,0,0.4-0.1,0.7-0.1c0.2,0,0.5,0,0.7,0
					c0.7,0,1.3,0.1,1.6,0.4c0.4,0.3,0.6,0.7,0.6,1.2c0,0.3-0.1,0.6-0.3,0.9C490.1,403.7,489.9,403.9,489.5,404z M488.4,401.7
					c-0.3,0-0.5,0-0.7,0v1.9h0.5c0.2,0,0.5,0,0.7,0c0.2,0,0.4-0.1,0.5-0.1c0.1-0.1,0.2-0.2,0.3-0.3c0.1-0.1,0.1-0.3,0.1-0.5
					c0-0.2,0-0.4-0.1-0.5c-0.1-0.1-0.2-0.2-0.3-0.3c-0.1-0.1-0.3-0.1-0.4-0.2C488.8,401.7,488.6,401.7,488.4,401.7z"/>
				<path class="st14" d="M495.8,403.6c0,0.4-0.1,0.8-0.2,1.1c-0.1,0.3-0.3,0.6-0.6,0.8c-0.2,0.2-0.5,0.4-0.9,0.5
					c-0.3,0.1-0.7,0.2-1.1,0.2c-0.2,0-0.4,0-0.7,0c-0.2,0-0.5-0.1-0.7-0.1v-4.9c0.2,0,0.4-0.1,0.7-0.1c0.2,0,0.5,0,0.7,0
					c0.4,0,0.8,0,1.1,0.2c0.3,0.1,0.6,0.3,0.9,0.5c0.2,0.2,0.4,0.5,0.6,0.8C495.7,402.8,495.8,403.2,495.8,403.6z M493,405.6
					c0.7,0,1.2-0.2,1.5-0.5c0.3-0.3,0.5-0.8,0.5-1.4c0-0.6-0.2-1.1-0.5-1.4c-0.3-0.3-0.8-0.5-1.5-0.5c-0.2,0-0.4,0-0.5,0
					c-0.1,0-0.2,0-0.2,0v3.9c0,0,0.1,0,0.2,0C492.7,405.6,492.8,405.6,493,405.6z"/>
				<path class="st14" d="M497.4,405.8c0,0.1,0,0.2-0.1,0.3c-0.1,0.1-0.2,0.1-0.4,0.1c-0.1,0-0.3-0.1-0.4-0.1
					c-0.1-0.1-0.1-0.2-0.1-0.3c0-0.1,0-0.2,0.1-0.3c0.1-0.1,0.2-0.1,0.4-0.1c0.1,0,0.3,0,0.4,0.1
					C497.3,405.5,497.4,405.6,497.4,405.8z"/>
				<path class="st14" d="M499.1,405.8c0,0.1,0,0.2-0.1,0.3c-0.1,0.1-0.2,0.1-0.4,0.1c-0.1,0-0.3-0.1-0.4-0.1
					c-0.1-0.1-0.1-0.2-0.1-0.3c0-0.1,0-0.2,0.1-0.3c0.1-0.1,0.2-0.1,0.4-0.1c0.2,0,0.3,0,0.4,0.1
					C499.1,405.5,499.1,405.6,499.1,405.8z"/>
				<path class="st14" d="M500.9,405.8c0,0.1,0,0.2-0.1,0.3c-0.1,0.1-0.2,0.1-0.4,0.1c-0.1,0-0.3-0.1-0.4-0.1
					c-0.1-0.1-0.1-0.2-0.1-0.3c0-0.1,0-0.2,0.1-0.3c0.1-0.1,0.2-0.1,0.4-0.1c0.1,0,0.3,0,0.4,0.1
					C500.9,405.5,500.9,405.6,500.9,405.8z"/>
			</g>
			<g>
				<path class="st15" d="M622.7,400.8v0.6h-1.6v4.4h-0.7v-4.4h-1.6v-0.6H622.7z"/>
				<path class="st15" d="M624.9,405.8v-2c-0.3-0.5-0.6-1-0.9-1.5s-0.6-1-0.8-1.5h0.8c0.2,0.4,0.4,0.8,0.6,1.2
					c0.2,0.4,0.5,0.8,0.7,1.2c0.2-0.4,0.5-0.8,0.7-1.2c0.2-0.4,0.4-0.8,0.6-1.2h0.8c-0.3,0.5-0.5,1-0.8,1.5c-0.3,0.5-0.6,1-0.9,1.5
					v2H624.9z"/>
				<path class="st15" d="M629.4,400.7c0.7,0,1.3,0.1,1.6,0.4c0.4,0.3,0.6,0.7,0.6,1.2c0,0.3-0.1,0.5-0.2,0.7
					c-0.1,0.2-0.3,0.4-0.4,0.5c-0.2,0.1-0.4,0.2-0.7,0.3c-0.3,0.1-0.6,0.1-1,0.1h-0.6v1.9H628v-5c0.2-0.1,0.4-0.1,0.7-0.1
					C629,400.7,629.2,400.7,629.4,400.7z M629.4,401.4c-0.3,0-0.5,0-0.7,0v2h0.5c0.2,0,0.5,0,0.7,0c0.2,0,0.4-0.1,0.5-0.2
					c0.1-0.1,0.2-0.2,0.3-0.3c0.1-0.1,0.1-0.3,0.1-0.5c0-0.2,0-0.4-0.1-0.5c-0.1-0.1-0.2-0.2-0.3-0.3c-0.1-0.1-0.3-0.1-0.4-0.2
					C629.8,401.4,629.6,401.4,629.4,401.4z"/>
				<path class="st15" d="M632.5,405.8v-5.1h3.1v0.6h-2.4v1.5h2.1v0.6h-2.1v1.8h2.6v0.6H632.5z"/>
				<path class="st15" d="M641.7,400.8v0.6h-1.6v4.4h-0.7v-4.4h-1.6v-0.6H641.7z"/>
				<path class="st15" d="M642.5,405.8v-5.1h3.1v0.6h-2.4v1.5h2.1v0.6h-2.1v1.8h2.6v0.6H642.5z"/>
				<path class="st15" d="M649.7,405.8c-0.1-0.1-0.2-0.3-0.3-0.5c-0.1-0.2-0.2-0.4-0.3-0.6c-0.1-0.2-0.2-0.4-0.4-0.6
					c-0.1-0.2-0.3-0.4-0.4-0.5c-0.1,0.2-0.3,0.4-0.4,0.5c-0.1,0.2-0.3,0.4-0.4,0.6c-0.1,0.2-0.2,0.4-0.3,0.6
					c-0.1,0.2-0.2,0.3-0.3,0.5h-0.8c0.2-0.4,0.5-0.9,0.8-1.3c0.3-0.4,0.6-0.9,0.9-1.4l-1.6-2.4h0.8l1.2,1.9l1.2-1.9h0.8l-1.6,2.4
					c0.3,0.5,0.6,0.9,0.9,1.4c0.3,0.4,0.6,0.9,0.8,1.3H649.7z"/>
				<path class="st15" d="M654.7,400.8v0.6h-1.6v4.4h-0.7v-4.4h-1.6v-0.6H654.7z"/>
			</g>
			<path class="st16" d="M653.6,397.7c0,0.6-0.5,1.1-1.1,1.1h-33.7c-0.6,0-1.1-0.5-1.1-1.1l0,0c0-0.6,0.5-1.1,1.1-1.1h33.7
				C653.1,396.6,653.6,397.1,653.6,397.7L653.6,397.7z"/>
		</g>
	</g>
</g>
</svg>
