<?xml version="1.0" encoding="utf-8"?>
<!-- Generator: Adobe Illustrator 20.1.0, SVG Export Plug-In . SVG Version: 6.00 Build 0)  -->
<svg version="1.1" id="Web_and_Development" xmlns="http://www.w3.org/2000/svg" xmlns:xlink="http://www.w3.org/1999/xlink"
	 x="0px" y="0px" viewBox="0 0 1281.1 1152.1" style="enable-background:new 0 0 1281.1 1152.1;" xml:space="preserve">
<style type="text/css">
	.st0{fill:#EFEFEF;}
	.st1{fill:#FFFEFE;}
	.st2{fill:#262626;}
	.st3{opacity:0.1;enable-background:new    ;}
	.st4{fill:#AEC647;}
	.st5{fill:#F3AE1B;}
	.st6{fill:#DF3F11;}
	.st7{fill:#BCDEDE;}
	.st8{fill:#C84119;}
	.st9{fill:#6BB5CE;}
	.st10{fill:#00D0E5;}
	.st11{fill:#FF81ED;}
	.st12{fill:#00C982;}
	.st13{opacity:0.7;enable-background:new    ;}
	.st14{opacity:0.4;enable-background:new    ;}
	.st15{opacity:0.8;fill:#878787;enable-background:new    ;}
	.st16{fill:#FFFFFF;}
	.st17{fill:#1C99B0;}
	.st18{fill:#C5EFEE;}
	.st19{opacity:0.2;enable-background:new    ;}
	.st20{opacity:0.1;fill:#FFFFFF;enable-background:new    ;}
	.st21{fill:#D0EDFA;}
	.st22{fill:#FF651F;}
	.st23{fill:#0051C4;}
	.st24{fill:#E46400;}
	.st25{fill:#C0003B;}
	.st26{fill:#FFEA50;}
	.st27{fill:#FF2C0D;}
	.st28{fill:#FF1A2C;}
	.st29{fill:#FF2C4D;}
	.st30{fill:#FFD74C;}
	.st31{fill:#4C4C4B;}
	.st32{fill:#6CD2EA;}
	.st33{fill:#FFE566;}
	.st34{fill:#4F4E4F;}
	.st35{fill:#1E2F47;}
	.st36{opacity:0.4;fill:#FFFFFF;enable-background:new    ;}
	.st37{fill:#FFF064;}
	.st38{fill:#3DA9D8;}
	.st39{fill:#FFD7A6;}
	.st40{opacity:0.5;fill:#FFFFFF;enable-background:new    ;}
</style>
<g id="Application_Development">
	<g id="Application_Development_1_">
		<g id="Line_5_">
			<g>
				<polygon class="st0" points="527.7,660.5 352.9,660.5 352.9,560.5 153.5,560.5 153.5,552.5 360.9,552.5 360.9,652.5 
					527.7,652.5 				"/>
			</g>
			<g>
				<polygon class="st0" points="586.3,619.8 578.3,619.8 578.3,514.5 501.3,514.5 501.3,326 509.2,326 509.2,506.5 586.3,506.5 
									"/>
			</g>
			<g>
				<polygon class="st0" points="717.1,646 717.1,484.7 1095,484.7 1095,492.7 725.1,492.7 725.2,639.6 811.1,639.6 811.1,646 				
					"/>
			</g>
			<g>
				<polygon class="st0" points="1030.1,830.8 857.4,830.8 857.4,771.7 794.5,725.2 717.1,725.2 717.1,642.8 725.1,642.8 
					725.1,717.2 797.1,717.2 865.4,767.6 865.4,822.8 1030.1,822.8 				"/>
			</g>
			<g>
				<rect x="595" y="639.6" class="st0" width="122.1" height="6.4"/>
			</g>
		</g>
		<g id="Coding_1_">
			<path class="st1" d="M850,340.5c0,12.7-10.3,23.1-23.1,23.1H365.3c-12.8,0-23.1-10.3-23.1-23.1V54.9c0-12.7,10.3-23.1,23.1-23.1
				h461.6c12.7,0,23.1,10.3,23.1,23.1L850,340.5L850,340.5z"/>
			<rect x="364.9" y="53.7" class="st2" width="464.4" height="286.7"/>
			<path class="st1" d="M242.9,361.9c-0.3,2-0.5,4.2-0.5,6.3c0,18.2,11.1,33,24.7,33H927c13.6,0,24.7-14.8,24.7-33
				c0-2.2-0.2-4.3-0.5-6.3H242.9z"/>
			<path class="st3" d="M244.6,381.6c3.8,11.6,12.5,19.6,22.6,19.6h659.9c10.1,0,18.8-8.1,22.6-19.7H244.6V381.6z"/>
			<g>
				<rect x="389" y="80.5" class="st4" width="116.3" height="5.8"/>
				<rect x="389" y="97.9" class="st5" width="116.3" height="5.8"/>
				<rect x="389" y="113.9" class="st6" width="116.3" height="5.8"/>
				<rect x="389" y="263.2" class="st4" width="116.3" height="5.8"/>
				<rect x="389" y="244.1" class="st4" width="116.3" height="5.8"/>
				<rect x="389" y="282.9" class="st4" width="116.3" height="5.8"/>
				<rect x="527.7" y="150.6" class="st5" width="116.3" height="5.8"/>
				<rect x="405" y="150.6" class="st4" width="116.3" height="5.8"/>
				<rect x="405" y="166.6" class="st5" width="116.3" height="5.8"/>
				<rect x="527.7" y="166.6" class="st4" width="54.6" height="5.8"/>
				<rect x="405" y="197.7" class="st4" width="116.3" height="5.8"/>
				<rect x="527.7" y="197.7" class="st5" width="54.6" height="5.8"/>
				<rect x="666.5" y="182" class="st5" width="54.6" height="5.8"/>
				<rect x="405" y="131.9" class="st7" width="251.2" height="5.8"/>
				<rect x="405" y="182" class="st7" width="251.2" height="5.8"/>
				<rect x="666.5" y="216.1" class="st4" width="54.6" height="5.8"/>
				<rect x="405" y="216.1" class="st4" width="251.2" height="5.8"/>
				<rect x="650.4" y="298.9" class="st8" width="54.6" height="5.8"/>
				<rect x="389" y="298.9" class="st9" width="251.2" height="5.8"/>
			</g>
			<g>
				<circle class="st10" cx="390.6" cy="371.7" r="4.6"/>
				<circle class="st11" cx="361.5" cy="371.7" r="4.6"/>
				<circle class="st12" cx="375.8" cy="371.7" r="4.6"/>
				<path class="st13" d="M350.2,371.7c0,2.3-1.9,4.2-4.2,4.2h-35.7c-2.3,0-4.2-1.9-4.2-4.2l0,0c0-2.3,1.9-4.2,4.2-4.2H346
					C348.3,367.6,350.2,369.4,350.2,371.7L350.2,371.7z"/>
			</g>
			<circle class="st14" cx="597.1" cy="42.6" r="6.8"/>
		</g>
		<g id="Phone_1_">
			<path class="st0" d="M249,877.5c0,7.2-5.8,13-13,13H42.2c-7.2,0-13-5.8-13-13V521c0-7.2,5.8-13,13-13h193.9c7.2,0,13,5.8,13,13
				v356.5H249z"/>
			<rect x="49.5" y="553.4" class="st15" width="179.2" height="261.4"/>
			<g id="Setting_1_">
				<circle class="st16" cx="88.3" cy="669.6" r="26.6"/>
				<circle class="st17" cx="86.3" cy="668" r="26.6"/>
				<g>
					<path class="st18" d="M88.3,650.4h-3.6c-0.2,0-0.3,0.2-0.3,0.3v1.9c-2.3,0.3-4.4,1.2-6.2,2.5l-1.8-1.8c-0.1-0.1-0.4-0.1-0.5,0
						l-2.5,2.5c-0.1,0.1-0.1,0.4,0,0.5l1.7,1.7c-1.2,1.5-2.1,3.2-2.7,5.2l-2.4-0.4c-0.2,0-0.4,0.1-0.4,0.3l-0.6,3.5
						c0,0.2,0.1,0.4,0.3,0.4l2.5,0.4c0,0.2,0,0.4,0,0.6c0,1.4,0.2,2.8,0.5,4.2l-2.2,1c-0.2,0.1-0.2,0.3-0.2,0.5l1.5,3.3
						c0.1,0.2,0.3,0.2,0.5,0.2l2-1c0.9,1.4,1.9,2.7,3.2,3.8l-1,1.8c-0.1,0.2,0,0.4,0.1,0.5l3.1,1.8c0.2,0.1,0.4,0,0.5-0.1l0.9-1.6
						c1.6,0.7,3.2,1.1,5,1.2l0.2,1.8c0,0.2,0.2,0.3,0.4,0.3l3.6-0.3c0.2,0,0.3-0.2,0.3-0.4l-0.2-1.8c1.7-0.4,3.2-1.2,4.6-2.1
						l1.3,1.6c0.1,0.1,0.3,0.2,0.5,0l2.8-2.3c0.1-0.1,0.2-0.3,0-0.5l-1.5-1.8c1-1.2,1.8-2.6,2.4-4.2l2.5,0.7c0.2,0,0.4-0.1,0.4-0.2
						l0.9-3.5c0.1-0.2-0.1-0.4-0.2-0.4l-2.6-0.7c0.1-0.6,0.1-1.1,0.1-1.7c0-1-0.1-2-0.3-2.9l2.5-0.9c0.2-0.1,0.3-0.3,0.2-0.4
						l-1.2-3.4c-0.1-0.2-0.3-0.3-0.4-0.2l-2.4,0.9c-0.7-1.5-1.6-2.8-2.7-4l1.3-1.9c0.1-0.2,0.1-0.4-0.1-0.5l-2.9-2.1
						c-0.2-0.1-0.4-0.1-0.5,0.1l-1.2,1.7c-1.5-0.8-3.1-1.4-4.8-1.7v-1.9C88.6,650.6,88.5,650.4,88.3,650.4L88.3,650.4z M86.3,660.5
						c4.2,0,7.5,3.4,7.5,7.5c0,4.2-3.4,7.5-7.5,7.5c-4.2,0-7.5-3.4-7.5-7.5S82.2,660.5,86.3,660.5L86.3,660.5z"/>
					<path class="st19" d="M86.3,657.6c5.8,0,10.5,4.7,10.5,10.5s-4.7,10.5-10.5,10.5s-10.5-4.7-10.5-10.5
						C75.9,662.3,80.6,657.6,86.3,657.6L86.3,657.6z M86.3,660.5c4.2,0,7.5,3.4,7.5,7.5c0,4.2-3.4,7.5-7.5,7.5
						c-4.2,0-7.5-3.4-7.5-7.5S82.2,660.5,86.3,660.5L86.3,660.5z"/>
					<path class="st20" d="M103.6,670.4l-2.6-0.7c0.1-0.6,0.1-1.1,0.1-1.7c0-1-0.1-2-0.3-2.9l2.5-0.9c0.2-0.1,0.3-0.3,0.2-0.4
						l-1.2-3.4c-0.1-0.2-0.3-0.3-0.4-0.2l-2.4,0.9c-0.7-1.5-1.6-2.8-2.7-4l1.3-1.9c0.1-0.2,0.1-0.4-0.1-0.5l-2.9-2.1
						c-0.2-0.1-0.4-0.1-0.5,0.1l-1.2,1.7c-1.5-0.8-3.1-1.4-4.8-1.7v-1.9c0-0.2-0.2-0.3-0.3-0.3h-2v10.1c4.2,0,7.5,3.4,7.5,7.5
						c0,4.2-3.4,7.5-7.5,7.5v10l3.3-0.3c0.2,0,0.3-0.2,0.3-0.4l-0.2-1.8c1.7-0.4,3.2-1.2,4.6-2.1l1.3,1.6c0.1,0.1,0.3,0.2,0.5,0
						l2.8-2.3c0.1-0.1,0.2-0.3,0-0.5l-1.5-1.8c1-1.2,1.8-2.6,2.4-4.2l2.5,0.7c0.2,0,0.4-0.1,0.4-0.2l0.9-3.5
						C103.9,670.7,103.8,670.5,103.6,670.4z"/>
				</g>
			</g>
			<g id="Game_1_">
				<circle class="st16" cx="144.7" cy="640.7" r="26.6"/>
				<circle class="st21" cx="142.7" cy="638.9" r="26.6"/>
				<g id="Rocket_1_">
					<path class="st22" d="M153.7,627.5c0,0-15.6-4-24.4,10.3l3.1,4.4l3.1,4.4C151.9,643.4,153.7,627.5,153.7,627.5z"/>
					<path class="st23" d="M132.6,642.5L132.6,642.5l-3.3-4.8c0,0-0.7,2.2-0.3,3.4l1.7,2.5l0.1,0.1l1.5,2.2c0.9,0.7,3.1,0.7,3.1,0.7
						L132.6,642.5z"/>
					
						<rect x="129.1" y="641.2" transform="matrix(0.8236 -0.5672 0.5672 0.8236 -342.3282 187.309)" class="st24" width="1.6" height="5.6"/>
					
						<rect x="128.5" y="642.3" transform="matrix(0.8234 -0.5674 0.5674 0.8234 -342.9618 186.9427)" class="st25" width="0.8" height="4.4"/>
					<polygon class="st26" points="135.9,632.3 126.3,632.1 130.8,638.3 					"/>
					<polygon class="st26" points="143.1,641.7 139.8,650.8 135.6,644.3 					"/>
					<path class="st27" d="M152.3,632.6c1.1-2.9,1.4-5.1,1.4-5.1s-2.1-0.6-5.3-0.5L152.3,632.6z"/>
					<polygon class="st28" points="123.3,648.4 127,648.1 130.7,647.8 128.6,644.8 126.5,641.7 124.9,645.1 					"/>
					<polygon class="st29" points="124.8,647.3 127.5,647.1 130.1,647 128.5,644.7 127,642.4 125.9,644.8 					"/>
					<polygon class="st30" points="126.7,645.9 128.2,646 129.6,646.2 128.5,644.7 127.5,643.1 127.1,644.5 					"/>
					<path class="st19" d="M152.3,632.6L152.3,632.6c0.9-2.4,1.3-4.3,1.4-4.9l0,0c0-0.1,0-0.2,0-0.2l0,0l0,0l0,0l0,0h-0.1
						l-30.2,20.8l-0.1,0.2l3.7-0.3l3.7-0.3l-0.6-0.9l-0.3-0.4l0.6-0.4l0.3,0.5l1.3-0.9l0.1,0.2c0.9,0.7,3.1,0.7,3.1,0.7l0,0
						c0.5-0.1,1-0.2,1.5-0.3l2.9,4.5l2.3-6.5C147.9,641.3,150.9,636.3,152.3,632.6z"/>
				</g>
				<g>
					<path class="st31" d="M140.3,652.6c-0.2,0-0.3,0-0.5,0.1c-0.5-2-2-3.4-3.8-3.4c-1.3,0-2.5,0.8-3.2,2c-0.4-0.2-1-0.3-1.5-0.3
						c-1.9,0-3.4,1.5-3.4,3.3c0,0.3,0,0.5,0.1,0.8h4.2h2.4h3.7h1.5h2.3c0-0.1,0.1-0.3,0.1-0.4C142.2,653.5,141.4,652.6,140.3,652.6z
						"/>
					<path class="st32" d="M139.3,652.6c-0.2,0-0.3,0-0.5,0.1c-0.5-2-2-3.4-3.8-3.4c-1.3,0-2.5,0.8-3.2,2c-0.4-0.2-1-0.3-1.5-0.3
						c-1.9,0-3.4,1.5-3.4,3.3c0,0.3,0,0.5,0.1,0.8h4.2h2.4h3.7h1.5h2.3c0-0.1,0-0.3,0-0.4C141.3,653.5,140.4,652.6,139.3,652.6z"/>
					<path class="st19" d="M139.3,652.6c-0.2,0-0.3,0-0.5,0.1c-0.5-2-2-3.4-3.8-3.4c-0.1,0-0.1,0-0.2,0v5.7h2.5h1.5h2.3
						c0-0.1,0-0.3,0-0.4C141.3,653.5,140.4,652.6,139.3,652.6z"/>
				</g>
				<g>
					<path class="st31" d="M145.5,621.6c-0.2,0-0.5,0-0.7,0.1c-0.7-3-3-5.1-5.7-5.1c-2,0-3.8,1.2-4.8,3c-0.7-0.3-1.4-0.5-2.2-0.5
						c-2.8,0-5.1,2.2-5.1,5c0,0.4,0,0.8,0.1,1.1h6.3h3.6h5.6h2.3h3.5c0.1-0.2,0.1-0.4,0.1-0.7C148.4,622.9,147.1,621.6,145.5,621.6z
						"/>
					<path class="st32" d="M144.1,621.6c-0.2,0-0.5,0-0.7,0.1c-0.7-3-3-5.1-5.7-5.1c-2,0-3.8,1.2-4.8,3c-0.7-0.3-1.4-0.5-2.3-0.5
						c-2.8,0-5.1,2.2-5.1,5c0,0.4,0,0.8,0.1,1.1h6.3h3.6h5.6h2.3h3.5c0.1-0.2,0.1-0.4,0.1-0.7C147,622.9,145.7,621.6,144.1,621.6z"
						/>
					<path class="st19" d="M144.1,621.6c-0.2,0-0.5,0-0.7,0.1c-0.7-3-3-5.1-5.7-5.1c-0.1,0-0.2,0-0.2,0v8.6h3.7h2.3h3.5
						c0.1-0.2,0.1-0.4,0.1-0.7C147,622.9,145.7,621.6,144.1,621.6z"/>
				</g>
				<g>
					<path class="st31" d="M165.5,642.8c-0.2,0-0.4,0-0.6,0.1c-0.6-2.5-2.6-4.4-4.9-4.4c-1.7,0-3.2,1-4.1,2.6
						c-0.6-0.3-1.2-0.4-1.9-0.4c-2.4,0-4.4,1.9-4.4,4.3c0,0.3,0,0.7,0.1,1h5.4h3.1h4.8h1.9h3c0-0.2,0.1-0.4,0.1-0.6
						C168.1,643.9,166.9,642.8,165.5,642.8z"/>
					<path class="st32" d="M164.3,642.8c-0.2,0-0.4,0-0.6,0.1c-0.6-2.5-2.6-4.4-4.9-4.4c-1.7,0-3.2,1-4.1,2.6
						c-0.6-0.3-1.2-0.4-1.9-0.4c-2.4,0-4.4,1.9-4.4,4.3c0,0.3,0,0.7,0.1,1h5.4h3.1h4.8h1.9h3c0-0.2,0.1-0.4,0.1-0.6
						C166.9,643.9,165.7,642.8,164.3,642.8z"/>
					<path class="st19" d="M164.3,642.8c-0.2,0-0.4,0-0.6,0.1c-0.6-2.5-2.6-4.4-4.9-4.4c-0.1,0-0.1,0-0.2,0v7.4h3.2h1.9h3
						c0-0.2,0.1-0.4,0.1-0.6C166.9,643.9,165.7,642.8,164.3,642.8z"/>
				</g>
			</g>
			<g id="Idea_1_">
				<circle class="st16" cx="137.1" cy="704.5" r="26.6"/>
				<circle class="st32" cx="134.8" cy="702.9" r="26.6"/>
				<g id="Lamp_1_">
					<path class="st33" d="M134.9,696.8c-0.9,0-8.6,0-8.6,8.7c0,3.4,4.7,10.4,4.7,10.4h3.8h0.2h3.8c0,0,4.7-7,4.7-10.4
						C143.4,696.9,135.7,696.8,134.9,696.8z"/>
					<g>
						<path class="st34" d="M135.9,716.2c0,0-0.4-1.6-0.4-4.6c0-0.9,0.1-1.5,0.2-2c-0.2,0-0.4,0-0.7,0c-0.2,0-0.3-0.1-0.4-0.2
							c-0.2,0.2-0.5,0.2-0.8,0.3l0.1,0.1c0.6,0.9,0.2,6.1,0.2,6.3h-0.2c0.1-1.5,0.3-5.4-0.2-6.2c-0.1-0.1-0.1-0.2-0.2-0.2
							s-0.1,0-0.2,0c-0.5,0-0.5-0.2-0.5-0.2c0-0.1,0-0.3,0.2-0.3c0.1-0.1,0.3,0,0.6,0.3c0.2,0,0.3,0,0.5-0.1c0.1,0,0.2-0.1,0.3-0.2
							l0,0c-0.1-0.3,0.1-0.6,0.2-0.6s0.1,0,0.2,0c0.1,0.1,0.1,0.2,0,0.4c0,0.1-0.1,0.2-0.1,0.3s0.1,0.1,0.2,0.1c0.3,0.1,0.5,0,0.7,0
							c0.1-0.2,0.2-0.3,0.3-0.3c0.2-0.1,0.4-0.1,0.5,0l0.1,0.1l-0.1,0.1c0,0-0.2,0.2-0.6,0.4c-0.1,0.3-0.3,0.9-0.3,2
							C135.5,714.6,135.9,716.2,135.9,716.2L135.9,716.2z M133.2,709.5c0,0,0.1,0,0.2,0C133.4,709.4,133.3,709.4,133.2,709.5
							C133.3,709.4,133.2,709.4,133.2,709.5z"/>
					</g>
					<path class="st35" d="M131,715.9v4.1c0,0.5,0.4,1,0.9,1h5.9c0.5,0,0.9-0.4,0.9-1v-4.1H131z"/>
					<g>
						<path class="st20" d="M138.7,716.6c0,0.1-0.1,0.3-0.3,0.3h-7.2c-0.2,0-0.3-0.1-0.3-0.3l0,0c0-0.1,0.1-0.3,0.3-0.3h7.2
							C138.6,716.3,138.7,716.4,138.7,716.6L138.7,716.6z"/>
						<path class="st20" d="M138.7,717.6c0,0.1-0.1,0.3-0.3,0.3h-7.2c-0.2,0-0.3-0.1-0.3-0.3l0,0c0-0.1,0.1-0.3,0.3-0.3h7.2
							C138.6,717.4,138.7,717.5,138.7,717.6L138.7,717.6z"/>
						<path class="st20" d="M138.7,718.7c0,0.1-0.1,0.3-0.3,0.3h-7.2c-0.2,0-0.3-0.1-0.3-0.3l0,0c0-0.1,0.1-0.3,0.3-0.3h7.2
							C138.6,718.4,138.7,718.5,138.7,718.7L138.7,718.7z"/>
						<path class="st20" d="M138.7,719.7c0,0.1-0.1,0.3-0.3,0.3h-7.2c-0.2,0-0.3-0.1-0.3-0.3l0,0c0-0.1,0.1-0.3,0.3-0.3h7.2
							C138.6,719.5,138.7,719.6,138.7,719.7L138.7,719.7z"/>
						<path class="st3" d="M138.7,717.1c0,0.1-0.1,0.3-0.3,0.3h-7.2c-0.2,0-0.3-0.1-0.3-0.3l0,0c0-0.1,0.1-0.3,0.3-0.3h7.2
							C138.6,716.8,138.7,716.9,138.7,717.1L138.7,717.1z"/>
						<path class="st3" d="M138.7,718.1c0,0.1-0.1,0.3-0.3,0.3h-7.2c-0.2,0-0.3-0.1-0.3-0.3l0,0c0-0.1,0.1-0.3,0.3-0.3h7.2
							C138.6,717.9,138.7,718,138.7,718.1L138.7,718.1z"/>
						<path class="st3" d="M138.7,719.2c0,0.1-0.1,0.3-0.3,0.3h-7.2c-0.2,0-0.3-0.1-0.3-0.3l0,0c0-0.1,0.1-0.3,0.3-0.3h7.2
							C138.6,718.9,138.7,719,138.7,719.2L138.7,719.2z"/>
						<path class="st3" d="M138.7,720.2c0,0.1-0.1,0.3-0.3,0.3h-7.2c-0.2,0-0.3-0.1-0.3-0.3l0,0c0-0.1,0.1-0.3,0.3-0.3h7.2
							C138.6,720,138.7,720.1,138.7,720.2L138.7,720.2z"/>
					</g>
					<path class="st3" d="M137.3,697.1c1.2,2.7,4.1,10.8-0.2,18.8h1.7c0,0,4.7-7,4.7-10.4C143.4,699.6,139.8,697.7,137.3,697.1z"/>
					
						<ellipse transform="matrix(0.9434 -0.3316 0.3316 0.9434 -226.2294 82.8033)" class="st36" cx="129.5" cy="704.3" rx="1.3" ry="0.9"/>
					
						<ellipse transform="matrix(0.9433 -0.3318 0.3318 0.9433 -225.1432 83.2496)" class="st36" cx="131.2" cy="700.9" rx="2.6" ry="1.7"/>
					<g>
						<polygon class="st37" points="121.7,689.5 122,689.2 129.2,696.6 128.9,696.8 						"/>
						<polygon class="st37" points="113.9,699.9 113.9,699.5 124.3,700.9 124.3,701.2 						"/>
						<polygon class="st37" points="114.3,709.7 114.2,709.4 124.5,707.4 124.6,707.7 						"/>
						<polygon class="st37" points="147.2,689.5 146.9,689.2 139.7,696.6 139.9,696.8 						"/>
						<polygon class="st37" points="155.7,700.4 155.7,700.1 145.3,701.4 145.3,701.7 						"/>
						<polygon class="st37" points="155,708.9 155.1,708.5 144.8,706.5 144.7,706.9 						"/>
						<polygon class="st37" points="135.1,694.9 134.7,694.9 134.5,684.9 134.9,684.9 						"/>
					</g>
				</g>
			</g>
			<polygon class="st3" points="228.7,553.4 225.4,553.4 49.5,804.3 49.5,814.8 228.7,814.8 			"/>
		</g>
		<g id="Button">
			<circle class="st38" cx="567" cy="663" r="87"/>
			<ellipse class="st16" cx="567" cy="663" rx="64.7" ry="64.6"/>
			<circle class="st38" cx="567" cy="663" r="43.2"/>
		</g>
		<g id="Push">
			<path class="st39" d="M472.9,873.6l0.9,128.3c0,0,55.6,56.3,72.3,86c16.8,29.7,47.8,41.3,49.1,41.3s183.5,0,183.5,0
				s45.2-12.9,46.5-74.9V843.7c0,0-27.6-52.8-54.3,0h-16.8v-32.3c0,0-32.3-50.4-60.7,0v29.7h-16.8V789c0,0-32.3-56-59.4,0v52.1
				h-18.1V683.5c0,0-28.4-60.7-56.8,0v310.2c0,0-8-7.7-13.1-25.8l-5-60.9C524.2,907,509.1,844.8,472.9,873.6z"/>
			<path class="st3" d="M561.6,658.7c-6.2,3.3-12.8,10.8-19.4,24.8v313.9l19.4-0.7V658.7z"/>
			<path class="st3" d="M623.3,778.4c-2.1,3-4.1,6.5-6.1,10.6v52.1h-18.1V683.5c0,0-1.5-3.2-4.1-7.3v2.9V849h28.3L623.3,778.4
				L623.3,778.4z"/>
			<path class="st3" d="M697.4,805.1c-1.3,1.9-2.7,4-4,6.3v29.7h-16.8V789c0,0-2.3-3.9-6.1-8.7v64.5h26.9L697.4,805.1L697.4,805.1z"
				/>
			<path class="st3" d="M770.9,843.7h-16.8v-32.3c0,0-1.9-3-5.2-6.8V849h27.6v-14.8C774.7,836.9,772.8,840,770.9,843.7z"/>
			<path class="st36" d="M484.5,895.5c-1.3-16.1-11.6-18.1-11.6-18.1l0.2,31.6h11.4L484.5,895.5L484.5,895.5z"/>
			<path class="st40" d="M570.4,668c-9.5,0-17.2,9.2-17.2,20.5h34.4C587.6,677.2,579.9,668,570.4,668z"/>
		</g>
		<g id="Setting">
			<path class="st16" d="M1025.6,649.2c0,59.2-48,107.2-107.2,107.2s-107.2-48-107.2-107.2S859.2,542,918.4,542
				C977.6,542,1025.6,590,1025.6,649.2z"/>
			<path class="st17" d="M1017.6,642.8c0,59.2-48,107.2-107.2,107.2s-107.2-48-107.2-107.2s48-107.2,107.2-107.2
				C969.6,535.6,1017.6,583.6,1017.6,642.8z"/>
			<g>
				<path class="st18" d="M918.2,571.9h-14.5c-0.8,0-1.4,0.6-1.4,1.4v7.5c-9.2,1.3-17.8,4.8-25.2,10l-7.1-7.1c-0.5-0.5-1.4-0.5-2,0
					l-10.2,10.2c-0.5,0.5-0.5,1.4,0,2l6.8,6.7c-4.8,6.1-8.5,13.1-10.9,20.7l-9.7-1.7c-0.8-0.1-1.5,0.4-1.6,1.1l-2.5,14.3
					c-0.1,0.8,0.4,1.5,1.1,1.6l9.9,1.7c0,0.8,0,1.5,0,2.3c0,5.8,0.8,11.5,2.2,16.8l-8.9,4.2c-0.7,0.3-1,1.2-0.7,1.9l6.1,13.1
					c0.3,0.7,1.2,1,1.9,0.7l8.3-3.9c3.4,5.8,7.8,11,12.8,15.4l-4.1,7.2c-0.4,0.7-0.2,1.5,0.5,1.9l12.6,7.3c0.7,0.4,1.5,0.2,1.9-0.5
					l3.7-6.5c6.2,2.8,13.1,4.5,20.2,4.9l0.6,7.2c0.1,0.8,0.8,1.3,1.5,1.3l14.4-1.3c0.8-0.1,1.3-0.8,1.3-1.5l-0.6-7.3
					c6.7-1.7,13-4.6,18.6-8.5l5.4,6.4c0.5,0.6,1.4,0.7,2,0.2l11.1-9.3c0.6-0.5,0.7-1.4,0.2-2l-5.9-7.1c4-5,7.3-10.6,9.7-16.7
					l9.9,2.7c0.7,0.2,1.5-0.2,1.7-1l3.8-14c0.2-0.7-0.2-1.5-1-1.7l-10.3-2.8c0.2-2.3,0.4-4.6,0.4-6.9c0-4.1-0.4-8-1.1-11.8l10.1-3.7
					c0.7-0.3,1.1-1.1,0.8-1.8l-5-13.6c-0.3-0.7-1.1-1.1-1.8-0.8l-9.5,3.5c-2.9-5.9-6.6-11.3-11-15.9l5.3-7.6c0.4-0.6,0.3-1.5-0.3-2
					l-11.9-8.3c-0.6-0.4-1.5-0.3-1.9,0.4l-4.8,6.8c-5.9-3.4-12.3-5.7-19.2-6.9v-7.7C919.7,572.5,919,571.9,918.2,571.9L918.2,571.9z
					 M910.3,612.4c16.8,0,30.4,13.6,30.4,30.4c0,16.8-13.6,30.4-30.4,30.4s-30.4-13.6-30.4-30.4C880,626,893.6,612.4,910.3,612.4
					L910.3,612.4z"/>
				<path class="st19" d="M910.3,600.7c23.3,0,42.1,18.8,42.1,42.1c0,23.2-18.8,42.1-42.1,42.1c-23.2,0-42.1-18.8-42.1-42.1
					C868.2,619.6,887.1,600.7,910.3,600.7L910.3,600.7z M910.3,612.4c16.8,0,30.4,13.6,30.4,30.4c0,16.8-13.6,30.4-30.4,30.4
					s-30.4-13.6-30.4-30.4C880,626,893.6,612.4,910.3,612.4L910.3,612.4z"/>
				<path class="st20" d="M979.8,652.5l-10.3-2.8c0.2-2.3,0.4-4.6,0.4-6.9c0-4.1-0.4-8-1.1-11.8l10.1-3.7c0.7-0.3,1.1-1.1,0.8-1.8
					l-5-13.6c-0.3-0.7-1.1-1.1-1.8-0.8l-9.5,3.5c-2.9-5.9-6.6-11.3-11-15.9l5.3-7.6c0.4-0.6,0.3-1.5-0.3-2l-11.9-8.3
					c-0.6-0.4-1.5-0.3-1.9,0.4l-4.8,6.8c-5.9-3.4-12.3-5.7-19.2-6.9v-7.7c0-0.8-0.6-1.4-1.4-1.4h-7.9v40.5
					c16.8,0,30.4,13.6,30.4,30.4c0,16.8-13.6,30.4-30.4,30.4v40.4l13.5-1.2c0.8-0.1,1.3-0.8,1.3-1.5l-0.6-7.3
					c6.7-1.7,13-4.6,18.6-8.5l5.4,6.4c0.5,0.6,1.4,0.7,2,0.2l11.1-9.3c0.6-0.5,0.7-1.4,0.2-2l-5.9-7.1c4-5,7.3-10.6,9.7-16.7
					l9.9,2.7c0.7,0.2,1.5-0.2,1.7-1l3.8-14C981,653.5,980.6,652.7,979.8,652.5z"/>
			</g>
		</g>
		<g id="Game">
			<path class="st16" d="M1252.8,532.7c0,59.2-48,107.2-107.2,107.2s-107.2-48-107.2-107.2s48-107.2,107.2-107.2
				S1252.8,473.5,1252.8,532.7z"/>
			<ellipse class="st21" cx="1137.4" cy="525.3" rx="107.2" ry="107.2"/>
			<g id="Rocket">
				<path class="st22" d="M1181.8,479.4c0,0-62.7-16.2-98.3,41.4l12.3,17.9l12.3,17.9C1174.7,543.8,1181.8,479.4,1181.8,479.4z"/>
				<path class="st23" d="M1096.8,540l-0.3-0.4l-13-18.8c0,0-2.8,8.9-1.3,13.8l6.9,10l0.3,0.4l6,8.8c3.7,2.7,12.6,2.6,12.6,2.6
					L1096.8,540z"/>
				<polygon class="st24" points="1089.5,556.7 1076.7,538.1 1082.1,534.4 1094.9,553 				"/>
				<polygon class="st25" points="1085.6,556.5 1075.5,541.8 1078.1,540.1 1088.2,554.7 				"/>
				<polygon class="st26" points="1109.9,498.8 1071.2,498.1 1089.6,523 				"/>
				<polygon class="st26" points="1138.8,536.8 1125.6,573.3 1109,547.2 				"/>
				<path class="st27" d="M1176.2,500.1c4.6-11.8,5.6-20.6,5.6-20.6s-8.6-2.2-21.3-2.1L1176.2,500.1z"/>
				<polygon class="st28" points="1059.2,563.9 1074.2,562.7 1089.1,561.5 1080.6,549.1 1072.1,536.8 1065.7,550.3 				"/>
				<polygon class="st29" points="1065.4,559.2 1076,558.6 1086.7,557.9 1080.4,548.8 1074.1,539.7 1069.8,549.5 				"/>
				<polygon class="st30" points="1073.1,553.7 1078.9,554.3 1084.6,554.9 1080.3,548.7 1076,542.5 1074.6,548.1 				"/>
				<path class="st19" d="M1176.2,500.1L1176.2,500.1c3.8-9.6,5.1-17.2,5.5-19.7l0,0c0.1-0.4,0.1-0.6,0.1-0.7l0,0v-0.1
					c0,0,0,0-0.1,0l0,0c-0.1,0-0.2-0.1-0.4-0.1l-121.8,83.7l-0.3,0.6l14.9-1.2l14.9-1.2l-2.4-3.5l-1-1.5l2.5-1.7l1.3,2l5.4-3.7
					l0.6,0.8c3.7,2.7,12.6,2.6,12.6,2.6v0.1c2-0.4,4-0.8,6-1.3l11.6,18.1l9.4-26C1158.4,535,1170.3,515.1,1176.2,500.1z"/>
			</g>
			<g>
				<path class="st31" d="M1127.7,580.9c-0.6,0-1.2,0.1-1.8,0.2c-1.9-7.9-7.9-13.7-15.2-13.7c-5.3,0-10,3.1-12.9,8
					c-1.8-0.9-3.9-1.4-6-1.4c-7.5,0-13.5,6-13.5,13.4c0,1.1,0.1,2.1,0.4,3.1h16.7h9.6h15h6h9.3c0.1-0.6,0.2-1.2,0.2-1.8
					C1135.5,584.4,1132,580.9,1127.7,580.9z"/>
				<path class="st32" d="M1123.9,580.9c-0.6,0-1.2,0.1-1.8,0.2c-1.9-7.9-7.9-13.7-15.2-13.7c-5.3,0-10,3.1-12.9,8
					c-1.8-0.9-3.9-1.4-6-1.4c-7.5,0-13.5,6-13.5,13.4c0,1.1,0.1,2.1,0.4,3.1h16.7h9.6h15h6h9.3c0.1-0.6,0.2-1.2,0.2-1.8
					C1131.8,584.4,1128.2,580.9,1123.9,580.9z"/>
				<path class="st19" d="M1123.9,580.9c-0.6,0-1.2,0.1-1.8,0.2c-1.9-7.9-7.9-13.7-15.2-13.7c-0.2,0-0.4,0-0.7,0v23h10h6h9.3
					c0.1-0.6,0.2-1.2,0.2-1.8C1131.8,584.4,1128.2,580.9,1123.9,580.9z"/>
			</g>
			<g>
				<path class="st31" d="M1148.7,455.9c-0.9,0-1.9,0.1-2.7,0.3c-2.8-11.9-12-20.6-22.9-20.6c-8,0-15.1,4.8-19.4,12
					c-2.7-1.3-5.8-2.1-9.1-2.1c-11.3,0-20.4,9-20.4,20.2c0,1.6,0.2,3.1,0.5,4.6h25.3h14.5h22.6h9.1h14c0.2-0.9,0.3-1.8,0.3-2.7
					C1160.6,461.1,1155.3,455.9,1148.7,455.9z"/>
				<path class="st32" d="M1143,455.9c-1,0-1.9,0.1-2.7,0.3c-2.8-11.9-12-20.6-22.9-20.6c-8,0-15.1,4.8-19.4,12
					c-2.7-1.3-5.8-2.1-9.1-2.1c-11.3,0-20.4,9-20.4,20.2c0,1.6,0.2,3.1,0.5,4.6h25.3h14.5h22.6h9.1h14.1c0.2-0.9,0.3-1.8,0.3-2.7
					C1154.9,461.1,1149.6,455.9,1143,455.9z"/>
				<path class="st19" d="M1143,455.9c-1,0-1.9,0.1-2.7,0.3c-2.8-11.9-12-20.6-22.9-20.6c-0.3,0-0.7,0-1,0v34.7h15.1h9.1h14.1
					c0.2-0.9,0.3-1.8,0.3-2.7C1154.9,461.1,1149.6,455.9,1143,455.9z"/>
			</g>
			<g>
				<path class="st31" d="M1229.4,541.2c-0.8,0-1.6,0.1-2.4,0.3c-2.4-10.2-10.3-17.7-19.6-17.7c-6.9,0-13,4.1-16.7,10.3
					c-2.3-1.1-5-1.8-7.8-1.8c-9.7,0-17.5,7.8-17.5,17.3c0,1.4,0.2,2.7,0.5,4h21.7h12.5h19.4h7.8h12.1c0.2-0.7,0.3-1.5,0.3-2.3
					C1239.6,545.7,1235,541.2,1229.4,541.2z"/>
				<path class="st32" d="M1224.5,541.2c-0.8,0-1.6,0.1-2.4,0.3c-2.4-10.2-10.3-17.7-19.6-17.7c-6.9,0-13,4.1-16.7,10.3
					c-2.3-1.1-5-1.8-7.8-1.8c-9.7,0-17.5,7.8-17.5,17.3c0,1.4,0.2,2.7,0.5,4h21.7h12.5h19.4h7.8h12.1c0.2-0.7,0.3-1.5,0.3-2.3
					C1234.7,545.7,1230.1,541.2,1224.5,541.2z"/>
				<path class="st19" d="M1224.5,541.2c-0.8,0-1.6,0.1-2.4,0.3c-2.4-10.2-10.3-17.7-19.6-17.7c-0.3,0-0.6,0-0.9,0v29.8h12.9h7.8
					h12.1c0.2-0.7,0.3-1.5,0.3-2.3C1234.7,545.7,1230.1,541.2,1224.5,541.2z"/>
			</g>
		</g>
		<g id="Idea_2_">
			<path class="st16" d="M1221.9,789.7c0,59.2-48,107.2-107.2,107.2s-107.2-48-107.2-107.2s48-107.2,107.2-107.2
				C1173.9,682.4,1221.9,730.4,1221.9,789.7z"/>
			<path class="st32" d="M1212.8,783.5c0,59.2-48,107.2-107.2,107.2s-107.2-48-107.2-107.2s48-107.2,107.2-107.2
				C1164.8,676.2,1212.8,724.2,1212.8,783.5z"/>
			<g id="Lamp">
				<path class="st33" d="M1105.8,758.9c-3.5-0.1-34.5,0.1-34.5,34.9c0,13.7,18.9,42,18.9,42h15.3h0.7h15.3c0,0,18.9-28.3,18.9-42
					C1140.3,759,1109.3,758.8,1105.8,758.9z"/>
				<g>
					<path class="st34" d="M1110.1,836.7c0-0.1-1.4-6.5-1.5-18.5c0-3.5,0.3-6.1,0.9-7.9c-0.8,0.1-1.7,0.1-2.6,0
						c-0.7-0.1-1.2-0.4-1.5-0.8c-0.8,0.6-1.9,1-3,1.1c0.1,0.2,0.2,0.3,0.4,0.5c2.4,3.8,0.9,24.5,0.8,25.4l-1-0.1
						c0.5-5.9,1.2-21.9-0.7-24.8c-0.2-0.4-0.5-0.7-0.7-1c-0.2,0-0.5,0-0.7,0c-2-0.1-2.1-0.7-2.2-0.9c-0.1-0.5,0.2-1.1,0.8-1.3
						c0.5-0.2,1.4-0.1,2.5,1.2c0.7-0.1,1.4-0.2,2.1-0.4c0.5-0.2,0.9-0.4,1.2-0.7l0,0c-0.2-1.1,0.4-2.3,0.9-2.6
						c0.2-0.2,0.5-0.2,0.7,0c0.3,0.2,0.4,0.7,0.1,1.7c-0.1,0.5-0.3,0.9-0.6,1.2c0.2,0.2,0.5,0.4,1,0.5c1.1,0.2,2.1,0.1,2.9-0.1
						c0.3-0.6,0.7-1.1,1.2-1.3c0.8-0.5,1.6-0.3,1.9-0.1l0.6,0.3l-0.5,0.5c-0.1,0.1-1,1-2.5,1.5c-0.6,1.3-1.1,3.7-1,8.2
						c0.1,11.9,1.5,18.2,1.5,18.2L1110.1,836.7z M1099.3,809.7c0.2,0.1,0.5,0.1,0.9,0.1c-0.4-0.2-0.6-0.3-0.7-0.2
						C1099.4,809.6,1099.3,809.6,1099.3,809.7z"/>
				</g>
				<path class="st35" d="M1090.1,835.8v16.5c0,2.2,1.7,3.9,3.7,3.9h23.8c2.1,0,3.7-1.7,3.7-3.9v-16.5H1090.1z"/>
				<g>
					<path class="st20" d="M1121.4,838.3c0,0.6-0.5,1.1-1.2,1.1h-28.9c-0.7,0-1.2-0.5-1.2-1.1l0,0c0-0.6,0.5-1.1,1.2-1.1h28.9
						C1120.9,837.2,1121.4,837.7,1121.4,838.3L1121.4,838.3z"/>
					<path class="st20" d="M1121.4,842.5c0,0.6-0.5,1.1-1.2,1.1h-28.9c-0.7,0-1.2-0.5-1.2-1.1l0,0c0-0.6,0.5-1.1,1.2-1.1h28.9
						C1120.9,841.5,1121.4,842,1121.4,842.5L1121.4,842.5z"/>
					<path class="st20" d="M1121.4,846.8c0,0.6-0.5,1.1-1.2,1.1h-28.9c-0.7,0-1.2-0.5-1.2-1.1l0,0c0-0.6,0.5-1.1,1.2-1.1h28.9
						C1120.9,845.7,1121.4,846.2,1121.4,846.8L1121.4,846.8z"/>
					<path class="st20" d="M1121.4,851c0,0.6-0.5,1.1-1.2,1.1h-28.9c-0.7,0-1.2-0.5-1.2-1.1l0,0c0-0.6,0.5-1.1,1.2-1.1h28.9
						C1120.9,849.9,1121.4,850.4,1121.4,851L1121.4,851z"/>
					<path class="st3" d="M1121.4,840.4c0,0.6-0.5,1.1-1.2,1.1h-28.9c-0.7,0-1.2-0.5-1.2-1.1l0,0c0-0.6,0.5-1.1,1.2-1.1h28.9
						C1120.9,839.4,1121.4,839.8,1121.4,840.4L1121.4,840.4z"/>
					<path class="st3" d="M1121.4,844.7c0,0.6-0.5,1.1-1.2,1.1h-28.9c-0.7,0-1.2-0.5-1.2-1.1l0,0c0-0.6,0.5-1.1,1.2-1.1h28.9
						C1120.9,843.6,1121.4,844.1,1121.4,844.7L1121.4,844.7z"/>
					<path class="st3" d="M1121.4,848.9c0,0.6-0.5,1.1-1.2,1.1h-28.9c-0.7,0-1.2-0.5-1.2-1.1l0,0c0-0.6,0.5-1.1,1.2-1.1h28.9
						C1120.9,847.8,1121.4,848.3,1121.4,848.9L1121.4,848.9z"/>
					<path class="st3" d="M1121.4,853.1c0,0.6-0.5,1.1-1.2,1.1h-28.9c-0.7,0-1.2-0.5-1.2-1.1l0,0c0-0.6,0.5-1.1,1.2-1.1h28.9
						C1120.9,852.1,1121.4,852.5,1121.4,853.1L1121.4,853.1z"/>
				</g>
				<path class="st3" d="M1115.5,760c4.9,11.1,16.5,43.7-0.9,75.8h6.8c0,0,18.9-28.3,18.9-42C1140.3,770.1,1125.8,762.4,1115.5,760z
					"/>
				
					<ellipse transform="matrix(0.9434 -0.3316 0.3316 0.9434 -200.3322 404.1884)" class="st36" cx="1084.2" cy="789.1" rx="5.4" ry="3.5"/>
				
					<ellipse transform="matrix(0.9433 -0.3318 0.3318 0.9433 -195.417 405.9851)" class="st36" cx="1091.2" cy="775.2" rx="10.4" ry="6.8"/>
				<g>
					<polygon class="st37" points="1052.8,729.2 1053.9,728.3 1083,757.9 1081.9,758.9 					"/>
					<polygon class="st37" points="1021.2,771.1 1021.4,769.7 1063.4,775 1063.2,776.4 					"/>
					<polygon class="st37" points="1022.9,810.7 1022.6,809.3 1064.1,801.2 1064.4,802.6 					"/>
					<polygon class="st37" points="1155.4,729.2 1154.4,728.3 1125.2,757.9 1126.3,758.9 					"/>
					<polygon class="st37" points="1189.9,773.3 1189.7,771.9 1147.7,777.2 1147.9,778.6 					"/>
					<polygon class="st37" points="1187,807.4 1187.3,806 1145.9,797.9 1145.6,799.3 					"/>
					<polygon class="st37" points="1106.8,751 1105.3,751 1104.5,710.8 1106,710.7 					"/>
				</g>
			</g>
		</g>
	</g>
</g>
</svg>
