<?xml version="1.0" encoding="utf-8"?>
<!-- Generator: Adobe Illustrator 20.1.0, SVG Export Plug-In . SVG Version: 6.00 Build 0)  -->
<svg version="1.1" id="Layer_1" xmlns="http://www.w3.org/2000/svg" xmlns:xlink="http://www.w3.org/1999/xlink" x="0px" y="0px"
	 viewBox="0 0 512 512" style="enable-background:new 0 0 512 512;" xml:space="preserve">
<style type="text/css">
	.st0{fill:#FFCA6C;}
	.st1{fill:#FFFFFF;}
	.st2{fill:#D0D1D3;}
	.st3{fill:#808183;}
	.st4{fill:#59595B;}
	.st5{fill:#71E2EF;}
	.st6{fill:#38C6D9;}
	.st7{fill:#272525;}
	.st8{fill:#386895;}
	.st9{fill:#273B7A;}
</style>
<circle class="st0" cx="256" cy="256" r="256"/>
<path class="st1" d="M154.3,165.2c-4.3,0-7.8,3.5-7.8,7.8v56.9c0,4.3,3.5,7.8,7.8,7.8s7.8-3.5,7.8-7.8v-49.1h94v-15.5L154.3,165.2
	L154.3,165.2z"/>
<path class="st2" d="M357.7,165.2H256v15.5h94v49.1c0,4.3,3.5,7.8,7.8,7.8s7.8-3.5,7.8-7.8V173C365.5,168.7,362,165.2,357.7,165.2z"
	/>
<path class="st3" d="M425.1,338.5H289.9c-6,0-10.9-4.9-10.9-10.9v-95.9c0-6,4.9-10.9,10.9-10.9h135.1c6,0,10.9,4.9,10.9,10.9v95.9
	C436,333.7,431.1,338.5,425.1,338.5z"/>
<path class="st4" d="M425.1,220.9h-67.9v117.7h67.9c6,0,10.9-4.9,10.9-10.9v-95.9C436,225.7,431.1,220.9,425.1,220.9z"/>
<rect x="287.9" y="230.4" class="st5" width="139.1" height="98.7"/>
<rect x="357.1" y="230.4" class="st6" width="69.9" height="98.7"/>
<path class="st4" d="M274.7,347h165.6c4.5,0,8.2-3.7,8.2-8.2v-8.9c0-4.5-3.7-8.2-8.2-8.2H274.7c-4.5,0-8.2,3.7-8.2,8.2v8.9
	C266.5,343.3,270.2,347,274.7,347z"/>
<path class="st7" d="M440.3,321.6h-83.2V347h83.2c4.5,0,8.2-3.7,8.2-8.2v-8.9C448.5,325.3,444.8,321.6,440.3,321.6z"/>
<path class="st3" d="M222.1,338.5H86.9c-6,0-10.9-4.9-10.9-10.9v-95.9c0-6,4.9-10.9,10.9-10.9h135.1c6,0,10.9,4.9,10.9,10.9v95.9
	C233,333.7,228.1,338.5,222.1,338.5z"/>
<path class="st4" d="M222.1,220.9h-68.4v117.7h68.4c6,0,10.9-4.9,10.9-10.9v-95.9C233,225.7,228.1,220.9,222.1,220.9z"/>
<rect x="85" y="230.4" class="st5" width="139.1" height="98.7"/>
<rect x="153.7" y="230.4" class="st6" width="70.3" height="98.7"/>
<path class="st4" d="M71.7,347h165.6c4.5,0,8.2-3.7,8.2-8.2v-8.9c0-4.5-3.7-8.2-8.2-8.2H71.7c-4.5,0-8.2,3.7-8.2,8.2v8.9
	C63.5,343.3,67.2,347,71.7,347z"/>
<path class="st7" d="M237.3,321.6h-83.6V347h83.6c4.5,0,8.2-3.7,8.2-8.2v-8.9C245.5,325.3,241.8,321.6,237.3,321.6z"/>
<path class="st8" d="M305.1,192.6c13.5,0,24.4-10.9,24.4-24.4c0-12.1-8.9-22.2-20.5-24.1c-1.6-23.5-21.2-42.1-45.1-42.1
	c-15.4,0-29,7.7-37.2,19.5c-2.1-0.9-4.5-1.4-7-1.4c-10,0-18.1,8.1-18.1,18.1c0,0.4,0,0.8,0.1,1.2c-11.1,3.4-19.3,13.7-19.3,26
	c0,15,12.2,27.2,27.2,27.2L305.1,192.6L305.1,192.6z"/>
<path class="st9" d="M309.1,144.1c-1.6-23.5-21.2-42.1-45.1-42.1c-2.7,0-5.4,0.2-7.9,0.7v89.8h49.1c13.5,0,24.4-10.9,24.4-24.4
	C329.5,156.1,320.7,146,309.1,144.1z"/>
</svg>
