<?xml version="1.0" encoding="utf-8"?>
<!-- Generator: Adobe Illustrator 20.1.0, SVG Export Plug-In . SVG Version: 6.00 Build 0)  -->
<svg version="1.1" id="Web_and_Development" xmlns="http://www.w3.org/2000/svg" xmlns:xlink="http://www.w3.org/1999/xlink"
	 x="0px" y="0px" viewBox="0 0 1290.9 1154.5" style="enable-background:new 0 0 1290.9 1154.5;" xml:space="preserve">
<style type="text/css">
	.st0{fill:#16778E;}
	.st1{fill:#A0E1E6;}
	.st2{opacity:0.1;}
	.st3{fill:#E8E8E8;}
	.st4{fill:#0F3854;}
	.st5{fill:#00B09E;}
	.st6{fill:#DD3401;}
	.st7{opacity:0.8;fill:#0F3854;}
	.st8{opacity:0.7;fill:#0F3854;}
	.st9{fill:#FDB940;}
	.st10{fill:#EFEFEF;}
	.st11{fill:#E74C3C;}
	.st12{opacity:0.1;fill:#231F20;}
	.st13{fill:#FF910B;}
	.st14{fill:#44BACA;}
	.st15{fill:#42536C;}
	.st16{fill:#F47F74;}
	.st17{fill-rule:evenodd;clip-rule:evenodd;fill:#F47F74;}
	.st18{opacity:0.1;fill-rule:evenodd;clip-rule:evenodd;fill:#020202;}
	.st19{fill-rule:evenodd;clip-rule:evenodd;fill:#FABE00;}
	.st20{fill-rule:evenodd;clip-rule:evenodd;fill:#E6E8E8;}
	.st21{fill-rule:evenodd;clip-rule:evenodd;}
	.st22{opacity:0.2;}
	.st23{fill-rule:evenodd;clip-rule:evenodd;fill:#FDB940;}
	.st24{fill-rule:evenodd;clip-rule:evenodd;fill:#F9623E;}
	.st25{fill-rule:evenodd;clip-rule:evenodd;fill:#FF3E03;}
	.st26{fill-rule:evenodd;clip-rule:evenodd;fill:#F05161;}
	.st27{opacity:0.5;fill-rule:evenodd;clip-rule:evenodd;}
	.st28{opacity:0.5;fill-rule:evenodd;clip-rule:evenodd;fill:#FFFFFF;}
	.st29{fill-rule:evenodd;clip-rule:evenodd;fill:#E74C3C;}
	.st30{fill-rule:evenodd;clip-rule:evenodd;fill:#42536C;}
</style>
<g id="Data_Management_1_">
	<g id="Background_14_">
		<circle id="Background_2_13_" class="st0" cx="632.1" cy="574.2" r="532"/>
	</g>
	<g id="Data_Management_2_">
		<g id="Line_4_">
			<polygon class="st1" points="364.7,160.8 364.7,824.1 844.7,824.1 844.7,272.3 738,160.8 			"/>
			<polygon class="st2" points="740,269 848.4,377.3 848.4,269 769.8,224.8 			"/>
			<polygon class="st3" points="844.7,272.3 738,274 738,160.8 			"/>
			<g>
				<rect x="431.2" y="289.3" class="st4" width="60.8" height="60.8"/>
				<rect x="431.2" y="363.7" class="st5" width="60.8" height="13.7"/>
				<rect x="492" y="363.7" class="st6" width="82.4" height="13.7"/>
				<rect x="574.4" y="363.7" class="st4" width="84.3" height="13.7"/>
				<rect x="513.6" y="289.3" class="st7" width="60.8" height="60.8"/>
				<rect x="598" y="289.3" class="st8" width="60.8" height="60.8"/>
			</g>
		</g>
		<g id="Chart">
			<path class="st9" d="M694.2,933.3c0,7-5.7,12.7-12.7,12.7H62.6c-7,0-12.7-5.7-12.7-12.7V587.8c0-7,5.7-12.7,12.7-12.7h618.9
				c7,0,12.7,5.7,12.7,12.7V933.3z"/>
			<rect x="100.2" y="614.4" class="st10" width="543.7" height="292.2"/>
			<g>
				<rect x="129.7" y="797.7" class="st11" width="32.8" height="73.1"/>
				<rect x="203.8" y="777.4" class="st11" width="32.8" height="93.3"/>
				<rect x="276.8" y="753" class="st11" width="32.8" height="117.7"/>
				<rect x="353.9" y="724.6" class="st11" width="32.8" height="146.1"/>
				<rect x="431.2" y="701.2" class="st11" width="32.8" height="169.6"/>
				<rect x="510.6" y="677.9" class="st11" width="32.8" height="192.9"/>
				<rect x="581.5" y="650.4" class="st11" width="32.8" height="220.4"/>
				<rect x="146.1" y="797.7" class="st12" width="16.4" height="73.1"/>
				<rect x="218.8" y="777.4" class="st12" width="17.8" height="93.3"/>
				<rect x="293.3" y="753" class="st12" width="16.4" height="117.7"/>
				<rect x="370.3" y="724.6" class="st12" width="16.4" height="146.1"/>
				<rect x="447.6" y="701.2" class="st12" width="16.4" height="169.6"/>
				<rect x="527" y="677.9" class="st12" width="16.4" height="192.9"/>
				<rect x="598" y="650.4" class="st12" width="16.4" height="220.4"/>
			</g>
			<rect x="107" y="654.3" class="st13" width="9.5" height="220.2"/>
			<rect x="107" y="871" class="st5" width="528.3" height="10.1"/>
			<rect x="107" y="871" class="st12" width="528.3" height="5"/>
		</g>
		<g id="Data_4_">
			<path class="st14" d="M1067.8,995.6l-45.9-59.7c-39.4,32.9-90.1,52.8-145.5,52.8c-27.1,0-53.1-4.8-77.2-13.5l-20.4,72.6
				c30.6,10.4,63.4,16.1,97.6,16.1C949.1,1063.9,1015.7,1038.3,1067.8,995.6z"/>
			<path class="st9" d="M1021.9,935.9l45.9,59.7c67.6-55.4,110.7-139.5,110.7-233.7c0-39.9-7.8-78-21.8-112.9l-73.8,18.7
				c13.1,28.7,20.4,60.6,20.4,94.2C1103.3,831.8,1071.7,894.3,1021.9,935.9z"/>
			<path class="st15" d="M774.7,559l-29.9-69.1C644,538.8,574.4,642.2,574.4,761.8c0,132.7,85.5,245.4,204.5,285.9l20.4-72.6
				C712,943.6,649.6,860,649.6,761.8C649.6,673.1,700.5,596.3,774.7,559z"/>
			<path class="st16" d="M876.5,535c91.7,0,170.7,54.4,206.5,132.7l73.8-18.7C1112,538,1003.4,459.8,876.5,459.8
				c-47.2,0-91.9,10.8-131.7,30.1l29.9,69.1C805.3,543.6,839.9,535,876.5,535z"/>
		</g>
		<g id="Document_2_">
			<g>
				<path class="st17" d="M1135,215.8H998c-0.6,0-1.2,0-1.8,0c-30.3,0-60.6,0-91,0c-7.7,0-14.1,6.3-14.1,14.1v129.9
					c0,7.7,6.3,14,14.1,14h222.6c7.7,0,14.1-6.3,14.1-14V234.4v-11.8C1141.8,218.8,1138.8,215.8,1135,215.8z M1000,215.9
					C1000,215.9,1000,215.9,1000,215.9C1000,215.9,1000,215.9,1000,215.9z M1001.8,216.1C1001.8,216.1,1001.8,216.1,1001.8,216.1
					C1001.8,216.1,1001.8,216.1,1001.8,216.1z M1013,230.8c0,0.1,0.1,0.1,0.1,0.2C1013.1,231,1013,230.9,1013,230.8z M1012,229.4
					C1012,229.5,1012,229.5,1012,229.4C1012,229.5,1012,229.5,1012,229.4z M1012.4,230.2c0,0.1,0.1,0.1,0.1,0.1
					C1012.5,230.2,1012.5,230.2,1012.4,230.2z M1013.6,231.5c0.1,0.1,0.1,0.1,0.2,0.2C1013.8,231.6,1013.7,231.6,1013.6,231.5z
					 M1014.5,232.1c0.1,0.1,0.2,0.1,0.3,0.2C1014.6,232.2,1014.6,232.2,1014.5,232.1z M1015.4,232.7c0.1,0.1,0.2,0.1,0.4,0.2
					C1015.7,232.8,1015.6,232.7,1015.4,232.7z M1016.6,233.2c0.2,0.1,0.3,0.1,0.5,0.2C1016.9,233.3,1016.7,233.2,1016.6,233.2z
					 M1017.9,233.6c0.2,0,0.4,0.1,0.5,0.1C1018.3,233.7,1018.1,233.6,1017.9,233.6z M1019.5,233.9c0.2,0,0.4,0.1,0.6,0.1
					C1019.9,234,1019.7,233.9,1019.5,233.9z M1021.4,234.2c0.2,0,0.4,0.1,0.7,0.1C1021.8,234.2,1021.6,234.2,1021.4,234.2z
					 M1023.6,234.3c0.2,0,0.4,0,0.6,0C1024,234.3,1023.8,234.3,1023.6,234.3z"/>
				<path class="st18" d="M1135,215.8H998c23.4,0.9,1.4,19.1,28.7,18.6h115.1v-11.8C1141.8,218.8,1138.8,215.8,1135,215.8z"/>
				<path class="st19" d="M1026.7,234.4h102.4c-2.1-7.2-8.9-12.5-16.7-12.5H1010C1011.9,227.4,1009.2,234.7,1026.7,234.4z"/>
				<rect x="961" y="260.2" class="st20" width="110.9" height="64.6"/>
				<rect x="970.9" y="282.1" class="st21" width="91.2" height="4.3"/>
				<rect x="970.9" y="289.3" class="st21" width="91.2" height="4.3"/>
				<rect x="970.9" y="296.4" class="st21" width="91.2" height="4.3"/>
				<rect x="970.9" y="303.6" class="st21" width="91.2" height="4.3"/>
				<path class="st22" d="M1090.5,373.7h37.3c7.7,0,14.1-6.3,14.1-14v-78.8C1132,312.3,1115.3,353.5,1090.5,373.7z"/>
			</g>
			<g id="Document_3_">
				<path class="st23" d="M1232.6,278.7h-164.3c-0.7,0-1.4,0-2.2,0c-36.3,0-72.7,0-109,0c-9.3,0-16.8,7.1-16.8,15.8v146.1
					c0,8.7,7.6,15.8,16.8,15.8h266.8c9.3,0,16.8-7.1,16.8-15.8v-141v-13.2C1240.7,282.1,1237.1,278.7,1232.6,278.7z M1070.8,278.9
					C1070.8,278.9,1070.8,278.9,1070.8,278.9C1070.8,278.9,1070.8,278.9,1070.8,278.9z M1072.9,279.1
					C1072.9,279.1,1072.9,279.1,1072.9,279.1C1072.9,279.1,1072.9,279.1,1072.9,279.1z M1086.3,295.7c0.1,0.1,0.1,0.1,0.2,0.2
					C1086.4,295.8,1086.4,295.7,1086.3,295.7z M1085.1,294.1C1085.1,294.1,1085.2,294.1,1085.1,294.1
					C1085.2,294.1,1085.1,294.1,1085.1,294.1z M1085.6,294.9c0,0.1,0.1,0.1,0.1,0.2C1085.7,295,1085.7,294.9,1085.6,294.9z
					 M1087.1,296.4c0.1,0.1,0.2,0.1,0.3,0.2C1087.3,296.5,1087.2,296.5,1087.1,296.4z M1088.1,297.1c0.1,0.1,0.2,0.1,0.3,0.2
					C1088.3,297.2,1088.2,297.1,1088.1,297.1z M1089.2,297.7c0.1,0.1,0.3,0.1,0.4,0.2C1089.5,297.8,1089.4,297.8,1089.2,297.7z
					 M1090.6,298.2c0.2,0.1,0.4,0.1,0.5,0.2C1091,298.4,1090.8,298.3,1090.6,298.2z M1092.2,298.7c0.2,0.1,0.4,0.1,0.7,0.2
					C1092.7,298.8,1092.5,298.8,1092.2,298.7z M1094.1,299.1c0.3,0,0.5,0.1,0.8,0.1C1094.6,299.2,1094.4,299.1,1094.1,299.1z
					 M1096.4,299.4c0.3,0,0.5,0.1,0.8,0.1C1096.9,299.4,1096.7,299.4,1096.4,299.4z M1099,299.6c0.3,0,0.5,0,0.7,0
					C1099.5,299.6,1099.3,299.6,1099,299.6z"/>
				<path class="st18" d="M1232.6,278.7h-164.3c28,1,1.7,21.4,34.4,20.9h138v-13.2C1240.7,282.1,1237.1,278.7,1232.6,278.7z"/>
				<path class="st24" d="M1102.7,299.6h122.8c-2.6-8.1-10.6-14.1-20.1-14.1h-122.7C1085,291.7,1081.8,299.9,1102.7,299.6z"/>
				<rect x="1024" y="328.6" class="st20" width="132.9" height="72.6"/>
				<rect x="1035.8" y="353.3" class="st25" width="109.3" height="4.8"/>
				<rect x="1035.8" y="361.3" class="st25" width="109.3" height="4.8"/>
				<rect x="1035.8" y="369.4" class="st25" width="109.3" height="4.8"/>
				<rect x="1035.8" y="377.5" class="st25" width="109.3" height="4.8"/>
			</g>
		</g>
		<g id="Controlling">
			<g id="Correction_1_">
				<g id="Active_4_">
					<g id="Active1_2_">
						<path class="st26" d="M881.4,818.8c6.1,2.2,11.7,5.5,16.6,9.6l23-9.5l15.5,26.8l-19.3,16c0.6,3.2,0.8,6.5,0.8,9.8
							c0,3-0.2,5.9-0.7,8.7l20.1,15.5L922,922.5l-23.1-8.6c-4.8,4.2-10.3,7.6-16.4,9.9l-3.3,24.5h-31l-4.1-24.1
							c-6.1-2.2-11.7-5.5-16.6-9.6l-23,9.5L789,897.3l19.3-16c-0.6-3.2-0.9-6.5-0.9-9.8c0-3,0.2-5.9,0.7-8.7l-20.1-15.4l15.5-26.8
							l23.1,8.6c4.8-4.2,10.4-7.6,16.4-9.9l3.2-24.5h31L881.4,818.8z"/>
						<path class="st27" d="M862.7,911.8c22.2,0,40.3-18.1,40.3-40.2c0-22.2-18.1-40.2-40.3-40.2c-22.2,0-40.2,18.1-40.2,40.2
							C822.5,893.7,840.6,911.8,862.7,911.8L862.7,911.8z"/>
						<path class="st28" d="M862.8,898.2c14.7,0,26.7-12,26.7-26.7c0-14.7-12-26.7-26.7-26.7c-14.7,0-26.7,12-26.7,26.7
							C836.1,886.2,848.1,898.2,862.8,898.2L862.8,898.2z"/>
					</g>
					<g id="Active_5_">
						<path class="st23" d="M937,589.9c9.6,0.3,19,2.4,27.8,5.9l28.2-23.9l34,30.8l-19.9,31.3c2.2,4.3,4.1,8.7,5.7,13.5
							c1.3,4.2,2.3,8.4,3,12.6l35.3,12.7l-9.6,44.9l-36.5-1.6c-4.9,8.1-11.2,15.4-18.6,21.4l6.5,36L949,787.5l-16.7-32.1
							c-9.6-0.3-19-2.4-27.8-5.9l-28.2,23.9l-34-30.8l19.9-31.3c-2.2-4.2-4.1-8.7-5.7-13.4c-1.3-4.2-2.3-8.4-3-12.6l-35.3-12.7
							l9.6-44.8l36.5,1.6c4.9-8.1,11.1-15.4,18.6-21.4l-6.5-36l43.7-14.1L937,589.9z"/>
						<path class="st27" d="M934.6,737.5c35.8,0,64.9-29.2,64.9-64.9c0-35.7-29.2-64.9-64.9-64.9c-35.7,0-64.9,29.1-64.9,64.9
							C869.7,708.4,898.9,737.5,934.6,737.5L934.6,737.5z"/>
						<path class="st28" d="M946.8,710.3c20.8-6.7,32.2-29,25.5-49.8c-6.7-20.7-29-32.2-49.8-25.5c-20.7,6.7-32.2,29-25.5,49.8
							C903.7,705.5,926,717,946.8,710.3L946.8,710.3z"/>
					</g>
				</g>
				<g id="Active_1_">
					<g id="Active1_1_">
						<path class="st29" d="M755.4,771.7c2.5-1.1,5.1-1.6,7.8-1.8l4.3-9.4l12.3,3.8l-1.4,10.3c1.1,0.8,2.1,1.7,3,2.8
							c0.8,0.9,1.6,1.8,2.3,2.8l10.5-1l2.9,12.5l-9.5,3.9c-0.3,2.6-1,5.2-2.2,7.7l5.9,8.4l-9.4,8.8l-8.1-6.2
							c-2.5,1.1-5.1,1.6-7.8,1.8l-4.3,9.4l-12.3-3.8l1.4-10.3c-1.1-0.8-2.1-1.7-3-2.7c-0.8-0.9-1.6-1.8-2.3-2.8l-10.5,1l-2.9-12.6
							l9.5-3.9c0.3-2.6,1-5.2,2.2-7.7l-5.9-8.4l9.4-8.8L755.4,771.7z"/>
						<path class="st27" d="M776,805.3c6.8-6.3,7.2-16.9,0.9-23.7c-6.3-6.8-16.9-7.1-23.7-0.9c-6.8,6.3-7.2,16.9-0.9,23.6
							C758.7,811.2,769.3,811.6,776,805.3L776,805.3z"/>
						<path class="st28" d="M772.2,801.2c4.5-4.2,4.7-11.2,0.6-15.7c-4.2-4.5-11.2-4.7-15.7-0.6c-4.5,4.2-4.7,11.2-0.6,15.7
							C760.7,805.1,767.7,805.4,772.2,801.2L772.2,801.2z"/>
					</g>
					<g id="Active_3_">
						<path class="st30" d="M707.6,686.2c3-2.6,6.5-4.6,10.1-6l1.8-15.2l19.1-0.2l2.8,15.2c1.9,0.7,3.7,1.5,5.5,2.5
							c1.6,0.9,3.1,1.9,4.5,3l14.3-6.1l9.8,16.4l-11.6,9.9c0.8,3.8,1,7.8,0.4,11.8l12.2,9.1l-9.3,16.6l-14.2-5
							c-3,2.6-6.5,4.7-10.1,6l-1.8,15.2l-19.1,0.3l-2.8-15.2c-1.9-0.7-3.7-1.5-5.5-2.5c-1.6-0.9-3.1-1.9-4.5-3l-14.4,6.1l-9.7-16.4
							l11.6-9.9c-0.8-3.9-1-7.8-0.4-11.8l-12.2-9.1l9.3-16.6L707.6,686.2z"/>
						<path class="st27" d="M748.6,731.9c10.9-10.1,11.5-27.3,1.4-38.1c-10.1-10.9-27.2-11.5-38.1-1.4
							c-10.9,10.1-11.5,27.2-1.4,38.1C720.6,741.4,737.7,742,748.6,731.9L748.6,731.9z"/>
						<path class="st28" d="M744.6,720.2c4.4-7.9,1.6-18-6.3-22.4c-7.9-4.4-18-1.6-22.4,6.3c-4.4,7.9-1.6,18,6.3,22.4
							C730.1,730.9,740.2,728.1,744.6,720.2L744.6,720.2z"/>
					</g>
				</g>
			</g>
		</g>
	</g>
</g>
</svg>
