<?xml version="1.0" encoding="utf-8"?>
<!-- Generator: Adobe Illustrator 20.1.0, SVG Export Plug-In . SVG Version: 6.00 Build 0)  -->
<svg version="1.1" id="Layer_1" xmlns="http://www.w3.org/2000/svg" xmlns:xlink="http://www.w3.org/1999/xlink" x="0px" y="0px"
	 viewBox="0 0 250 250" style="enable-background:new 0 0 250 250;" xml:space="preserve">
<style type="text/css">
	.st0{fill:#FC7A51;}
	.st1{fill:#808080;}
	.st2{fill:#FFFFFF;}
	.st3{fill:#29ABE2;}
	.st4{fill:#CCCCCC;}
	.st5{fill:#E6E6E6;}
	.st6{fill:#A9A9A9;}
	.st7{fill:#6EC6EB;}
	.st8{fill:#FDA589;}
	.st9{fill:#F9DE58;}
	.st10{fill:#E0BF20;}
</style>
<g id="E-Commerce">
	<g id="Background_21_">
		<circle id="Background_2_21_" class="st0" cx="123.1" cy="124.2" r="116.6"/>
	</g>
</g>
<g>
	<path class="st1" d="M201.8,84.9V170H47V84.9c0-5.4,4.4-9.8,9.8-9.8H192C197.4,75.2,201.8,79.6,201.8,84.9"/>
	<polyline class="st2" points="57.7,159.3 57.7,85.9 191.1,85.9 191.1,159.3 57.7,159.3 	"/>
	<path class="st3" d="M160.8,99.8l-3.2,3.5l13.4,12.2h-44.3l13.4-12.2l-3.2-3.5l-19,17.2l8.8,36.1h8.8h26.5h8.8l8.8-36.1L160.8,99.8
		 M146.6,126.4h-9.7l-0.8-6.3h10.6L146.6,126.4 M151.3,120.2h10.6l-0.8,6.3h-9.7V120.2 M132.1,126.4h-6.9l-1.5-6.3h7.6L132.1,126.4
		 M126.4,131.2h6.4l0.9,6.6H128L126.4,131.2 M137.5,131.2h9.1v6.6h-8.2L137.5,131.2 M151.3,131.2h9.1l-0.9,6.6h-8.2V131.2
		 M165.2,131.2h6.4l-1.6,6.6h-5.7L165.2,131.2 M165.8,126.4l0.8-6.3h7.6l-1.5,6.3H165.8 M130.6,148.5l-1.5-6h5.2l0.8,6H130.6
		 M139,142.5h7.6v6h-6.8L139,142.5 M151.3,148.5v-6h7.6l-0.8,6H151.3 M162.8,148.5l0.8-6h5.2l-1.5,6H162.8"/>
	<rect x="65.5" y="95.2" class="st4" width="45.8" height="10.3"/>
	<rect x="65.5" y="110.1" class="st5" width="45.8" height="42.3"/>
	<path class="st6" d="M192,75.2h-83.7l3.3,10.7h79.5v73.4H134l3,9.9h64.8V84.9C201.8,79.6,197.4,75.2,192,75.2"/>
	<path class="st2" d="M134.3,142.5h-5.2l1.1,4.4l0.5,1.6h4.4L134.3,142.5 M146.6,142.5H139l0.8,6h6.8V142.5 M158.9,142.5h-7.6v6h6.8
		L158.9,142.5 M168.8,142.5h-5.2l-0.8,6h4.5L168.8,142.5 M132.7,131.2h-6.4l1.6,6.6h5.7L132.7,131.2 M146.6,131.2h-9.1l0.9,6.6h8.2
		L146.6,131.2 M160.4,131.2h-9.1v6.6h8.2L160.4,131.2 M171.6,131.2h-6.4l-0.9,6.6h5.7L171.6,131.2 M131.3,120.2h-7.6l1.5,6.3h6.9
		L131.3,120.2 M146.6,120.2H136l0.8,6.3h9.7L146.6,120.2 M161.9,120.2h-10.6v6.3h9.7L161.9,120.2 M174.2,120.2h-7.6l-0.8,6.3h6.9
		L174.2,120.2 M191.1,85.9h-79.5l8.8,29l16.7-15.1l3.2,3.5l-13.4,12.2h44.3l-13.4-12.2l3.2-3.5l19,17.2l-8.8,36.1h-8.8h-26.5h-3.6
		l1.9,6.1h57.1V85.9"/>
	<path class="st7" d="M139.8,148.5l-0.8-6h7.6v6H139.8 M151.3,148.5v-6h7.6l-0.8,6H151.3 M162.8,148.5l0.8-6h5.2l-1.5,6H162.8
		 M128,137.8l-1.6-6.6h6.4l0.9,6.6H128 M138.4,137.8l-0.9-6.6h9.1v6.6H138.4 M151.3,137.8v-6.6h9.1l-0.9,6.6H151.3 M164.3,137.8
		l0.9-6.6h6.4l-1.6,6.6H164.3 M125.2,126.4l-1.5-6.3h7.6l0.8,6.3H125.2 M136.9,126.4l-0.8-6.3h10.6v6.3H136.9 M151.3,126.4v-6.3
		h10.6l-0.8,6.3H151.3 M165.8,126.4l0.8-6.3h7.6l-1.5,6.3H165.8 M160.8,99.8l-3.2,3.5l13.4,12.2h-44.3l13.4-12.2l-3.2-3.5
		l-16.7,15.1l9.7,31.9l-1.1-4.4h5.2l0.8,6h-4.4l1.4,4.7h3.6h26.5h8.8l8.8-36.1L160.8,99.8"/>
	<path class="st8" d="M213,169.2c0,6.7-5.5,12.2-12.2,12.2H48c-3.4,0-6.4-1.4-8.6-3.6c-2.2-2.2-3.6-5.3-3.6-8.6H213"/>
	<rect x="51.4" y="144.5" class="st9" width="35.9" height="42.5"/>
	<rect x="77.9" y="144.5" class="st10" width="9.4" height="42.4"/>
	<rect x="51.4" y="144.5" class="st10" width="4.7" height="42.4"/>
	<rect x="66.5" y="181.4" class="st9" width="35.9" height="7.4"/>
	<rect x="93" y="181.4" class="st10" width="9.4" height="7.4"/>
	<rect x="66.5" y="181.4" class="st10" width="4.7" height="7.4"/>
	<path class="st8" d="M213,169.2h-11.2H137h-11.9l3.7,12.2h71.9C207.5,181.4,213,176,213,169.2"/>
</g>
</svg>
