<?xml version="1.0" encoding="utf-8"?>
<!-- Generator: Adobe Illustrator 20.1.0, SVG Export Plug-In . SVG Version: 6.00 Build 0)  -->
<svg version="1.1" id="Layer_1" xmlns="http://www.w3.org/2000/svg" xmlns:xlink="http://www.w3.org/1999/xlink" x="0px" y="0px"
	 viewBox="0 0 418 342" style="enable-background:new 0 0 418 342;" xml:space="preserve">
<style type="text/css">
	.st0{fill:#FFFFFF;}
	.st1{font-family:'AbeatbyKai';}
	.st2{font-size:35px;}
	.st3{fill:#ED1F24;}
	.st4{fill-rule:evenodd;clip-rule:evenodd;fill:#F04C23;}
	.st5{fill-rule:evenodd;clip-rule:evenodd;fill:#EE3224;}
	.st6{fill-rule:evenodd;clip-rule:evenodd;fill:#620D0D;}
	.st7{fill-rule:evenodd;clip-rule:evenodd;fill:#EF4323;}
	.st8{fill-rule:evenodd;clip-rule:evenodd;fill:#ED1C24;}
	.st9{fill-rule:evenodd;clip-rule:evenodd;fill:#ED1E25;}
	.st10{fill-rule:evenodd;clip-rule:evenodd;fill:#AC1F23;}
	.st11{fill-rule:evenodd;clip-rule:evenodd;fill:#882D1B;}
</style>
<g>
	<text transform="matrix(1 0 0 1 22.9629 323.6128)" class="st0 st1 st2">zyn</text>
	<text transform="matrix(1 0 0 1 80.6426 323.6128)" class="st3 st1 st2">app</text>
	<text transform="matrix(1 0 0 1 150.187 323.6128)"><tspan x="0" y="0" class="st3 st1 st2">s</tspan><tspan x="15.2" y="0" class="st0 st1 st2">e corporation</tspan></text>
	<g>
		<path class="st4" d="M293.9,226.1c13.2,1,23.1,13.1,22.1,26.9c-1,13.8-12.4,24.3-25.6,23.3c-13.2-1-23.1-13.1-22.1-26.9
			C269.3,235.5,280.8,225.1,293.9,226.1"/>
		<path class="st5" d="M87.8,237.8l4.4,14.3l164.6-54.7c-3.2-2.3-7.1-3.1-16-0.2L87.8,237.8z"/>
		<path class="st4" d="M128.5,252.1l-4.4,17.9l155.4-3.5c0,0,1.5,0.3,1.5-3.1c0-3.4-1.5-5.5-1.5-5.5L128.5,252.1z"/>
		<polygon class="st6" points="204.7,50.5 215.3,50.2 197.5,57.1 		"/>
		<path class="st7" d="M98.9,287.7c24.6,0,44.7-20.1,44.7-44.7s-20.1-44.7-44.7-44.7c-24.6,0-44.7,20.1-44.7,44.7
			S74.3,287.7,98.9,287.7"/>
		<path class="st8" d="M172.3,113.6c0-42.2,34.2-76.3,76.3-76.3c42.2,0,76.3,34.2,76.3,76.3C273.5,117.1,222.6,117.1,172.3,113.6"/>
		<path class="st9" d="M172.3,118.5c0,42.2,34.2,80.2,76.3,80.2c42.2,0,76.3-38,76.3-80.2C274,121.6,223.1,122.2,172.3,118.5"/>
		<path class="st9" d="M248.9,37.4c6.5,5.2-5.5,11.5-18.9,15.1l-129.9-6.3L99.4,38L248.9,37.4z"/>
		<path class="st10" d="M97,64.9c12.3-1.6,21.1-12.9,19.5-25.2c-1.6-12.3-12.9-21.1-25.2-19.5C79,21.7,70.3,33.1,71.8,45.4
			C73.4,57.7,84.7,66.5,97,64.9"/>
		<path class="st11" d="M273.3,266.6l6.9-0.3l5.3,9c0,0-6-2.3-8.2-4.5C275,268.6,273.3,266.6,273.3,266.6"/>
	</g>
</g>
</svg>
