<svg id="blockchain-icon" xmlns="http://www.w3.org/2000/svg" width="56.279" height="51.127" viewBox="0 0 56.279 51.127">
  <g id="Group_2136" data-name="Group 2136" transform="translate(38.812)">
    <path id="Subtraction_54" data-name="Subtraction 54" d="M7.8,13.108h0L0,8.73V0L7.8,3.544v9.563Zm1.354-.06h0V3.5L17.468,0V8.73L9.16,13.047Z" transform="translate(0 3.72)" fill="#d13e3e"/>
    <path id="Path_3434" data-name="Path 3434" d="M-4517.874,201.521l7.261,3.325,8.3-3.325-8.3-2.681Z" transform="translate(4519.067 -198.84)" fill="#d13e3e"/>
  </g>
  <g id="Group_2138" data-name="Group 2138" transform="translate(38.812 34.298)">
    <path id="Subtraction_54-2" data-name="Subtraction 54" d="M7.8,13.108h0L0,8.73V0L7.8,3.544v9.563Zm1.354-.06h0V3.5L17.468,0V8.73L9.16,13.047Z" transform="translate(0 3.72)" fill="#d13e3e"/>
    <path id="Path_3434-2" data-name="Path 3434" d="M-4517.874,201.521l7.261,3.325,8.3-3.325-8.3-2.681Z" transform="translate(4519.067 -198.84)" fill="#d13e3e"/>
  </g>
  <g id="Group_2137" data-name="Group 2137" transform="translate(0 34.298)">
    <path id="Subtraction_55" data-name="Subtraction 55" d="M7.8,13.108h0L0,8.73V0L7.8,3.544v9.563Zm1.354-.06h0V3.5L17.468,0V8.73L9.16,13.047Z" transform="translate(0 3.72)" fill="#d13e3e"/>
    <path id="Path_3436" data-name="Path 3436" d="M-4517.874,201.521l7.261,3.325,8.3-3.325-8.3-2.681Z" transform="translate(4519.067 -198.84)" fill="#d13e3e"/>
  </g>
  <g id="Group_2135" data-name="Group 2135" transform="translate(0)">
    <path id="Subtraction_56" data-name="Subtraction 56" d="M7.8,13.108h0L0,8.73V0L7.8,3.544v9.563Zm1.354-.06h0V3.5L17.468,0V8.73L9.16,13.047Z" transform="translate(0 3.72)" fill="#d13e3e"/>
    <path id="Path_3438" data-name="Path 3438" d="M-4517.874,201.521l7.261,3.325,8.3-3.325-8.3-2.681Z" transform="translate(4519.067 -198.84)" fill="#d13e3e"/>
  </g>
  <path id="Subtraction_59" data-name="Subtraction 59" d="M11.438,16.93V15.319H9.386V16.93a.614.614,0,1,1-1.228,0V15.319H6.106V16.93a.614.614,0,0,1-1.228,0V15.319H4.225a2,2,0,0,1-2-2v-.653H.613a.614.614,0,0,1,0-1.228H2.225V9.386H.613a.614.614,0,0,1,0-1.228H2.225V6.106H.613a.614.614,0,0,1,0-1.228H2.225V4.225a2,2,0,0,1,2-2h.653V.614a.614.614,0,0,1,1.228,0V2.225H8.159V.614a.614.614,0,1,1,1.228,0V2.225h2.052V.614a.614.614,0,0,1,1.228,0V2.225h.653a2,2,0,0,1,2,2v.653H16.93a.614.614,0,1,1,0,1.228H15.319V8.159H16.93a.614.614,0,1,1,0,1.228H15.319v2.052H16.93a.614.614,0,0,1,0,1.228H15.319v.653a2,2,0,0,1-2,2h-.653V16.93a.614.614,0,0,1-1.228,0Z" transform="translate(19.208 16.794)" fill="#d13e3e"/>
  <path id="Path_3447" data-name="Path 3447" d="M-4510.76,171.067v14.639" transform="translate(4519.1 -152.955)" fill="none" stroke="#d13e3e" stroke-width="1.5"/>
  <path id="Path_3448" data-name="Path 3448" d="M-4510.76,171.067v14.639" transform="translate(4558.38 -152.955)" fill="none" stroke="#d13e3e" stroke-width="1.5"/>
  <path id="Path_3449" data-name="Path 3449" d="M0,0V14.639" transform="translate(35.3 7.669) rotate(90)" fill="none" stroke="#d13e3e" stroke-width="1.5"/>
  <path id="Path_3450" data-name="Path 3450" d="M0,0V14.639" transform="translate(35.3 43.462) rotate(90)" fill="none" stroke="#d13e3e" stroke-width="1.5"/>
</svg>
