<svg id="hardware-infrastructure-icon" xmlns="http://www.w3.org/2000/svg" width="55.83" height="55.301" viewBox="0 0 55.83 55.301">
  <path id="Subtraction_67" data-name="Subtraction 67" d="M25,7H1A1,1,0,0,1,0,6V1A1,1,0,0,1,1,0H25a1,1,0,0,1,1,1V6A1,1,0,0,1,25,7ZM20.023,1.826a1.826,1.826,0,1,0,1.793,1.826A1.812,1.812,0,0,0,20.023,1.826Zm-13.748,0A1.826,1.826,0,1,0,8.069,3.652,1.812,1.812,0,0,0,6.276,1.826Zm6.575,1.218a.608.608,0,1,0,.6.608A.6.6,0,0,0,12.851,3.044Z" transform="translate(0 39.301)" fill="#d13e3e"/>
  <path id="Subtraction_70" data-name="Subtraction 70" d="M25,7H1A1,1,0,0,1,0,6V1A1,1,0,0,1,1,0H25a1,1,0,0,1,1,1V6A1,1,0,0,1,25,7ZM20.023,1.826a1.826,1.826,0,1,0,1.793,1.826A1.812,1.812,0,0,0,20.023,1.826Zm-13.748,0A1.826,1.826,0,1,0,8.069,3.652,1.812,1.812,0,0,0,6.276,1.826Zm6.575,1.218a.608.608,0,1,0,.6.608A.6.6,0,0,0,12.851,3.044Z" transform="translate(29.83 39.301)" fill="#d13e3e"/>
  <path id="Subtraction_71" data-name="Subtraction 71" d="M1,0H12a1,1,0,0,1,1,1V4a1,1,0,0,1-1,1H1A1,1,0,0,1,0,4V1A1,1,0,0,1,1,0Z" transform="translate(21.415 24.301)" fill="#d13e3e"/>
  <path id="Subtraction_68" data-name="Subtraction 68" d="M25,7H1A1,1,0,0,1,0,6V1A1,1,0,0,1,1,0H25a1,1,0,0,1,1,1V6A1,1,0,0,1,25,7ZM20.023,1.826a1.826,1.826,0,1,0,1.793,1.826A1.812,1.812,0,0,0,20.023,1.826Zm-13.748,0A1.826,1.826,0,1,0,8.069,3.652,1.812,1.812,0,0,0,6.276,1.826Zm6.575,1.218a.608.608,0,1,0,.6.608A.6.6,0,0,0,12.851,3.044Z" transform="translate(0 48.301)" fill="#d13e3e"/>
  <path id="Subtraction_69" data-name="Subtraction 69" d="M25,7H1A1,1,0,0,1,0,6V1A1,1,0,0,1,1,0H25a1,1,0,0,1,1,1V6A1,1,0,0,1,25,7ZM20.023,1.826a1.826,1.826,0,1,0,1.793,1.826A1.812,1.812,0,0,0,20.023,1.826Zm-13.748,0A1.826,1.826,0,1,0,8.069,3.652,1.812,1.812,0,0,0,6.276,1.826Zm6.575,1.218a.608.608,0,1,0,.6.608A.6.6,0,0,0,12.851,3.044Z" transform="translate(29.83 48.301)" fill="#d13e3e"/>
  <path id="Path_3460" data-name="Path 3460" d="M-4889.983,586.133h-1.5V575.814h18.506v1.5h-17.006Z" transform="translate(4899.764 -549.972)" fill="#d13e3e" stroke="#d13e3e" stroke-width="1.5"/>
  <path id="Path_3461" data-name="Path 3461" d="M-4872.227,586.133h-1.5v-8.818h-17.006v-1.5h18.506Z" transform="translate(4919.277 -549.972)" fill="#d13e3e" stroke="#d13e3e" stroke-width="1.5"/>
  <g id="Group_2151" data-name="Group 2151" transform="translate(18.456 0)">
    <path id="Path_3210" data-name="Path 3210" d="M13.022,19.654l-.486-1.215a8.53,8.53,0,0,1-4.283,0l-.486,1.215-1.994-.8.494-1.235A8.357,8.357,0,0,1,5.1,16.809L3.9,18,2.386,16.482,3.63,15.238a8.343,8.343,0,0,1-.461-.716l-1.235.494-.8-1.994,1.215-.486a8.351,8.351,0,0,1,0-4.283L1.136,7.767l.8-1.994,1.235.494A8.352,8.352,0,0,1,3.8,5.32L2.386,3.9,3.9,2.386,5.32,3.8a8.352,8.352,0,0,1,.947-.633L5.773,1.934l1.994-.8.486,1.215a8.53,8.53,0,0,1,4.283,0l.486-1.215,1.994.8-.494,1.235a8.343,8.343,0,0,1,.716.461l1.243-1.243L18,3.9,16.809,5.1a8.357,8.357,0,0,1,.811,1.171l1.235-.494.8,1.994-1.215.486a8.351,8.351,0,0,1,0,4.283l1.215.486-.8,1.994-1.235-.494a8.353,8.353,0,0,1-.633.947L18,16.482,16.482,18l-1.013-1.013a8.352,8.352,0,0,1-.947.633l.494,1.235ZM10.395,4.22a6.175,6.175,0,1,0,6.175,6.175A6.182,6.182,0,0,0,10.395,4.22Zm0,9.666a3.49,3.49,0,1,1,3.49-3.49A3.494,3.494,0,0,1,10.395,13.885Zm0-4.833a1.342,1.342,0,1,0,1.342,1.342A1.344,1.344,0,0,0,10.395,9.052Z" transform="translate(-1.136 -0.935)" fill="#d13e3e"/>
    <path id="Path_3210-2" data-name="Path 3210" d="M13.022,19.654l-.486-1.215a8.53,8.53,0,0,1-4.283,0l-.486,1.215-1.994-.8.494-1.235A8.357,8.357,0,0,1,5.1,16.809L3.9,18,2.386,16.482,3.63,15.238a8.343,8.343,0,0,1-.461-.716l-1.235.494-.8-1.994,1.215-.486a8.351,8.351,0,0,1,0-4.283L1.136,7.767l.8-1.994,1.235.494A8.352,8.352,0,0,1,3.8,5.32L2.386,3.9,3.9,2.386,5.32,3.8a8.352,8.352,0,0,1,.947-.633L5.773,1.934l1.994-.8.486,1.215a8.53,8.53,0,0,1,4.283,0l.486-1.215,1.994.8-.494,1.235a8.343,8.343,0,0,1,.716.461l1.243-1.243L18,3.9,16.809,5.1a8.357,8.357,0,0,1,.811,1.171l1.235-.494.8,1.994-1.215.486a8.351,8.351,0,0,1,0,4.283l1.215.486-.8,1.994-1.235-.494a8.353,8.353,0,0,1-.633.947L18,16.482,16.482,18l-1.013-1.013a8.352,8.352,0,0,1-.947.633l.494,1.235ZM10.395,4.22a6.175,6.175,0,1,0,6.175,6.175A6.182,6.182,0,0,0,10.395,4.22Zm0,9.666a3.49,3.49,0,1,1,3.49-3.49A3.494,3.494,0,0,1,10.395,13.885Zm0-4.833a1.342,1.342,0,1,0,1.342,1.342A1.344,1.344,0,0,0,10.395,9.052Z" transform="translate(-1.136 -0.935)" fill="#d13e3e"/>
    <path id="Subtraction_7" data-name="Subtraction 7" d="M10.533,18.919H8.386V10.533H0V8.386H8.386V0h2.148V8.386h8.386v2.148H10.533v8.385ZM9.46,8.028A1.432,1.432,0,1,0,10.892,9.46,1.433,1.433,0,0,0,9.46,8.028Z" transform="translate(0)" fill="#d13e3e"/>
  </g>
</svg>
