<svg xmlns="http://www.w3.org/2000/svg" width="54.524" height="46.346" viewBox="0 0 54.524 46.346">
  <path id="product-development-icon" d="M51.523,46.346H3a3,3,0,0,1-3-3V13.516H54.52l0,29.83A3,3,0,0,1,51.523,46.346ZM23.973,35.132a6.165,6.165,0,0,0,3.289,3.289,6.165,6.165,0,0,0,3.289-3.289ZM27.262,17.7a7.647,7.647,0,0,0-5.639,7.09V30.25l-1.879,2.133v1.809H34.78V32.383L32.9,30.25V24.8a7.646,7.646,0,0,0-5.638-7.09Zm0,8.969A1.879,1.879,0,1,1,29.141,24.8,1.881,1.881,0,0,1,27.262,26.674ZM54.524,11.587H.009L0,3A3,3,0,0,1,3,0H51.523a3,3,0,0,1,3,3v8.586ZM24.414,2.9a2.414,2.414,0,0,0,0,4.829H49.24a2.414,2.414,0,0,0,0-4.829Zm-8.631,0A2.414,2.414,0,1,0,18.175,5.31,2.405,2.405,0,0,0,15.783,2.9Zm-8.609,0A2.414,2.414,0,1,0,9.565,5.31,2.405,2.405,0,0,0,7.174,2.9Z" fill="#d13e3e"/>
</svg>
