<svg id="qa-icon" xmlns="http://www.w3.org/2000/svg" width="40.147" height="51.85" viewBox="0 0 40.147 51.85">
  <path id="Union_45" data-name="Union 45" d="M21.866,39.371H18.281L13.6,51.85,8.619,48.434l-6.608,1.2L8.027,33.584,6.539,35.072,3.467,32l2.516-2.515a17.15,17.15,0,0,1-.932-1.448l-2.5,1L.937,25l2.458-.984a16.954,16.954,0,0,1-.425-2.159H0V17.513H2.97a16.959,16.959,0,0,1,.425-2.159L.937,14.37l1.614-4.034,2.5,1A17.011,17.011,0,0,1,6.33,9.42L3.467,6.557,6.539,3.485,9.4,6.348a17.013,17.013,0,0,1,1.915-1.28l-1-2.5L14.352.955l.983,2.458A16.34,16.34,0,0,1,17.9,2.949V0h4.345V3.051A15.983,15.983,0,0,1,24,3.413L24.983.955l4.034,1.614-1,2.5A16.77,16.77,0,0,1,29.466,6l2.515-2.515,3.073,3.073-2.41,2.41a16.988,16.988,0,0,1,1.642,2.368l2.5-1L38.4,14.37l-2.458.984a16.8,16.8,0,0,1,.425,2.159h3.782v4.345H36.365a16.8,16.8,0,0,1-.425,2.159L38.4,25l-1.614,4.034-2.5-1a17.01,17.01,0,0,1-1.28,1.915L35.054,32l-2.566,2.566L38.136,49.63l-6.608-1.2L26.545,51.85ZM16.729,7.542A12.489,12.489,0,0,0,7.052,19.723,12.506,12.506,0,0,0,24.442,31.229a12.534,12.534,0,0,0,7.529-9.371h-.1a12.645,12.645,0,0,0-.013-4.345h.114A12.528,12.528,0,0,0,22.246,7.461v.053A12.623,12.623,0,0,0,17.9,7.331V7.318C17.509,7.374,17.114,7.449,16.729,7.542Z" fill="#d13e3e"/>
  <path id="Path_3455" data-name="Path 3455" d="M-4579.757,239.716l2.5,1.92,9.851-9.737" transform="translate(4593.657 -217.082)" fill="none" stroke="#d13e3e" stroke-linecap="round" stroke-linejoin="round" stroke-width="3.5"/>
</svg>
