<svg xmlns="http://www.w3.org/2000/svg" width="54.524" height="46.346" viewBox="0 0 54.524 46.346">
  <path id="ui-ux-icon" d="M51.523,46.346H3a3,3,0,0,1-3-3V13.516H54.52l0,29.83A3,3,0,0,1,51.523,46.346ZM27.262,22.422a.751.751,0,0,0-.707.5L22.493,34.465a.75.75,0,1,0,1.415.5l4.062-11.542a.75.75,0,0,0-.708-1Zm12.155,7.644h0l1.958,3.182a.75.75,0,1,0,1.277-.786L40.3,28.636l2.356-3.827a.75.75,0,0,0-1.277-.787l-1.959,3.183-1.959-3.183a.75.75,0,1,0-1.277.787l2.356,3.827L36.18,32.464a.75.75,0,1,0,1.277.786l1.958-3.182Zm-10.385-6.4a.751.751,0,0,0-.75.75V29.79a3.569,3.569,0,0,0,.846,2.438,3.821,3.821,0,0,0,2.753,1.116h.094a3.285,3.285,0,0,0,2.558-1.193,4.087,4.087,0,0,0,.77-2.365c-.009-.446,0-3.828,0-5.261v-.106a.75.75,0,0,0-1.5,0c0,.182-.011,4.843,0,5.4a2.63,2.63,0,0,1-.464,1.429,1.838,1.838,0,0,1-1.394.6h-.059a2.368,2.368,0,0,1-1.7-.679,2.172,2.172,0,0,1-.4-1.344v-5.4A.751.751,0,0,0,29.031,23.666ZM13.21,23.551a.751.751,0,0,0-.75.75v5.374a3.568,3.568,0,0,0,.846,2.438,3.818,3.818,0,0,0,2.753,1.116h.094a3.285,3.285,0,0,0,2.558-1.193,4.092,4.092,0,0,0,.769-2.365c-.009-.446,0-3.828,0-5.261V24.3a.75.75,0,0,0-.749-.751.753.753,0,0,0-.752.748c0,.03,0,.16,0,.362,0,1.129-.008,4.565,0,5.037a2.62,2.62,0,0,1-.463,1.429,1.838,1.838,0,0,1-1.394.6h-.059a2.366,2.366,0,0,1-1.7-.679,2.172,2.172,0,0,1-.4-1.344V24.3A.751.751,0,0,0,13.21,23.551Zm8.221.115a.751.751,0,0,0-.751.75v7.948a.75.75,0,0,0,1.5,0V24.416A.751.751,0,0,0,21.432,23.666Zm33.092-12.08H.009L0,3A3,3,0,0,1,3,0H51.523a3,3,0,0,1,3,3v8.586ZM24.414,2.9a2.414,2.414,0,0,0,0,4.829H49.24a2.414,2.414,0,0,0,0-4.829Zm-8.631,0A2.414,2.414,0,1,0,18.175,5.31,2.405,2.405,0,0,0,15.783,2.9Zm-8.609,0A2.414,2.414,0,1,0,9.565,5.31,2.405,2.405,0,0,0,7.174,2.9Z" fill="#d13e3e"/>
</svg>
