<?xml version="1.0" encoding="utf-8"?>
<!-- Generator: Adobe Illustrator 20.1.0, SVG Export Plug-In . SVG Version: 6.00 Build 0)  -->
<svg version="1.1" id="Layer_1" xmlns="http://www.w3.org/2000/svg" xmlns:xlink="http://www.w3.org/1999/xlink" x="0px" y="0px"
	 viewBox="0 0 250 250" style="enable-background:new 0 0 250 250;" xml:space="preserve">
<style type="text/css">
	.st0{fill:#D9F3FF;}
	.st1{fill:#B8BFD4;}
	.st2{fill:#959CB3;}
	.st3{fill:#C7CFE2;}
	.st4{fill:#707384;}
	.st5{fill:#464655;}
	.st6{fill:#FF6464;}
	.st7{fill:#FFD782;}
	.st8{fill:#D2555A;}
	.st9{fill:#FFFFFF;}
	.st10{fill:#FFC36E;}
	.st11{fill:#96E17D;}
	.st12{fill:#6EC864;}
	.st13{fill:#00D2FF;}
	.st14{fill:#B8E9FF;}
</style>
<g id="E-Commerce">
	<g id="Background_21_">
		<circle id="Background_2_21_" class="st0" cx="123" cy="124.9" r="116.6"/>
	</g>
</g>
<rect x="65" y="72.7" class="st0" width="118.1" height="78.7"/>
<path class="st1" d="M149.3,185.2h22.5c1.6,0,2.8-1.3,2.8-2.8v-53.4c0-1.6-1.3-2.8-2.8-2.8h-22.5c-1.6,0-2.8,1.3-2.8,2.8v53.4
	C146.5,183.9,147.7,185.2,149.3,185.2z"/>
<path class="st2" d="M140.9,185.2h25.3c1.6,0,2.8-1.3,2.8-2.8v-67.5c0-1.6-1.3-2.8-2.8-2.8h-25.3c-1.6,0-2.8,1.3-2.8,2.8v67.5
	C138.1,183.9,139.3,185.2,140.9,185.2z"/>
<path class="st1" d="M126.8,185.2h22.5c1.6,0,2.8-1.3,2.8-2.8v-81.5c0-1.6-1.3-2.8-2.8-2.8h-22.5c-1.6,0-2.8,1.3-2.8,2.8v81.5
	C124,183.9,125.3,185.2,126.8,185.2z"/>
<path class="st2" d="M93.1,185.2h22.5c1.6,0,2.8-1.3,2.8-2.8v-75.9c0-1.6-1.3-2.8-2.8-2.8H93.1c-1.6,0-2.8,1.3-2.8,2.8v75.9
	C90.3,183.9,91.5,185.2,93.1,185.2z"/>
<path class="st1" d="M73.4,185.2h22.5c1.6,0,2.8-1.3,2.8-2.8v-59c0-1.6-1.3-2.8-2.8-2.8H73.4c-1.6,0-2.8,1.3-2.8,2.8v59
	C70.6,183.9,71.8,185.2,73.4,185.2z"/>
<path class="st3" d="M107.1,185.2h28.1c1.6,0,2.8-1.3,2.8-2.8v-45c0-1.6-1.3-2.8-2.8-2.8h-28.1c-1.6,0-2.8,1.3-2.8,2.8v45
	C104.3,183.9,105.6,185.2,107.1,185.2z"/>
<path class="st4" d="M42.5,75.5v73.1c0,4.7,3.8,8.4,8.4,8.4h146.2c4.7,0,8.4-3.8,8.4-8.4V75.5c0-4.7-3.8-8.4-8.4-8.4H50.9
	C46.3,67.1,42.5,70.9,42.5,75.5z M183,72.7v78.7H65V72.7H183z"/>
<g>
	<path class="st5" d="M56.5,103.6v16.9c0,1.6-1.3,2.8-2.8,2.8l0,0c-1.6,0-2.8-1.3-2.8-2.8v-16.9c0-1.6,1.3-2.8,2.8-2.8l0,0
		C55.3,100.8,56.5,102.1,56.5,103.6z"/>
	<path class="st5" d="M56.5,131.8L56.5,131.8c0,1.6-1.3,2.8-2.8,2.8l0,0c-1.6,0-2.8-1.3-2.8-2.8l0,0c0-1.6,1.3-2.8,2.8-2.8l0,0
		C55.3,128.9,56.5,130.2,56.5,131.8z"/>
	<circle class="st5" cx="194.3" cy="112.1" r="5.6"/>
</g>
<path class="st2" d="M202.7,188H45.3c-1.6,0-2.8-1.3-2.8-2.8l0,0c0-1.6,1.3-2.8,2.8-2.8h157.4c1.6,0,2.8,1.3,2.8,2.8l0,0
	C205.5,186.7,204.3,188,202.7,188z"/>
<path class="st6" d="M121.2,78.3H87.5c-1.6,0-2.8,1.3-2.8,2.8v11.2c0,1.6,1.3,2.8,2.8,2.8h11.2l3.6,3.6c1.1,1.1,2.9,1.1,4,0l3.6-3.6
	h11.2c1.6,0,2.8-1.3,2.8-2.8V81.2C124,79.6,122.7,78.3,121.2,78.3z"/>
<path class="st7" d="M93.1,89.6h2.8c1.6,0,2.8-1.3,2.8-2.8l0,0c0-1.6-1.3-2.8-2.8-2.8h-2.8c-1.6,0-2.8,1.3-2.8,2.8l0,0
	C90.3,88.3,91.5,89.6,93.1,89.6z"/>
<path class="st8" d="M104.3,89.6h11.2c1.6,0,2.8-1.3,2.8-2.8l0,0c0-1.6-1.3-2.8-2.8-2.8h-11.2c-1.6,0-2.8,1.3-2.8,2.8l0,0
	C101.5,88.3,102.8,89.6,104.3,89.6z"/>
<path class="st7" d="M135.2,109.3h-28.1c-1.6,0-2.8,1.3-2.8,2.8v11.2c0,1.6,1.3,2.8,2.8,2.8h8.4l3.6,3.6c1.1,1.1,2.9,1.1,4,0
	l3.6-3.6h8.4c1.6,0,2.8-1.3,2.8-2.8v-11.2C138.1,110.5,136.8,109.3,135.2,109.3z"/>
<path class="st9" d="M112.8,120.5L112.8,120.5c1.6,0,2.8-1.3,2.8-2.8l0,0c0-1.6-1.3-2.8-2.8-2.8l0,0c-1.6,0-2.8,1.3-2.8,2.8l0,0
	C109.9,119.3,111.2,120.5,112.8,120.5z"/>
<path class="st10" d="M121.2,120.5h8.4c1.6,0,2.8-1.3,2.8-2.8l0,0c0-1.6-1.3-2.8-2.8-2.8h-8.4c-1.6,0-2.8,1.3-2.8,2.8l0,0
	C118.4,119.3,119.6,120.5,121.2,120.5z"/>
<g>
	<circle class="st7" cx="146.5" cy="143" r="2.8"/>
	<circle class="st7" cx="146.5" cy="134.6" r="2.8"/>
	<circle class="st7" cx="146.5" cy="126.1" r="2.8"/>
</g>
<path class="st11" d="M93.1,109.3c0-4.7-3.8-8.4-8.4-8.4s-8.4,3.8-8.4,8.4c0,3.7,2.4,6.8,5.6,7.9v3.3c0,1.6,1.3,2.8,2.8,2.8
	s2.8-1.3,2.8-2.8v-3.3C90.7,116,93.1,112.9,93.1,109.3z"/>
<circle class="st12" cx="84.6" cy="109.3" r="4.2"/>
<g>
	<path class="st10" d="M163.4,128.9h-8.4c-1.6,0-2.8-1.3-2.8-2.8l0,0c0-1.6,1.3-2.8,2.8-2.8h8.4c1.6,0,2.8,1.3,2.8,2.8l0,0
		C166.2,127.7,164.9,128.9,163.4,128.9z"/>
	<path class="st10" d="M169,145.8h-14.1c-1.6,0-2.8-1.3-2.8-2.8l0,0c0-1.6,1.3-2.8,2.8-2.8H169c1.6,0,2.8,1.3,2.8,2.8l0,0
		C171.8,144.6,170.5,145.8,169,145.8z"/>
	<path class="st10" d="M163.4,137.4h-8.4c-1.6,0-2.8-1.3-2.8-2.8l0,0c0-1.6,1.3-2.8,2.8-2.8h8.4c1.6,0,2.8,1.3,2.8,2.8l0,0
		C166.2,136.1,164.9,137.4,163.4,137.4z"/>
</g>
<path class="st13" d="M163.4,86.8h-28.1c-1.6,0-2.8,1.3-2.8,2.8v11.2c0,1.6,1.3,2.8,2.8,2.8h8.4l3.6,3.6c1.1,1.1,2.9,1.1,4,0
	l3.6-3.6h8.4c1.6,0,2.8-1.3,2.8-2.8V89.6C166.2,88,164.9,86.8,163.4,86.8z"/>
<path class="st9" d="M140.9,98L140.9,98c1.6,0,2.8-1.3,2.8-2.8l0,0c0-1.6-1.3-2.8-2.8-2.8l0,0c-1.6,0-2.8,1.3-2.8,2.8l0,0
	C138.1,96.8,139.3,98,140.9,98z"/>
<g>
	<path class="st14" d="M149.3,98L149.3,98c1.6,0,2.8-1.3,2.8-2.8l0,0c0-1.6-1.3-2.8-2.8-2.8l0,0c-1.6,0-2.8,1.3-2.8,2.8l0,0
		C146.5,96.8,147.7,98,149.3,98z"/>
	<path class="st14" d="M157.7,98L157.7,98c1.6,0,2.8-1.3,2.8-2.8l0,0c0-1.6-1.3-2.8-2.8-2.8l0,0c-1.6,0-2.8,1.3-2.8,2.8l0,0
		C154.9,96.8,156.2,98,157.7,98z"/>
</g>
</svg>
