<?xml version="1.0" encoding="utf-8"?>
<!-- Generator: Adobe Illustrator 20.1.0, SVG Export Plug-In . SVG Version: 6.00 Build 0)  -->
<svg version="1.1" id="Web_and_Development" xmlns="http://www.w3.org/2000/svg" xmlns:xlink="http://www.w3.org/1999/xlink"
	 x="0px" y="0px" viewBox="0 0 1427.3 1154.5" style="enable-background:new 0 0 1427.3 1154.5;" xml:space="preserve">
<style type="text/css">
	.st0{fill:#F7D64D;}
	.st1{fill-rule:evenodd;clip-rule:evenodd;fill:#153151;}
	.st2{fill-rule:evenodd;clip-rule:evenodd;fill:#E5E5E5;}
	.st3{fill-rule:evenodd;clip-rule:evenodd;fill:#A3A3A3;}
	.st4{fill:#153151;}
	.st5{fill-rule:evenodd;clip-rule:evenodd;fill:#F39C12;}
	.st6{fill:#F1C40F;}
	.st7{fill:#34495E;}
	.st8{fill:#F46464;}
	.st9{fill:#14AF95;}
	.st10{fill-rule:evenodd;clip-rule:evenodd;fill:#E6E6E6;}
	.st11{fill-rule:evenodd;clip-rule:evenodd;fill:#474646;}
	.st12{fill-rule:evenodd;clip-rule:evenodd;fill:#D84848;}
	.st13{opacity:0.2;fill-rule:evenodd;clip-rule:evenodd;fill:#231F20;}
	.st14{opacity:0.1;fill-rule:evenodd;clip-rule:evenodd;fill:#231F20;}
	.st15{fill-rule:evenodd;clip-rule:evenodd;fill:#4D4D4D;}
	.st16{fill-rule:evenodd;clip-rule:evenodd;fill:#336699;}
	.st17{fill-rule:evenodd;clip-rule:evenodd;fill:#FF6633;}
	.st18{fill-rule:evenodd;clip-rule:evenodd;fill:#0056A3;}
	.st19{fill-rule:evenodd;clip-rule:evenodd;fill:#33CC99;}
	.st20{fill:#CE6405;}
	.st21{opacity:0.2;fill:#FFFFFF;}
	.st22{fill:#D3D3D3;}
	.st23{opacity:0.1;}
	.st24{fill:#1C3B59;}
	.st25{fill:#1ABC9C;}
	.st26{opacity:0.2;}
</style>
<g id="Concept_Web">
	<g id="Background_17_">
		<circle id="Background_2_16_" class="st0" cx="753.4" cy="568.8" r="532"/>
	</g>
	<g id="Concept_1_">
		<g id="Coding">
			<g>
				<path class="st1" d="M1127.4,719.9c0,20.4-16.5,36.9-36.9,36.9H353.2c-20.4,0-36.9-16.5-36.9-36.9V263.7
					c0-20.4,16.5-36.9,36.9-36.9h737.4c20.4,0,36.9,16.5,36.9,36.9V719.9z"/>
				<rect x="352.6" y="261.8" class="st2" width="741.8" height="458"/>
				<path class="st3" d="M157.7,754.1c-0.5,3.3-0.7,6.6-0.7,10.1c0,29.1,17.7,52.7,39.5,52.7h1054c21.8,0,39.5-23.6,39.5-52.7
					c0-3.4-0.3-6.8-0.7-10.1H157.7z"/>
				<path class="st4" d="M160.4,785.5c6.1,18.5,20,31.4,36.1,31.4h1054c16.1,0,29.9-12.9,36.1-31.4H160.4z"/>
			</g>
		</g>
		<g id="Text_2_">
			<rect x="402.9" y="299.4" class="st5" width="262.3" height="12.7"/>
			<rect x="402.9" y="317.5" class="st5" width="262.3" height="12.7"/>
			<rect x="402.9" y="336.5" class="st5" width="262.3" height="12.7"/>
			<rect x="402.9" y="355.5" class="st5" width="262.3" height="12.7"/>
		</g>
		<g id="Point_1_">
			<g>
				<polygon class="st6" points="675.4,592.5 673.4,583.7 791.4,558.9 793.5,567.7 				"/>
				<polygon class="st6" points="712.5,466.8 718.8,460.7 804.5,549.7 798.2,555.9 				"/>
				<polygon class="st6" points="704,474 711.8,478.4 654.9,584.8 647.1,580.4 				"/>
				
					<ellipse transform="matrix(0.8051 -0.5932 0.5932 0.8051 -224.0139 498.9546)" class="st7" cx="647.2" cy="590.3" rx="31.7" ry="32.7"/>
				
					<ellipse transform="matrix(0.8051 -0.5932 0.5932 0.8051 -136.6025 515.2667)" class="st8" cx="715.7" cy="465.5" rx="26.3" ry="27.1"/>
				<path class="st9" d="M848.4,533.8c13.5,18.3,10,43.8-7.7,56.9c-17.8,13.1-43.1,8.9-56.6-9.5c-13.5-18.3-10-43.8,7.7-56.9
					C809.6,511.2,834.9,515.5,848.4,533.8z"/>
			</g>
			<g>
				<polygon class="st6" points="934.2,542.3 935.8,539.8 970.3,562.7 968.7,565.2 				"/>
				<g>
					<polygon class="st6" points="973.1,556 970.2,556.4 963.7,515.6 966.6,515.2 					"/>
					<polygon class="st6" points="931.9,539.2 930,536.8 960.8,510.9 962.8,513.2 					"/>
					<path class="st7" d="M966.1,556.2c5-3.1,11.6-1.5,14.9,3.6c3.2,5.1,1.8,11.8-3.2,14.9c-5,3.1-11.7,1.5-14.9-3.6
						C959.7,566,961.1,559.3,966.1,556.2z"/>
					<path class="st8" d="M926.6,530.3c4.1-2.6,9.7-1.3,12.4,3c2.7,4.3,1.5,9.8-2.6,12.4c-4.1,2.6-9.7,1.3-12.4-3
						C921.3,538.5,922.5,532.9,926.6,530.3z"/>
					<path class="st9" d="M956.1,495.5c6.3-3.9,14.7-1.9,18.8,4.6c4.1,6.5,2.3,14.9-4,18.8c-6.3,3.9-14.7,1.9-18.8-4.6
						C948.1,507.8,949.9,499.4,956.1,495.5z"/>
				</g>
			</g>
			<g>
				<polygon class="st6" points="871.9,406.6 866.7,407.3 855,334.5 860.3,333.8 				"/>
				<polygon class="st6" points="798.3,376.5 794.9,372.4 849.9,326 853.4,330.2 				"/>
				<polygon class="st6" points="802.4,382.1 805.2,377.6 866.8,418.5 864,423 				"/>
				<path class="st7" d="M859.4,406.9c8.9-5.6,20.8-2.7,26.6,6.4c5.8,9.1,3.3,21.1-5.6,26.7c-8.9,5.6-20.8,2.7-26.6-6.4
					C848,424.5,850.5,412.5,859.4,406.9z"/>
				<path class="st8" d="M788.9,360.8c7.4-4.6,17.3-2.2,22.1,5.4c4.8,7.6,2.7,17.5-4.7,22.2c-7.4,4.6-17.3,2.2-22.1-5.4
					C779.4,375.3,781.5,365.4,788.9,360.8z"/>
				<path class="st9" d="M841.6,298.5c11.2-7,26.3-3.4,33.6,8.1c7.3,11.5,4.1,26.6-7.1,33.6c-11.2,7.1-26.3,3.4-33.6-8.1
					C827.2,320.6,830.4,305.5,841.6,298.5z"/>
			</g>
		</g>
		<g id="Concept_2_">
			<g id="Board_1_">
				<path class="st5" d="M1069.2,481.3h286.6c10.8,0,19.6,9.5,19.6,21.2v374.2c0,11.7-8.8,21.3-19.6,21.3h-286.6
					c-10.8,0-19.7-9.6-19.7-21.3V502.5C1049.5,490.8,1058.4,481.3,1069.2,481.3L1069.2,481.3z"/>
				<rect x="1065.4" y="499.8" class="st10" width="294.2" height="379.7"/>
				<polygon class="st11" points="1151.4,439.6 1273.6,439.6 1273.6,499.8 1266.8,499.8 1266.8,447.3 1157.8,447.3 1157.8,499.8 
					1151.4,499.8 				"/>
				<path class="st12" d="M1141.7,475.5h141.5c3,0,5.3,2.6,5.3,5.8v27c0,3.2-2.4,5.8-5.3,5.8h-141.5c-2.9,0-5.4-2.6-5.4-5.8v-27
					C1136.4,478.1,1138.8,475.5,1141.7,475.5L1141.7,475.5z"/>
				<path class="st13" d="M1209.1,475.5h74.2c3,0,5.3,2.6,5.3,5.8v27c0,3.2-2.4,5.8-5.3,5.8h-74.2V475.5z"/>
				<path class="st14" d="M1209.1,481.3h146.7c10.8,0,19.6,9.5,19.6,21.2v374.2c0,11.7-8.8,21.3-19.6,21.3h-146.7V481.3z"/>
			</g>
			<g id="Paragraph_1_">
				<rect x="1101.8" y="570.7" class="st15" width="214.4" height="7"/>
				<rect x="1101.8" y="587.3" class="st16" width="214.4" height="7"/>
				<rect x="1101.8" y="602.7" class="st15" width="214.4" height="7"/>
				<rect x="1101.8" y="619.3" class="st15" width="214.4" height="7"/>
				<rect x="1101.8" y="635.6" class="st16" width="214.4" height="6.9"/>
				<rect x="1101.8" y="651" class="st15" width="214.4" height="7"/>
				<rect x="1101.8" y="667.6" class="st15" width="214.4" height="6.9"/>
			</g>
			<g id="Diagram_1_">
				<rect x="1097.3" y="849.3" class="st15" width="214.4" height="5.7"/>
				<path class="st17" d="M1116.5,790.8L1116.5,790.8c3.1,0,5.6,2.3,5.6,5v52h-11.3v-52C1110.9,793.1,1113.4,790.8,1116.5,790.8
					L1116.5,790.8z"/>
				<path class="st18" d="M1138.3,784.7L1138.3,784.7c3.1,0,5.6,2.5,5.6,5.6v57.6h-11.3v-57.6
					C1132.7,787.2,1135.2,784.7,1138.3,784.7L1138.3,784.7z"/>
				<path class="st17" d="M1160.1,791L1160.1,791c3.1,0,5.6,2.3,5.6,5v52.2h-11.3v-52.2C1154.5,793.3,1157,791,1160.1,791
					L1160.1,791z"/>
				<path class="st18" d="M1183.7,761.4L1183.7,761.4c3.1,0,5.6,3.4,5.6,7.6v79.2H1178v-79.2C1178,764.9,1180.5,761.4,1183.7,761.4
					L1183.7,761.4z"/>
				<path class="st17" d="M1206.5,793.6L1206.5,793.6c3.1,0,5.6,2.2,5.6,4.8v49.9h-11.3v-49.9
					C1200.9,795.7,1203.4,793.6,1206.5,793.6L1206.5,793.6z"/>
				<path class="st18" d="M1229.7,815.6L1229.7,815.6c3.1,0,5.6,1.3,5.6,2.9v29.8h-11.2v-29.8
					C1224.1,816.9,1226.7,815.6,1229.7,815.6L1229.7,815.6z"/>
				<path class="st18" d="M1253.7,761.7L1253.7,761.7c3.1,0,5.6,3.4,5.6,7.6v78.9h-11.2v-78.9
					C1248.1,765.2,1250.6,761.7,1253.7,761.7L1253.7,761.7z"/>
				<path class="st19" d="M1274.4,767.5L1274.4,767.5c3.1,0,5.6,3.2,5.6,7.1v73.7h-11.3v-73.7
					C1268.8,770.7,1271.4,767.5,1274.4,767.5L1274.4,767.5z"/>
				<path class="st17" d="M1293.4,747.4L1293.4,747.4c3.1,0,5.6,4,5.6,8.8v92h-11.3v-92C1287.7,751.4,1290.3,747.4,1293.4,747.4
					L1293.4,747.4z"/>
				<rect x="1325.1" y="765.9" class="st17" width="20" height="17.8"/>
				<rect x="1325.1" y="795.5" class="st19" width="20" height="17.8"/>
				<rect x="1325.1" y="825.8" class="st18" width="20" height="17.8"/>
			</g>
		</g>
		<g id="Lens_1_">
			<path class="st20" d="M114.4,963.8c-14.6,17.1-40.4,19.1-57.5,4.4l0,0c-17.1-14.6-19.1-40.4-4.4-57.5l145-169.2
				c14.6-17.1,40.4-19.1,57.5-4.4l0,0c17.1,14.6,19.1,40.4,4.4,57.5L114.4,963.8z"/>
			<path class="st21" d="M120.7,947c-12.4,14.5-34.3,16.2-48.7,3.8l0,0c-14.5-12.4-16.2-34.3-3.8-48.7l123-143.5
				c12.4-14.5,34.3-16.2,48.8-3.8l0,0c14.5,12.4,16.2,34.3,3.8,48.8L120.7,947z"/>
			<path class="st22" d="M514,659.6c-52.6,61.4-144.9,68.5-206.3,15.9c-61.4-52.6-68.5-144.9-15.9-206.3
				c52.6-61.4,144.9-68.5,206.3-15.9C559.5,505.9,566.6,598.3,514,659.6z"/>
			<path class="st23" d="M269.2,768.4c0.1-11.6-4.7-23.1-14.2-31.3c-8.3-7.1-18.6-10.2-28.6-9.7c-0.7,8.5,5.3,20.1,15.9,29.2
				C251.1,764.3,261.2,768.4,269.2,768.4z"/>
			<polygon class="st24" points="301,439.9 301,694.2 363.3,710.7 363.3,411.7 			"/>
			<path class="st25" d="M545,686.1c67.2-78.5,58.1-196.5-20.3-263.8c-78.5-67.2-196.5-58.1-263.8,20.3
				c-62.3,72.7-59,179.3,4.2,248.1l-31.6,36.8c0,0,1.6,35.1,34.9,33.3l33.5-39.1C379.2,771.6,483.4,758,545,686.1z M307.7,675.5
				c-61.4-52.6-68.5-144.9-15.9-206.3c52.6-61.4,144.9-68.5,206.3-15.9c61.4,52.6,68.5,144.9,15.9,206.3
				C461.4,721,369.1,728.1,307.7,675.5z"/>
			<path class="st26" d="M540.7,512.7c-8.4-22.5-22.4-43.2-41.9-59.9c-58.2-49.9-144.3-46-197.8,6.9
				C423.9,394.2,504.4,465.8,540.7,512.7z"/>
		</g>
	</g>
</g>
</svg>
