<svg id="ai-icon" xmlns="http://www.w3.org/2000/svg" width="51.203" height="51.203" viewBox="0 0 51.203 51.203">
  <g id="Group_2126" data-name="Group 2126" transform="translate(0 0)">
    <path id="Path_3210" data-name="Path 3210" d="M13.829,20.91l-.519-1.3a9.109,9.109,0,0,1-4.573,0l-.519,1.3-2.13-.852.528-1.319a8.923,8.923,0,0,1-1.25-.866L4.093,19.145,2.471,17.523,3.8,16.2a8.91,8.91,0,0,1-.492-.765l-1.319.528-.852-2.13,1.3-.519a8.918,8.918,0,0,1,0-4.573l-1.3-.519.852-2.13,1.319.528A8.919,8.919,0,0,1,3.982,5.6L2.471,4.093,4.093,2.471,5.6,3.982a8.919,8.919,0,0,1,1.011-.675L6.088,1.988l2.13-.852.519,1.3a9.109,9.109,0,0,1,4.573,0l.519-1.3,2.13.852-.528,1.319A8.91,8.91,0,0,1,16.2,3.8l1.328-1.328,1.622,1.622L17.873,5.365a8.923,8.923,0,0,1,.866,1.25l1.319-.528.852,2.13-1.3.519a8.918,8.918,0,0,1,0,4.573l1.3.519-.852,2.13-1.319-.528a8.919,8.919,0,0,1-.675,1.011l1.081,1.081-1.622,1.622-1.081-1.081a8.919,8.919,0,0,1-1.011.675l.528,1.319ZM11.023,4.429a6.594,6.594,0,1,0,6.594,6.594A6.6,6.6,0,0,0,11.023,4.429Zm0,10.321a3.727,3.727,0,1,1,3.727-3.727A3.731,3.731,0,0,1,11.023,14.75Zm0-5.161a1.434,1.434,0,1,0,1.434,1.434A1.435,1.435,0,0,0,11.023,9.589Z" transform="translate(-1.136 -0.921)" fill="#d13e3e"/>
    <path id="Path_3210-2" data-name="Path 3210" d="M13.829,20.91l-.519-1.3a9.109,9.109,0,0,1-4.573,0l-.519,1.3-2.13-.852.528-1.319a8.923,8.923,0,0,1-1.25-.866L4.093,19.145,2.471,17.523,3.8,16.2a8.91,8.91,0,0,1-.492-.765l-1.319.528-.852-2.13,1.3-.519a8.918,8.918,0,0,1,0-4.573l-1.3-.519.852-2.13,1.319.528A8.919,8.919,0,0,1,3.982,5.6L2.471,4.093,4.093,2.471,5.6,3.982a8.919,8.919,0,0,1,1.011-.675L6.088,1.988l2.13-.852.519,1.3a9.109,9.109,0,0,1,4.573,0l.519-1.3,2.13.852-.528,1.319A8.91,8.91,0,0,1,16.2,3.8l1.328-1.328,1.622,1.622L17.873,5.365a8.923,8.923,0,0,1,.866,1.25l1.319-.528.852,2.13-1.3.519a8.918,8.918,0,0,1,0,4.573l1.3.519-.852,2.13-1.319-.528a8.919,8.919,0,0,1-.675,1.011l1.081,1.081-1.622,1.622-1.081-1.081a8.919,8.919,0,0,1-1.011.675l.528,1.319ZM11.023,4.429a6.594,6.594,0,1,0,6.594,6.594A6.6,6.6,0,0,0,11.023,4.429Zm0,10.321a3.727,3.727,0,1,1,3.727-3.727A3.731,3.731,0,0,1,11.023,14.75Zm0-5.161a1.434,1.434,0,1,0,1.434,1.434A1.435,1.435,0,0,0,11.023,9.589Z" transform="translate(-1.136 -0.921)" fill="#d13e3e"/>
    <path id="Subtraction_7" data-name="Subtraction 7" d="M11.248,20.2H8.955V11.248H0V8.955H8.955V0h2.293V8.955H20.2v2.293H11.248V20.2ZM10.1,8.573A1.529,1.529,0,1,0,11.631,10.1,1.531,1.531,0,0,0,10.1,8.573Z" fill="#d13e3e"/>
  </g>
  <g id="Group_2127" data-name="Group 2127" transform="translate(31 0)">
    <path id="Path_3210-3" data-name="Path 3210" d="M13.829,20.91l-.519-1.3a9.109,9.109,0,0,1-4.573,0l-.519,1.3-2.13-.852.528-1.319a8.923,8.923,0,0,1-1.25-.866L4.093,19.145,2.471,17.523,3.8,16.2a8.91,8.91,0,0,1-.492-.765l-1.319.528-.852-2.13,1.3-.519a8.918,8.918,0,0,1,0-4.573l-1.3-.519.852-2.13,1.319.528A8.919,8.919,0,0,1,3.982,5.6L2.471,4.093,4.093,2.471,5.6,3.982a8.919,8.919,0,0,1,1.011-.675L6.088,1.988l2.13-.852.519,1.3a9.109,9.109,0,0,1,4.573,0l.519-1.3,2.13.852-.528,1.319A8.91,8.91,0,0,1,16.2,3.8l1.328-1.328,1.622,1.622L17.873,5.365a8.923,8.923,0,0,1,.866,1.25l1.319-.528.852,2.13-1.3.519a8.918,8.918,0,0,1,0,4.573l1.3.519-.852,2.13-1.319-.528a8.919,8.919,0,0,1-.675,1.011l1.081,1.081-1.622,1.622-1.081-1.081a8.919,8.919,0,0,1-1.011.675l.528,1.319ZM11.023,4.429a6.594,6.594,0,1,0,6.594,6.594A6.6,6.6,0,0,0,11.023,4.429Zm0,10.321a3.727,3.727,0,1,1,3.727-3.727A3.731,3.731,0,0,1,11.023,14.75Zm0-5.161a1.434,1.434,0,1,0,1.434,1.434A1.435,1.435,0,0,0,11.023,9.589Z" transform="translate(-1.136 -0.921)" fill="#d13e3e"/>
    <path id="Path_3210-4" data-name="Path 3210" d="M13.829,20.91l-.519-1.3a9.109,9.109,0,0,1-4.573,0l-.519,1.3-2.13-.852.528-1.319a8.923,8.923,0,0,1-1.25-.866L4.093,19.145,2.471,17.523,3.8,16.2a8.91,8.91,0,0,1-.492-.765l-1.319.528-.852-2.13,1.3-.519a8.918,8.918,0,0,1,0-4.573l-1.3-.519.852-2.13,1.319.528A8.919,8.919,0,0,1,3.982,5.6L2.471,4.093,4.093,2.471,5.6,3.982a8.919,8.919,0,0,1,1.011-.675L6.088,1.988l2.13-.852.519,1.3a9.109,9.109,0,0,1,4.573,0l.519-1.3,2.13.852-.528,1.319A8.91,8.91,0,0,1,16.2,3.8l1.328-1.328,1.622,1.622L17.873,5.365a8.923,8.923,0,0,1,.866,1.25l1.319-.528.852,2.13-1.3.519a8.918,8.918,0,0,1,0,4.573l1.3.519-.852,2.13-1.319-.528a8.919,8.919,0,0,1-.675,1.011l1.081,1.081-1.622,1.622-1.081-1.081a8.919,8.919,0,0,1-1.011.675l.528,1.319ZM11.023,4.429a6.594,6.594,0,1,0,6.594,6.594A6.6,6.6,0,0,0,11.023,4.429Zm0,10.321a3.727,3.727,0,1,1,3.727-3.727A3.731,3.731,0,0,1,11.023,14.75Zm0-5.161a1.434,1.434,0,1,0,1.434,1.434A1.435,1.435,0,0,0,11.023,9.589Z" transform="translate(-1.136 -0.921)" fill="#d13e3e"/>
    <path id="Subtraction_7-2" data-name="Subtraction 7" d="M11.248,20.2H8.955V11.248H0V8.955H8.955V0h2.293V8.955H20.2v2.293H11.248V20.2ZM10.1,8.573A1.529,1.529,0,1,0,11.631,10.1,1.531,1.531,0,0,0,10.1,8.573Z" transform="translate(0)" fill="#d13e3e"/>
  </g>
  <g id="Group_2128" data-name="Group 2128" transform="translate(31 31)">
    <path id="Path_3210-5" data-name="Path 3210" d="M13.829,20.91l-.519-1.3a9.109,9.109,0,0,1-4.573,0l-.519,1.3-2.13-.852.528-1.319a8.923,8.923,0,0,1-1.25-.866L4.093,19.145,2.471,17.523,3.8,16.2a8.91,8.91,0,0,1-.492-.765l-1.319.528-.852-2.13,1.3-.519a8.918,8.918,0,0,1,0-4.573l-1.3-.519.852-2.13,1.319.528A8.919,8.919,0,0,1,3.982,5.6L2.471,4.093,4.093,2.471,5.6,3.982a8.919,8.919,0,0,1,1.011-.675L6.088,1.988l2.13-.852.519,1.3a9.109,9.109,0,0,1,4.573,0l.519-1.3,2.13.852-.528,1.319A8.91,8.91,0,0,1,16.2,3.8l1.328-1.328,1.622,1.622L17.873,5.365a8.923,8.923,0,0,1,.866,1.25l1.319-.528.852,2.13-1.3.519a8.918,8.918,0,0,1,0,4.573l1.3.519-.852,2.13-1.319-.528a8.919,8.919,0,0,1-.675,1.011l1.081,1.081-1.622,1.622-1.081-1.081a8.919,8.919,0,0,1-1.011.675l.528,1.319ZM11.023,4.429a6.594,6.594,0,1,0,6.594,6.594A6.6,6.6,0,0,0,11.023,4.429Zm0,10.321a3.727,3.727,0,1,1,3.727-3.727A3.731,3.731,0,0,1,11.023,14.75Zm0-5.161a1.434,1.434,0,1,0,1.434,1.434A1.435,1.435,0,0,0,11.023,9.589Z" transform="translate(-1.136 -0.921)" fill="#d13e3e"/>
    <path id="Path_3210-6" data-name="Path 3210" d="M13.829,20.91l-.519-1.3a9.109,9.109,0,0,1-4.573,0l-.519,1.3-2.13-.852.528-1.319a8.923,8.923,0,0,1-1.25-.866L4.093,19.145,2.471,17.523,3.8,16.2a8.91,8.91,0,0,1-.492-.765l-1.319.528-.852-2.13,1.3-.519a8.918,8.918,0,0,1,0-4.573l-1.3-.519.852-2.13,1.319.528A8.919,8.919,0,0,1,3.982,5.6L2.471,4.093,4.093,2.471,5.6,3.982a8.919,8.919,0,0,1,1.011-.675L6.088,1.988l2.13-.852.519,1.3a9.109,9.109,0,0,1,4.573,0l.519-1.3,2.13.852-.528,1.319A8.91,8.91,0,0,1,16.2,3.8l1.328-1.328,1.622,1.622L17.873,5.365a8.923,8.923,0,0,1,.866,1.25l1.319-.528.852,2.13-1.3.519a8.918,8.918,0,0,1,0,4.573l1.3.519-.852,2.13-1.319-.528a8.919,8.919,0,0,1-.675,1.011l1.081,1.081-1.622,1.622-1.081-1.081a8.919,8.919,0,0,1-1.011.675l.528,1.319ZM11.023,4.429a6.594,6.594,0,1,0,6.594,6.594A6.6,6.6,0,0,0,11.023,4.429Zm0,10.321a3.727,3.727,0,1,1,3.727-3.727A3.731,3.731,0,0,1,11.023,14.75Zm0-5.161a1.434,1.434,0,1,0,1.434,1.434A1.435,1.435,0,0,0,11.023,9.589Z" transform="translate(-1.136 -0.921)" fill="#d13e3e"/>
    <path id="Subtraction_7-3" data-name="Subtraction 7" d="M11.248,20.2H8.955V11.248H0V8.955H8.955V0h2.293V8.955H20.2v2.293H11.248V20.2ZM10.1,8.573A1.529,1.529,0,1,0,11.631,10.1,1.531,1.531,0,0,0,10.1,8.573Z" transform="translate(0 0)" fill="#d13e3e"/>
  </g>
  <g id="Group_2129" data-name="Group 2129" transform="translate(0 31)">
    <path id="Path_3210-7" data-name="Path 3210" d="M13.829,20.91l-.519-1.3a9.109,9.109,0,0,1-4.573,0l-.519,1.3-2.13-.852.528-1.319a8.923,8.923,0,0,1-1.25-.866L4.093,19.145,2.471,17.523,3.8,16.2a8.91,8.91,0,0,1-.492-.765l-1.319.528-.852-2.13,1.3-.519a8.918,8.918,0,0,1,0-4.573l-1.3-.519.852-2.13,1.319.528A8.919,8.919,0,0,1,3.982,5.6L2.471,4.093,4.093,2.471,5.6,3.982a8.919,8.919,0,0,1,1.011-.675L6.088,1.988l2.13-.852.519,1.3a9.109,9.109,0,0,1,4.573,0l.519-1.3,2.13.852-.528,1.319A8.91,8.91,0,0,1,16.2,3.8l1.328-1.328,1.622,1.622L17.873,5.365a8.923,8.923,0,0,1,.866,1.25l1.319-.528.852,2.13-1.3.519a8.918,8.918,0,0,1,0,4.573l1.3.519-.852,2.13-1.319-.528a8.919,8.919,0,0,1-.675,1.011l1.081,1.081-1.622,1.622-1.081-1.081a8.919,8.919,0,0,1-1.011.675l.528,1.319ZM11.023,4.429a6.594,6.594,0,1,0,6.594,6.594A6.6,6.6,0,0,0,11.023,4.429Zm0,10.321a3.727,3.727,0,1,1,3.727-3.727A3.731,3.731,0,0,1,11.023,14.75Zm0-5.161a1.434,1.434,0,1,0,1.434,1.434A1.435,1.435,0,0,0,11.023,9.589Z" transform="translate(-1.136 -0.921)" fill="#d13e3e"/>
    <path id="Path_3210-8" data-name="Path 3210" d="M13.829,20.91l-.519-1.3a9.109,9.109,0,0,1-4.573,0l-.519,1.3-2.13-.852.528-1.319a8.923,8.923,0,0,1-1.25-.866L4.093,19.145,2.471,17.523,3.8,16.2a8.91,8.91,0,0,1-.492-.765l-1.319.528-.852-2.13,1.3-.519a8.918,8.918,0,0,1,0-4.573l-1.3-.519.852-2.13,1.319.528A8.919,8.919,0,0,1,3.982,5.6L2.471,4.093,4.093,2.471,5.6,3.982a8.919,8.919,0,0,1,1.011-.675L6.088,1.988l2.13-.852.519,1.3a9.109,9.109,0,0,1,4.573,0l.519-1.3,2.13.852-.528,1.319A8.91,8.91,0,0,1,16.2,3.8l1.328-1.328,1.622,1.622L17.873,5.365a8.923,8.923,0,0,1,.866,1.25l1.319-.528.852,2.13-1.3.519a8.918,8.918,0,0,1,0,4.573l1.3.519-.852,2.13-1.319-.528a8.919,8.919,0,0,1-.675,1.011l1.081,1.081-1.622,1.622-1.081-1.081a8.919,8.919,0,0,1-1.011.675l.528,1.319ZM11.023,4.429a6.594,6.594,0,1,0,6.594,6.594A6.6,6.6,0,0,0,11.023,4.429Zm0,10.321a3.727,3.727,0,1,1,3.727-3.727A3.731,3.731,0,0,1,11.023,14.75Zm0-5.161a1.434,1.434,0,1,0,1.434,1.434A1.435,1.435,0,0,0,11.023,9.589Z" transform="translate(-1.136 -0.921)" fill="#d13e3e"/>
    <path id="Subtraction_7-4" data-name="Subtraction 7" d="M11.248,20.2H8.955V11.248H0V8.955H8.955V0h2.293V8.955H20.2v2.293H11.248V20.2ZM10.1,8.573A1.529,1.529,0,1,0,11.631,10.1,1.531,1.531,0,0,0,10.1,8.573Z" transform="translate(0 0)" fill="#d13e3e"/>
  </g>
  <path id="Subtraction_53" data-name="Subtraction 53" d="M13.352,19.437a.681.681,0,0,1-.679-.68V16.972H10.4v1.785a.68.68,0,1,1-1.36,0V16.972H6.765v1.785a.68.68,0,0,1-1.361,0V16.972h-.94a2,2,0,0,1-2-2v-.94H.679a.68.68,0,0,1,0-1.36H2.465V10.4H.679a.68.68,0,0,1,0-1.36H2.465V6.765H.679a.68.68,0,0,1,0-1.361H2.465v-.94a2,2,0,0,1,2-2H5.4V.679a.68.68,0,0,1,1.361,0V2.465H9.039V.679a.68.68,0,0,1,1.36,0V2.465h2.274V.679a.68.68,0,0,1,1.36,0V2.465h.94a2,2,0,0,1,2,2V5.4h1.785a.68.68,0,0,1,0,1.361H16.972V9.039h1.785a.68.68,0,1,1,0,1.36H16.972v2.274h1.785a.68.68,0,1,1,0,1.36H16.972v.94a2,2,0,0,1-2,2h-.94v1.785A.681.681,0,0,1,13.352,19.437ZM13.51,5.244a.422.422,0,0,0-.421.421v6.958a.421.421,0,0,0,.842,0V5.665A.422.422,0,0,0,13.51,5.244ZM5.928,10.931H9.49l.7,1.587a.422.422,0,0,0,.778-.018.415.415,0,0,0-.008-.321L8.138,5.771a.421.421,0,0,0-.769-.006L4.432,12.172a.422.422,0,0,0,.207.559.417.417,0,0,0,.176.038.423.423,0,0,0,.383-.246l.73-1.592Zm3.19-.842h-2.8l1.43-3.12,1.374,3.119Z" transform="translate(15.36 15.42)" fill="#d13e3e"/>
</svg>
