<svg id="ar-icon" xmlns="http://www.w3.org/2000/svg" width="54.147" height="58.502" viewBox="0 0 54.147 58.502">
  <path id="Subtraction_58" data-name="Subtraction 58" d="M23.568,38.13h-.284a30.157,30.157,0,0,1-9.767-1.636,25.529,25.529,0,0,1-6.628-3.476A20.408,20.408,0,0,1,1.926,28L0,10.576a11.485,11.485,0,0,0,3.188,4.076,21.6,21.6,0,0,0,5.377,3.243,34.067,34.067,0,0,0,7.072,2.143,43.555,43.555,0,0,0,8.269.775,44.831,44.831,0,0,0,5.362-.319,21.3,21.3,0,0,0,7.963,1.529,21.22,21.22,0,0,0,9.21-2.077L45.281,28a22.147,22.147,0,0,1-5.217,5.064,26.61,26.61,0,0,1-6.758,3.482,29.655,29.655,0,0,1-9.737,1.583h0ZM18.409,18.717h0a33.68,33.68,0,0,1-12.6-4.791,15.846,15.846,0,0,1-3.636-3.211,5.219,5.219,0,0,1-1.3-3.077C.869,4.3,6.74,1.306,15.826,0c-.005.193-.009.4-.009.61A21.406,21.406,0,0,0,18.667,11.29l-.258,7.426Z" transform="translate(0 20.373)" fill="#d13e3e"/>
  <g id="Group_2131" data-name="Group 2131" transform="translate(23.221 7.764)">
    <path id="Path_3210" data-name="Path 3210" d="M20.566,31.406l-.794-1.986a13.944,13.944,0,0,1-7,0l-.794,1.986-3.26-1.3.808-2.02A13.66,13.66,0,0,1,7.61,26.756L5.662,28.7,3.18,26.221l2.033-2.033a13.638,13.638,0,0,1-.753-1.17l-2.02.808-1.3-3.26,1.986-.794a13.652,13.652,0,0,1,0-7l-1.986-.794,1.3-3.26,2.02.808A13.652,13.652,0,0,1,5.493,7.976L3.18,5.662,5.662,3.18,7.976,5.493A13.652,13.652,0,0,1,9.524,4.459L8.716,2.44l3.26-1.3.794,1.986a13.944,13.944,0,0,1,7,0l.794-1.986,3.26,1.3-.808,2.02a13.638,13.638,0,0,1,1.17.753L26.221,3.18,28.7,5.662,26.756,7.61a13.66,13.66,0,0,1,1.326,1.914l2.02-.808,1.3,3.26-1.986.794a13.652,13.652,0,0,1,0,7l1.986.794-1.3,3.26-2.02-.808a13.653,13.653,0,0,1-1.034,1.548L28.7,26.221,26.221,28.7l-1.655-1.655a13.653,13.653,0,0,1-1.548,1.034l.808,2.02ZM16.271,6.177A10.094,10.094,0,1,0,26.365,16.271,10.106,10.106,0,0,0,16.271,6.177Zm0,15.8a5.705,5.705,0,1,1,5.705-5.705A5.712,5.712,0,0,1,16.271,21.976Zm0-7.9a2.194,2.194,0,1,0,2.194,2.194A2.2,2.2,0,0,0,16.271,14.077Z" transform="translate(-1.136 -0.808)" fill="#d13e3e"/>
    <path id="Path_3210-2" data-name="Path 3210" d="M20.566,31.406l-.794-1.986a13.944,13.944,0,0,1-7,0l-.794,1.986-3.26-1.3.808-2.02A13.66,13.66,0,0,1,7.61,26.756L5.662,28.7,3.18,26.221l2.033-2.033a13.638,13.638,0,0,1-.753-1.17l-2.02.808-1.3-3.26,1.986-.794a13.652,13.652,0,0,1,0-7l-1.986-.794,1.3-3.26,2.02.808A13.652,13.652,0,0,1,5.493,7.976L3.18,5.662,5.662,3.18,7.976,5.493A13.652,13.652,0,0,1,9.524,4.459L8.716,2.44l3.26-1.3.794,1.986a13.944,13.944,0,0,1,7,0l.794-1.986,3.26,1.3-.808,2.02a13.638,13.638,0,0,1,1.17.753L26.221,3.18,28.7,5.662,26.756,7.61a13.66,13.66,0,0,1,1.326,1.914l2.02-.808,1.3,3.26-1.986.794a13.652,13.652,0,0,1,0,7l1.986.794-1.3,3.26-2.02-.808a13.653,13.653,0,0,1-1.034,1.548L28.7,26.221,26.221,28.7l-1.655-1.655a13.653,13.653,0,0,1-1.548,1.034l.808,2.02ZM16.271,6.177A10.094,10.094,0,1,0,26.365,16.271,10.106,10.106,0,0,0,16.271,6.177Zm0,15.8a5.705,5.705,0,1,1,5.705-5.705A5.712,5.712,0,0,1,16.271,21.976Zm0-7.9a2.194,2.194,0,1,0,2.194,2.194A2.2,2.2,0,0,0,16.271,14.077Z" transform="translate(-1.136 -0.808)" fill="#d13e3e"/>
    <path id="Subtraction_7" data-name="Subtraction 7" d="M17.219,30.926H13.708V17.219H0V13.708H13.708V0h3.511V13.708H30.926v3.511H17.219V30.926Zm-1.755-17.8a2.341,2.341,0,1,0,2.341,2.34A2.343,2.343,0,0,0,15.463,13.123Z" transform="translate(0 0)" fill="#d13e3e"/>
  </g>
  <g id="Group_2133" data-name="Group 2133" transform="translate(6.748 0)">
    <path id="Path_3210-3" data-name="Path 3210" d="M11.906,17.915l-.44-1.1a7.729,7.729,0,0,1-3.881,0l-.44,1.1-1.807-.723.448-1.119a7.572,7.572,0,0,1-1.061-.735l-1.08,1.08L2.269,15.041,3.4,13.914a7.56,7.56,0,0,1-.417-.649l-1.119.448-.723-1.807,1.1-.44a7.567,7.567,0,0,1,0-3.881l-1.1-.44.723-1.807,1.119.448a7.568,7.568,0,0,1,.573-.858L2.269,3.645,3.645,2.269,4.928,3.551a7.568,7.568,0,0,1,.858-.573L5.338,1.859l1.807-.723.44,1.1a7.729,7.729,0,0,1,3.881,0l.44-1.1,1.807.723-.448,1.119a7.56,7.56,0,0,1,.649.417l1.127-1.127,1.376,1.376-1.08,1.08a7.572,7.572,0,0,1,.735,1.061l1.119-.448.723,1.807-1.1.44a7.567,7.567,0,0,1,0,3.881l1.1.44-.723,1.807-1.119-.448a7.568,7.568,0,0,1-.573.858l.918.918-1.376,1.376-.918-.918a7.568,7.568,0,0,1-.858.573l.448,1.119ZM9.526,3.93a5.6,5.6,0,1,0,5.6,5.6A5.6,5.6,0,0,0,9.526,3.93Zm0,8.758a3.163,3.163,0,1,1,3.163-3.163A3.166,3.166,0,0,1,9.526,12.688Zm0-4.379a1.216,1.216,0,1,0,1.216,1.216A1.218,1.218,0,0,0,9.526,8.309Z" transform="translate(-1.136 -0.954)" fill="#d13e3e"/>
    <path id="Path_3210-4" data-name="Path 3210" d="M11.906,17.915l-.44-1.1a7.729,7.729,0,0,1-3.881,0l-.44,1.1-1.807-.723.448-1.119a7.572,7.572,0,0,1-1.061-.735l-1.08,1.08L2.269,15.041,3.4,13.914a7.56,7.56,0,0,1-.417-.649l-1.119.448-.723-1.807,1.1-.44a7.567,7.567,0,0,1,0-3.881l-1.1-.44.723-1.807,1.119.448a7.568,7.568,0,0,1,.573-.858L2.269,3.645,3.645,2.269,4.928,3.551a7.568,7.568,0,0,1,.858-.573L5.338,1.859l1.807-.723.44,1.1a7.729,7.729,0,0,1,3.881,0l.44-1.1,1.807.723-.448,1.119a7.56,7.56,0,0,1,.649.417l1.127-1.127,1.376,1.376-1.08,1.08a7.572,7.572,0,0,1,.735,1.061l1.119-.448.723,1.807-1.1.44a7.567,7.567,0,0,1,0,3.881l1.1.44-.723,1.807-1.119-.448a7.568,7.568,0,0,1-.573.858l.918.918-1.376,1.376-.918-.918a7.568,7.568,0,0,1-.858.573l.448,1.119ZM9.526,3.93a5.6,5.6,0,1,0,5.6,5.6A5.6,5.6,0,0,0,9.526,3.93Zm0,8.758a3.163,3.163,0,1,1,3.163-3.163A3.166,3.166,0,0,1,9.526,12.688Zm0-4.379a1.216,1.216,0,1,0,1.216,1.216A1.218,1.218,0,0,0,9.526,8.309Z" transform="translate(-1.136 -0.954)" fill="#d13e3e"/>
    <path id="Subtraction_7-2" data-name="Subtraction 7" d="M9.545,17.143H7.6v-7.6H0V7.6H7.6V0H9.545V7.6h7.6V9.545h-7.6v7.6ZM8.572,7.274a1.3,1.3,0,1,0,1.3,1.3A1.3,1.3,0,0,0,8.572,7.274Z" transform="translate(0)" fill="#d13e3e"/>
  </g>
</svg>
