<svg id="ibeacons-icon" xmlns="http://www.w3.org/2000/svg" width="48.733" height="52.638" viewBox="0 0 48.733 52.638">
  <path id="Path_3431" data-name="Path 3431" d="M-4200.116,189.95l-2.809-15.5,6.3-13.467,2.436-11.234,7.23-4.371,7.914,13.1,4.606,15.969-2.625,15.5Z" transform="translate(4223.169 -137.312)" fill="#d13e3e"/>
  <path id="Subtraction_52" data-name="Subtraction 52" d="M13.415,37.868h0L9.381,36.254l1-2.5a16.97,16.97,0,0,1-2.368-1.642L5.6,34.523,2.53,31.451l2.516-2.516a16.886,16.886,0,0,1-.932-1.448l-2.5,1L0,24.452l2.458-.984a16.842,16.842,0,0,1-.425-2.159H0V16.964H2.033A16.842,16.842,0,0,1,2.458,14.8L0,13.821,1.614,9.787l2.5,1a16.922,16.922,0,0,1,1.28-1.915L2.53,6.008,5.6,2.936,8.465,5.8a17.037,17.037,0,0,1,1.915-1.28l-1-2.5L13.415.406,14.4,2.864A16.421,16.421,0,0,1,16.964,2.4V0h4.345V2.5a16.056,16.056,0,0,1,1.753.362L24.046.406,28.08,2.02l-1,2.5a16.989,16.989,0,0,1,1.449.932l2.515-2.516.675.675-5.2,3.146L26.028,9a12.369,12.369,0,0,0-4.718-2.091v5.652a7.146,7.146,0,0,1,3.351,2.744l-1.184,5.46L16.435,35.811a16.256,16.256,0,0,1-2.037-.4l-.982,2.457ZM6.428,21.309A12.522,12.522,0,0,0,16.964,31.5V25.973a7.091,7.091,0,0,1-4.953-4.664Zm12.3-4.888a2.68,2.68,0,0,0-1.044.209,2.9,2.9,0,0,0,0,5.011,2.681,2.681,0,0,0,1.048.211,2.715,2.715,0,0,0,0-5.431ZM16.964,6.769a12.523,12.523,0,0,0-10.536,10.2h5.584A7.091,7.091,0,0,1,16.964,12.3V6.769Z" fill="#d13e3e"/>
</svg>
