<svg id="cloud-based-solutions-icon" xmlns="http://www.w3.org/2000/svg" width="59.894" height="43.679" viewBox="0 0 59.894 43.679">
  <path id="Path_3429" data-name="Path 3429" d="M37.13,40.5H12.75A13.211,13.211,0,0,1,3.8,37.18,11.553,11.553,0,0,1,0,28.5a11.238,11.238,0,0,1,3.63-8.55,13.818,13.818,0,0,1,6.49-3.18,1.465,1.465,0,0,0,1.06-.86,14.629,14.629,0,0,1,3.94-5.24A13.676,13.676,0,0,1,24,7.5a14.386,14.386,0,0,1,10.04,4.02,16.443,16.443,0,0,1,4.62,8.63,1.493,1.493,0,0,0,1.13,1.16c4.27.95,8.21,4.04,8.21,9.44a9.118,9.118,0,0,1-3.32,7.43A11.965,11.965,0,0,1,37.13,40.5Z" transform="translate(0 3.179)" fill="#d13e3e"/>
  <path id="Subtraction_51" data-name="Subtraction 51" d="M26.687,31.179h0l-1.848-1.85c-.12.092-.237.18-.347.26a8.012,8.012,0,0,0-1.722-3.627,11.3,11.3,0,0,0,3.909-6.717H21.635a6.438,6.438,0,0,1-3.182,3.724,14.033,14.033,0,0,0-2.276-.67,1.493,1.493,0,0,1-1.167-1.108,17.1,17.1,0,0,0-.476-1.7l.085.052a2.453,2.453,0,1,0,.006-4.527,2.613,2.613,0,0,0-1.269,1.811A14.94,14.94,0,0,0,10.6,13.283a6.434,6.434,0,0,1,3.368-2.176V6.113a11.159,11.159,0,0,0-4.2,1.493,11.31,11.31,0,0,0-3.242,2.93,15.7,15.7,0,0,0-3.921-1.2,15.43,15.43,0,0,1,.913-1.321L.935,5.426,3.711,2.651,6.3,5.237A15.33,15.33,0,0,1,8.026,4.081l-.9-2.257L10.767.367l.888,2.22a14.832,14.832,0,0,1,2.318-.419V0H17.9V2.26a14.655,14.655,0,0,1,1.584.327l.888-2.22,3.644,1.457-.9,2.257a15.378,15.378,0,0,1,1.308.842l2.272-2.272,2.776,2.775L27.286,7.6a15.344,15.344,0,0,1,1.483,2.139l2.256-.9,1.459,3.644-2.22.888a15.214,15.214,0,0,1,.384,1.951h2.569v3.924H30.647a15.172,15.172,0,0,1-.384,1.95l2.22.888-1.459,3.644-2.256-.9a15.534,15.534,0,0,1-1.156,1.73l1.851,1.85-2.776,2.774ZM17.9,6.242v5.1a6.409,6.409,0,0,1,3.74,3.975h5.043A11.313,11.313,0,0,0,17.9,6.242ZM.847,9.136C.566,9.12.281,9.112,0,9.111l.109-.272.738.3Z" transform="translate(26.678)" fill="#d13e3e"/>
</svg>
