<svg id="kinect-enabled-games-icon" xmlns="http://www.w3.org/2000/svg" width="56" height="42.799" viewBox="0 0 56 42.799">
  <path id="Subtraction_60" data-name="Subtraction 60" d="M32.775,17H23.225a1,1,0,0,1-.643-1.766L24.529,13.6H2a2,2,0,0,1-2-2V2A2,2,0,0,1,2,0H54a2,2,0,0,1,2,2v9.6a2,2,0,0,1-2,2H31.471l1.948,1.634A1,1,0,0,1,32.775,17ZM38.656,5.342a1.6,1.6,0,0,0-1.462,1.7,1.479,1.479,0,1,0,2.926,0A1.6,1.6,0,0,0,38.656,5.342Zm-7.522,0a1.6,1.6,0,0,0-1.462,1.7,1.479,1.479,0,1,0,2.925,0A1.6,1.6,0,0,0,31.134,5.342Zm-13.373,0a1.6,1.6,0,0,0-1.462,1.7,1.6,1.6,0,0,0,1.462,1.7,1.6,1.6,0,0,0,1.462-1.7A1.6,1.6,0,0,0,17.761,5.342Zm6.687.971a.685.685,0,0,0-.627.729.634.634,0,1,0,1.254,0A.684.684,0,0,0,24.448,6.314Z" transform="translate(0 25.799)" fill="#d13e3e"/>
  <path id="Path_3451" data-name="Path 3451" d="M26.689,27.467a8.536,8.536,0,0,0-11.354,0,1.3,1.3,0,0,0-.429,1.26,1.314,1.314,0,0,0,2.178.71,5.9,5.9,0,0,1,7.849,0,1.32,1.32,0,1,0,1.756-1.971Z" transform="translate(6.92 -14.465)" fill="#d13e3e"/>
  <path id="Path_3452" data-name="Path 3452" d="M19.12,17.22a13.911,13.911,0,0,0-9.544,3.767,1.32,1.32,0,0,0,.509,2.245,1.3,1.3,0,0,0,1.294-.322,11.337,11.337,0,0,1,15.476,0,1.317,1.317,0,0,0,2.205-.65,1.316,1.316,0,0,0-.4-1.273A13.907,13.907,0,0,0,19.12,17.22Z" transform="translate(8.839 -11.799)" fill="#d13e3e"/>
  <path id="Path_3453" data-name="Path 3453" d="M30.364,14.064a19.406,19.406,0,0,0-25.851,0,1.32,1.32,0,1,0,1.763,1.964,16.771,16.771,0,0,1,22.333,0,1.317,1.317,0,0,0,1.863-.1,1.331,1.331,0,0,0-.107-1.87Z" transform="translate(10.587 -9.132)" fill="#d13e3e"/>
  <path id="Path_3454" data-name="Path 3454" d="M25.051,35.891a2.011,2.011,0,1,1-2.011-2.011A2.012,2.012,0,0,1,25.051,35.891Z" transform="translate(5.062 -17.293)" fill="#d13e3e"/>
</svg>
