<svg id="project-management-icon" xmlns="http://www.w3.org/2000/svg" width="55.398" height="49.354" viewBox="0 0 55.398 49.354">
  <path id="Subtraction_50" data-name="Subtraction 50" d="M17.45,24.341H13.992V21.606a13.766,13.766,0,0,1-1.715-.332L11.5,23.195,8.29,21.934l.8-1.954a13.449,13.449,0,0,1-1.524-1l-1.627,1.6-2.442-2.4,1.629-1.6a13.317,13.317,0,0,1-1.018-1.5l-1.986.781L.834,12.708l1.953-.768A12.394,12.394,0,0,1,2.5,10.569H0l0-3.4H2.419a12.525,12.525,0,0,1,.368-2.005L.834,4.4,2.117,1.244,4.1,2.027A13.207,13.207,0,0,1,5.408.175L5.231,0h5.7A9.978,9.978,0,0,0,8.593,1.762a9.636,9.636,0,0,0-2.7,5.41h4.4a5.607,5.607,0,0,1,3.7-3.871V0H17.45V3.3a5.615,5.615,0,0,1,3.706,3.871h4.395a9.624,9.624,0,0,0-2.7-5.411A9.971,9.971,0,0,0,20.516,0h5.454V20.4l-1.729-1.7a13.563,13.563,0,0,1-1.882,1.283l.795,1.954-3.207,1.261-.782-1.921a13.678,13.678,0,0,1-1.714.332V24.34Zm3.5-13.773h0a5.567,5.567,0,0,1-3.5,3.236v4.366a9.944,9.944,0,0,0,5.178-2.607,9.689,9.689,0,0,0,2.811-4.995Zm-14.94,0h0a9.68,9.68,0,0,0,2.811,4.995,9.948,9.948,0,0,0,5.176,2.607V13.805a5.568,5.568,0,0,1-3.5-3.236Zm9.716-3.963A2.325,2.325,0,0,0,13.731,7.73a2.076,2.076,0,0,0-.168.823,2.159,2.159,0,0,0,4.316,0,2.079,2.079,0,0,0-.172-.831A2.326,2.326,0,0,0,15.722,6.606Z" transform="translate(0 25.012)" fill="#d13e3e"/>
  <path id="Subtraction_47" data-name="Subtraction 47" d="M22.64,19.947H2a2,2,0,0,1-2-2V2A2,2,0,0,1,2,0H22.64a2,2,0,0,1,2,2V17.946A2,2,0,0,1,22.64,19.947ZM8.978,4.96h0L3.964,13.316v3.343H20.676V9.973l-4.829,3.343L8.978,4.96Zm9.192-1.671A2.507,2.507,0,1,0,20.676,5.8,2.51,2.51,0,0,0,18.169,3.289Z" transform="translate(3.772 1.229)" fill="#d13e3e"/>
  <path id="Subtraction_49" data-name="Subtraction 49" d="M22.64,19.947H2a2,2,0,0,1-2-2V2A2,2,0,0,1,2,0H22.64a2,2,0,0,1,2,2V17.946A2,2,0,0,1,22.64,19.947ZM9.215,5.4a1,1,0,0,0-1,1v7.14a1,1,0,0,0,1.49.871l6.347-3.569a1,1,0,0,0,0-1.743L9.7,5.531A.988.988,0,0,0,9.215,5.4Z" transform="translate(30.759 25.868)" fill="#d13e3e"/>
  <path id="Subtraction_48" data-name="Subtraction 48" d="M2.906,23.522a.927.927,0,0,1-.554-.153,1.307,1.307,0,0,1-.468-.986l1.2-4.285a10.56,10.56,0,0,1,.068-14.98,10.817,10.817,0,0,1,15.207,0A10.6,10.6,0,0,1,20.66,6.5a10.574,10.574,0,0,1,0,8.284,10.6,10.6,0,0,1-2.3,3.382,10.776,10.776,0,0,1-7.6,3.117,10.876,10.876,0,0,1-3-.42L3.672,23.368A2.348,2.348,0,0,1,2.906,23.522ZM15.4,9.19A1.209,1.209,0,1,0,16.617,10.4,1.217,1.217,0,0,0,15.4,9.19Zm-4.4,0A1.209,1.209,0,1,0,12.218,10.4,1.217,1.217,0,0,0,11,9.19Zm-4.4,0A1.209,1.209,0,1,0,7.82,10.4,1.217,1.217,0,0,0,6.6,9.19Z" transform="translate(32.442)" fill="#d13e3e"/>
</svg>
