<svg xmlns="http://www.w3.org/2000/svg" width="57.626" height="43.489" viewBox="0 0 57.626 43.489">
  <g id="website-icon" transform="translate(-1027.374 -3820.511)">
    <g id="Group_2040" data-name="Group 2040" transform="translate(498.734 25.092)">
      <path id="Subtraction_34" data-name="Subtraction 34" d="M37,34H3a3,3,0,0,1-3-3V9.917H40V31A3,3,0,0,1,37,34ZM20.466,17a.869.869,0,0,0-.837.65l-1.638,6.188a.878.878,0,0,0,.615,1.073.852.852,0,0,0,.225.031.87.87,0,0,0,.838-.651L21.307,18.1a.877.877,0,0,0-.615-1.073A.862.862,0,0,0,20.466,17Zm2.69,0a.859.859,0,0,0-.6.24.883.883,0,0,0-.033,1.239l2.4,2.552L22.558,23.3a.883.883,0,0,0-.031,1.239.853.853,0,0,0,.629.273.865.865,0,0,0,.6-.24L26.747,21.7a.884.884,0,0,0,.032-1.238l-2.993-3.188A.857.857,0,0,0,23.156,17Zm-7.013,0a.856.856,0,0,0-.63.273l-2.993,3.189A.883.883,0,0,0,12.55,21.7l2.993,2.871a.865.865,0,0,0,1.229-.032A.884.884,0,0,0,16.74,23.3l-2.364-2.267,2.4-2.553a.884.884,0,0,0-.032-1.239A.863.863,0,0,0,16.142,17ZM0,8.5H0V3A3,3,0,0,1,3,0H37a3,3,0,0,1,3,3V8.5H0ZM17.911,2.125a1.771,1.771,0,0,0,0,3.541H36.123a1.771,1.771,0,1,0,0-3.541Zm-6.332,0A1.771,1.771,0,1,0,13.333,3.9,1.765,1.765,0,0,0,11.578,2.125Zm-6.315,0A1.771,1.771,0,1,0,7.017,3.9,1.765,1.765,0,0,0,5.263,2.125Z" transform="translate(546.266 3804.908)" fill="#d13e3e"/>
    </g>
    <path id="Subtraction_42" data-name="Subtraction 42" d="M15.773,12.252H12.557V10.43a11.862,11.862,0,0,1-1.9-.351L9.93,11.944,6.944,10.719l.741-1.9A12.544,12.544,0,0,1,5.931,7.578L4.146,9.407,1.872,7.075,3.734,5.167a12.873,12.873,0,0,1-.689-1.1l-1.85.758L0,1.766,1.82,1.02A13.158,13.158,0,0,1,1.5-.618H0v-3.3H1.5A12.983,12.983,0,0,1,1.82-5.553L0-6.3l1.194-3.06,1.85.758a12.863,12.863,0,0,1,.947-1.453l-2.12-2.173,2.274-2.33,2.119,2.172c.219-.172.443-.337.664-.49v4.346A9.552,9.552,0,0,0,4.758-3.914H6.93v1.648h5.091a2.216,2.216,0,0,0,1.073,1.9,1.95,1.95,0,0,0,.77.158,2.038,2.038,0,0,0,2.01-2.061H28.33V-.618H26.224a13,13,0,0,1-.315,1.638l1.82.746-1.194,3.06-1.85-.758a12.864,12.864,0,0,1-.947,1.453l1.516,1.554L22.979,9.407,21.463,7.853a12.748,12.748,0,0,1-1.418.971l.74,1.9L17.8,11.944l-.727-1.865a11.7,11.7,0,0,1-1.3.274v1.9ZM4.758-.618A9.487,9.487,0,0,0,7.433,4.536a9.091,9.091,0,0,0,5.124,2.58V2.92A5.334,5.334,0,0,1,8.891-.618Zm14.08,0h0a5.3,5.3,0,0,1-3.065,3.339V7.008A9.152,9.152,0,0,0,20.5,4.324,9.514,9.514,0,0,0,22.971-.618H18.838Z" transform="translate(1039.625 3820.511) rotate(90)" fill="#d13e3e"/>
  </g>
</svg>
