<?xml version="1.0" encoding="utf-8"?>
<!-- Generator: Adobe Illustrator 20.1.0, SVG Export Plug-In . SVG Version: 6.00 Build 0)  -->
<svg version="1.1" id="Layer_1" xmlns="http://www.w3.org/2000/svg" xmlns:xlink="http://www.w3.org/1999/xlink" x="0px" y="0px"
	 viewBox="0 0 100 100" style="enable-background:new 0 0 100 100;" xml:space="preserve">
<style type="text/css">
	.st0{fill:#FFFFFF;}
</style>
<g>
	<path class="st0" d="M39.1,15.6c-0.3-1.1-0.5-2.1-0.8-3c-0.3-0.9,0-1.5,0.8-1.9c0.3-0.1,0.5-0.3,0.7-0.4c0.7-0.5,1.2-0.3,1.8,0.3
		c0.6,0.7,1.2,1.3,1.9,1.9c0.4,0.3,1,0.4,1.5,0.4c0.4,0,0.9-0.1,1.3-0.3c0.4-0.2,0.9-0.6,1-1c0.3-0.9,0.5-1.8,0.7-2.7
		c0.2-0.8,0.6-1.2,1.4-1.1c0.4,0,0.8,0,1.2,0c0.7,0,1.1,0.3,1.2,0.9c0.2,0.9,0.5,1.8,0.7,2.7c0.2,0.7,0.6,1,1.3,1.2
		c1.5,0.6,2.7,0.3,3.6-1c0.2-0.3,0.4-0.5,0.7-0.7c1.1-1.1,1.1-1.1,2.5-0.3c1.4,0.8,1.4,0.8,1,2.4c-0.1,0.3-0.2,0.6-0.3,0.9
		c-0.6,2.2-0.5,2.5,1.3,3.8c0.3,0.2,0.8,0.3,1.2,0.2c0.9-0.2,1.8-0.4,2.7-0.7c0.7-0.2,1.2-0.1,1.6,0.6c0.2,0.3,0.4,0.7,0.6,1
		c0.4,0.6,0.4,1.2-0.2,1.7c-0.7,0.6-1.4,1.2-1.9,2c-0.3,0.4-0.4,1-0.4,1.5c0.1,1.7,1,2.6,2.7,2.8c0.2,0,0.3,0.1,0.5,0.1
		c1.9,0.5,2.4,1.3,1.8,3.2c-0.1,0.4-0.6,0.7-0.9,0.9c-0.8,0.3-1.6,0.4-2.4,0.7c-1.8,0.5-2.5,3-1.1,4.4c0.5,0.5,1,1.1,1.6,1.6
		c0.6,0.5,0.7,1.1,0.2,1.8c-0.2,0.2-0.3,0.5-0.4,0.7c-0.4,0.9-1,1.2-1.9,0.8c-0.4-0.2-0.9-0.2-1.3-0.4c-1.4-0.6-2.5-0.4-3.4,0.8
		c-0.5,0.7-0.8,1.2-0.5,2c0.3,0.8,0.4,1.6,0.7,2.4c0.2,0.7,0.1,1.2-0.6,1.6c-0.4,0.2-0.8,0.4-1.1,0.6c-0.6,0.4-1.1,0.3-1.5-0.2
		c-0.6-0.6-1.2-1.3-1.9-1.9c-1.2-1.1-3.7-0.4-4.1,1.1c-0.2,0.8-0.5,1.6-0.6,2.5c-0.2,0.7-0.6,1-1.3,1c-0.4,0-0.8,0-1.2,0
		c-0.8,0-1.2-0.3-1.4-1c-0.2-0.9-0.5-1.8-0.7-2.7c-0.4-1.3-2.9-2-3.9-1.1c-0.7,0.7-1.4,1.3-2,2c-0.5,0.5-0.9,0.6-1.5,0.2
		c-0.1,0-0.1-0.1-0.2-0.1c-1.8-1-1.8-1-1.3-3c0.1-0.2,0.1-0.4,0.2-0.6c0.6-2,0.3-2.7-1.4-3.8C37,40,36.5,40,36.1,40.1
		c-0.9,0.2-1.8,0.4-2.7,0.7c-0.7,0.2-1.2,0.1-1.5-0.6c-0.1-0.3-0.3-0.5-0.4-0.7c-0.7-0.9-0.5-1.6,0.3-2.3c0.3-0.3,0.6-0.6,0.9-0.9
		c1.2-0.9,1.5-1.9,0.9-3.3c-0.3-0.8-0.6-1.3-1.4-1.5c-0.8-0.2-1.6-0.4-2.5-0.6c-0.7-0.2-1-0.6-1-1.3c-0.1-2.1,0-2.2,2-2.8
		c0.2-0.1,0.4-0.1,0.6-0.2c2.1-0.5,2.5-1,2.6-3.1c0-0.4-0.2-0.8-0.5-1.1c-0.6-0.7-1.3-1.3-1.9-2c-0.6-0.5-0.7-1-0.2-1.7
		c0.2-0.4,0.5-0.7,0.7-1.1c0.3-0.6,0.8-0.8,1.4-0.5c0.5,0.2,1.1,0.3,1.6,0.5c2,0.5,2.6,0.3,3.8-1.4C39,16,39,15.8,39.1,15.6z
		 M50.1,42.1c7.3,0,13.1-5.8,13.1-13.1c0-7.3-5.8-13.1-13.1-13.2c-7.2,0-13.1,5.9-13.1,13.2C37,36.3,42.8,42.1,50.1,42.1z"/>
	<path class="st0" d="M78,29.4c0.1,5.8-1.8,11.3-4.6,16.5c-1.5,2.7-3.1,5.4-4.4,8.3c-0.9,2.1-1.4,4.4-2.1,6.7c0,0.1,0,0.1,0,0.2
		c-0.2,1.2-0.8,1.8-1.7,1.7c-0.9-0.1-1.5-0.9-1.2-2c0.4-1.9,0.7-4,1.5-5.8c1.7-3.7,3.6-7.2,5.5-10.8c2.7-5,4.3-10.3,4.1-16
		c-0.3-13-11.6-24.1-24.6-24.1c-12.8,0-23.2,8.8-25.1,21.4c-0.9,5.6,0.1,11,2.6,16.1c1.8,3.7,3.9,7.2,5.7,11c1,2.2,1.6,4.7,2.4,7
		c0.1,0.4,0.2,0.9,0.2,1.4c0.1,1-0.4,1.7-1.2,1.8c-0.8,0.1-1.4-0.5-1.6-1.5c-0.3-1.6-0.5-3.3-1.1-4.7c-1.4-3.1-2.9-6.1-4.6-9.1
		c-2.5-4.4-4.5-9-5.2-14.1c-2.4-16,9.4-31,25.5-32.1c11.7-0.8,20.7,4.2,26.6,14.3C76.9,19.7,78,24.3,78,29.4z"/>
	<path class="st0" d="M61.7,70.1c1.2,0,1.9,0.5,1.9,1.4c0,0.8-0.6,1.5-1.7,1.6c-4.8,0.6-9.6,1.2-14.4,1.9c-3.1,0.4-6.3,0.8-9.4,1.2
		c-0.4,0-0.7,0.1-1.1,0.1c-0.9,0-1.5-0.5-1.6-1.4c-0.1-0.9,0.4-1.5,1.3-1.7c1.8-0.3,3.6-0.5,5.4-0.7c6.3-0.8,12.6-1.5,18.9-2.3
		C61.4,70.1,61.7,70.1,61.7,70.1z"/>
	<path class="st0" d="M38.3,81.6c-1.2,0-1.9-0.4-2-1.3c-0.1-0.9,0.4-1.7,1.5-1.8c2.7-0.3,5.5-0.6,8.2-0.9c1.8-0.2,3.7-0.4,5.5-0.7
		c3.6-0.5,7.2-0.9,10.8-1.3c1.2-0.1,2,0.4,2,1.4c0.1,0.8-0.7,1.5-1.8,1.6c-3.5,0.5-7,0.9-10.5,1.4c-4.4,0.6-8.8,1.1-13.2,1.6
		C38.6,81.5,38.4,81.6,38.3,81.6z"/>
	<path class="st0" d="M51.4,63.7c0.1-1.8,0-1.8-1.4-1.7c-0.3,0-0.6-0.1-0.8-0.3c-0.1-0.1,0-0.5,0.1-0.7c0.8-1.2,0.8-1.3-0.5-2
		c-0.2-0.1-0.5-0.4-0.5-0.7c0-0.2,0.3-0.5,0.5-0.6c1.3-0.6,1.4-0.8,0.5-2c-0.1-0.2-0.2-0.6-0.1-0.8c0.1-0.2,0.5-0.3,0.7-0.3
		c1.5,0.1,1.6,0,1.5-1.4c0-0.3,0.1-0.7,0.3-0.8c0.2-0.1,0.6,0,0.8,0.2c1.1,0.8,1.3,0.7,1.9-0.6c0.1-0.2,0.4-0.5,0.7-0.5
		c0.2,0,0.5,0.3,0.6,0.5c0.6,1.3,0.8,1.4,2,0.5c0.2-0.1,0.6-0.2,0.7-0.1c0.2,0.2,0.3,0.5,0.3,0.8c-0.1,1.4,0,1.5,1.5,1.4
		c0.2,0,0.6,0.1,0.7,0.3c0.1,0.2,0,0.6-0.1,0.8c-0.8,1.2-0.8,1.3,0.6,2c0.2,0.1,0.5,0.4,0.5,0.6c0,0.2-0.3,0.6-0.5,0.7
		c-1.3,0.6-1.3,0.8-0.5,2c0.1,0.2,0.2,0.6,0.1,0.7c-0.2,0.2-0.5,0.4-0.8,0.3c-1.5-0.1-1.5,0-1.4,1.5c0,0.2-0.1,0.6-0.3,0.7
		c-0.2,0.1-0.6,0.1-0.8-0.1c-1.4-0.8-1.4-0.9-2,0.5c-0.1,0.2-0.4,0.5-0.6,0.5c-0.2,0-0.6-0.3-0.7-0.5c-0.6-1.2-0.8-1.3-1.9-0.6
		c-0.2,0.2-0.6,0.2-0.8,0.2C51.6,64.2,51.5,63.8,51.4,63.7z M51.6,58.4c0,2,1.5,3.5,3.5,3.5c1.9,0,3.5-1.5,3.5-3.4
		c0-2-1.5-3.6-3.5-3.6C53.2,54.9,51.6,56.4,51.6,58.4z"/>
	<path class="st0" d="M46.2,86.8c-1.3,0-2.1-0.6-2.2-1.6c-0.1-1,0.6-1.9,1.7-2c3.4-0.4,6.7-0.8,10.1-1.2c1.3-0.1,2.1,0.5,2.2,1.6
		c0.1,1.1-0.3,1.8-1.4,1.9C53.1,85.9,49.5,86.3,46.2,86.8z"/>
	<path class="st0" d="M36.9,70.9c-1.2,0-1.9-0.5-2-1.4c-0.1-0.8,0.5-1.6,1.6-1.7c3.4-0.4,6.8-0.8,10.3-1.2c0.7-0.1,1.3-0.2,2-0.2
		c1,0,1.6,0.5,1.7,1.4c0.1,1-0.3,1.6-1.4,1.7C45,69.9,40.9,70.4,36.9,70.9z"/>
	<path class="st0" d="M45.7,55.1c-0.1,0.1-0.3,0.3-0.4,0.4c-0.6,0.2-0.8,0.5-0.3,1c0.4,0.5,0.3,0.9-0.4,0.8
		c-0.6-0.1-0.8,0.2-0.7,0.7c0.1,0.7-0.2,0.9-0.8,0.5c-0.5-0.3-0.8-0.2-1,0.3c-0.3,0.6-0.6,0.7-0.9,0c-0.3-0.6-0.6-0.6-1.1-0.2
		c-0.5,0.3-0.8,0.1-0.7-0.4c0.1-0.7-0.2-0.9-0.8-0.8c-0.6,0.1-0.8-0.2-0.4-0.7c0.4-0.5,0.4-0.9-0.3-1.1c-0.5-0.2-0.6-0.6,0-0.8
		c0.6-0.3,0.8-0.6,0.3-1.1c-0.3-0.4-0.2-0.8,0.4-0.7c0.7,0.1,0.9-0.1,0.8-0.8c-0.1-0.5,0.2-0.8,0.7-0.4c0.6,0.5,0.9,0.3,1.2-0.4
		c0-0.1,0.7-0.1,0.7,0c0.3,0.7,0.6,0.8,1.2,0.3c0.1-0.1,0.7,0.2,0.7,0.3c-0.1,0.7,0.2,1,0.9,0.9c0.1,0,0.5,0.3,0.5,0.5
		C45,54.3,45,54.3,45.7,55.1z M41.5,52.7c-1.3,0-2.3,1-2.3,2.3c0,1.3,1.1,2.4,2.4,2.3c1.3,0,2.3-1,2.3-2.3
		C43.8,53.7,42.8,52.7,41.5,52.7z"/>
	<path class="st0" d="M55.4,98.3c-3.7,0.8-7.1,0.7-10.6,0C46.3,97.2,53.4,97.1,55.4,98.3z"/>
	<path class="st0" d="M50,40.2c-6.2,0-11.1-5-11.1-11.2c0-6.2,5.1-11.2,11.3-11.2c6.1,0,11.2,5.1,11.1,11.2
		C61.3,35.3,56.2,40.2,50,40.2z M51,22.9c0-0.2-0.1-0.4-0.1-0.5c0-0.5,0.1-1.1-0.8-1.1c-0.9,0-0.8,0.5-0.9,1.1
		c-0.1,0.4-0.4,0.8-0.8,0.9c-1.3,0.7-2.3,1.5-2.2,3.2c0,1.6,1.1,2.3,2.4,2.9c0.8,0.4,1.6,0.6,2.3,1.1c0.9,0.6,0.9,1.7,0,2.2
		c-0.5,0.3-1.2,0.4-1.8,0.3c-0.8-0.1-1.6-0.4-2.4-0.6c-0.8,1.5-0.7,1.8,0.9,2.2c0.2,0.1,0.4,0.1,0.6,0.1c0.7,0,1,0.3,0.9,1
		c-0.1,0.6,0,0.9,0.8,1c0.8,0,0.9-0.4,0.8-1c0-0.5,0-0.9,0.7-1.1c1.6-0.5,2.5-1.5,2.5-3.2c0-1.7-1-2.7-2.4-3.3
		c-0.7-0.3-1.5-0.6-2.1-1c-0.4-0.3-0.8-0.9-0.7-1.3c0.1-0.4,0.7-0.9,1.1-0.9c0.7-0.1,1.6,0,2.3,0.2c0.7,0.2,1,0.1,1.2-0.6
		c0.2-0.7,0.2-1.1-0.6-1.3C52.1,23.2,51.6,23,51,22.9z"/>
</g>
</svg>
