<?xml version="1.0" encoding="utf-8"?>
<!-- Generator: Adobe Illustrator 20.1.0, SVG Export Plug-In . SVG Version: 6.00 Build 0)  -->
<svg version="1.1" id="Layer_1" xmlns="http://www.w3.org/2000/svg" xmlns:xlink="http://www.w3.org/1999/xlink" x="0px" y="0px"
	 viewBox="0 0 250 250" style="enable-background:new 0 0 250 250;" xml:space="preserve">
<style type="text/css">
	.st0{fill:#F4F4F4;}
	.st1{fill:#002833;}
	.st2{fill:#EFEFEF;}
	.st3{fill:#C9C9C9;}
	.st4{fill:#A2DFE9;}
	.st5{fill:#FF5F5F;}
	.st6{fill:#415A6B;}
	.st7{fill:#F3705A;}
	.st8{fill:#FFD15C;}
	.st9{fill:#55C0EB;}
	.st10{fill:#8AD7F8;}
</style>
<g id="E-Commerce">
	<g id="Background_21_">
		<circle id="Background_2_21_" class="st0" cx="123" cy="124.9" r="116.6"/>
	</g>
</g>
<g>
	<path class="st1" d="M206.3,187.8h-63.9c-2.1,0-3.8-1.7-3.8-3.8V63.9c0-2.1,1.7-3.8,3.8-3.8h63.9c2.1,0,3.8,1.7,3.8,3.8V184
		C210.1,186.1,208.4,187.8,206.3,187.8z"/>
	<rect x="142.4" y="70.3" class="st2" width="63.9" height="102.2"/>
	<g>
		<path class="st3" d="M181.9,66.5h-15.3c-0.7,0-1.3-0.6-1.3-1.3l0,0c0-0.7,0.6-1.3,1.3-1.3h15.3c0.7,0,1.3,0.6,1.3,1.3l0,0
			C183.2,65.9,182.6,66.5,181.9,66.5z"/>
		<path class="st3" d="M182,180.2h-15.3c-0.7,0-1.3-0.6-1.3-1.3l0,0c0-0.7,0.6-1.3,1.3-1.3H182c0.7,0,1.3,0.6,1.3,1.3l0,0
			C183.3,179.6,182.7,180.2,182,180.2z"/>
	</g>
	<rect x="150.1" y="84.3" class="st4" width="15.3" height="2.6"/>
	<g>
		<rect x="170.5" y="84.3" class="st3" width="10.2" height="2.6"/>
		<rect x="155.2" y="89.4" class="st3" width="15.3" height="2.6"/>
	</g>
	<g>
		<rect x="178.2" y="89.4" class="st5" width="12.8" height="2.6"/>
		<rect x="183.3" y="109.9" class="st5" width="12.8" height="2.6"/>
	</g>
	<g>
		<rect x="155.2" y="99.6" class="st4" width="10.2" height="2.6"/>
		<rect x="185.8" y="115" class="st4" width="10.2" height="2.6"/>
	</g>
	<rect x="164.7" y="94.5" class="st3" width="21.1" height="2.6"/>
	<rect x="157.7" y="104.8" class="st5" width="5.1" height="2.6"/>
	<rect x="173.1" y="109.9" class="st3" width="5.1" height="2.6"/>
	<rect x="175.6" y="115" class="st4" width="5.1" height="2.6"/>
	<rect x="190.9" y="120.1" class="st5" width="5.1" height="2.6"/>
	<rect x="178.2" y="120.1" class="st4" width="5.1" height="2.6"/>
	<rect x="173.1" y="135.4" class="st5" width="7.7" height="2.6"/>
	<rect x="155.2" y="125.2" class="st4" width="10.2" height="2.6"/>
	<g>
		<rect x="170.5" y="125.2" class="st5" width="10.2" height="2.6"/>
		<rect x="150.1" y="155.8" class="st5" width="10.2" height="2.6"/>
	</g>
	<g>
		<rect x="183.3" y="125.2" class="st4" width="10.2" height="2.6"/>
		<rect x="165.4" y="155.8" class="st4" width="10.2" height="2.6"/>
		<rect x="155.2" y="135.4" class="st4" width="10.2" height="2.6"/>
	</g>
	<rect x="158.1" y="130.8" class="st3" width="9.6" height="2.6"/>
	<rect x="155.2" y="140.5" class="st5" width="25.5" height="2.6"/>
	<rect x="152.6" y="145.6" class="st4" width="30.7" height="2.6"/>
	<g>
		<rect x="162.8" y="150.7" class="st3" width="12.8" height="2.6"/>
		<rect x="183.3" y="155.8" class="st3" width="12.8" height="2.6"/>
	</g>
	<g>
		<rect x="183.3" y="150.7" class="st4" width="12.8" height="2.6"/>
		<rect x="188.4" y="140.5" class="st4" width="10.2" height="2.6"/>
		<rect x="173.1" y="99.6" class="st4" width="15.3" height="2.6"/>
		<rect x="167.9" y="104.8" class="st4" width="15.3" height="2.6"/>
		<rect x="155.2" y="120.1" class="st4" width="15.3" height="2.6"/>
		<rect x="152.6" y="109.9" class="st4" width="15.3" height="2.6"/>
	</g>
	<rect x="150.1" y="115" class="st3" width="15.3" height="2.6"/>
</g>
<g>
	<g>
		<path class="st6" d="M96.3,120.6c0-1.3,1-2.3,2.3-2.3h37.6c1.3,0,2.3,1,2.3,2.3s-1,2.3-2.3,2.3H98.6
			C97.3,123,96.3,121.9,96.3,120.6z"/>
		<path class="st6" d="M102.5,137c0-1.3,1-2.3,2.3-2.3h22.3c0.5,0,1.3,0.3,1.6,0.8l12.2,12.2c0.8,0.8,0.8,2.3,0,3.1
			c-0.8,1-2.3,1-3.1,0l-11.4-11.4h-21.5C103.5,139.3,102.5,138.3,102.5,137z"/>
		<path class="st6" d="M89,149.7c0-1.3,1-2.3,2.3-2.3H115c0.5,0,1.3,0.3,1.6,0.8l24.6,24.6c0.8,0.8,0.8,2.3,0,3.1
			c-0.8,0.8-2.3,0.8-3.1,0L114.2,152H91.6C90.1,152,89,151,89,149.7z"/>
	</g>
	<circle class="st7" cx="139.3" cy="174.3" r="8.6"/>
	<circle class="st8" cx="139.3" cy="149.2" r="8.6"/>
	<circle class="st9" cx="139.3" cy="120.6" r="8.6"/>
	<g>
		<path class="st6" d="M102.5,104.3c0-1.3,1-2.3,2.3-2.3h21.5l11.4-11.4c0.8-1,2.3-1,3.1,0c0.8,0.8,0.8,2.3,0,3.1l-12.2,12.2
			c-0.5,0.5-1,0.8-1.6,0.8h-22.6C103.5,106.6,102.5,105.6,102.5,104.3z"/>
		<path class="st6" d="M89,91.6c0-1.3,1-2.3,2.3-2.3h22.6l23.9-23.9c0.8-1,2.3-1,3.1,0c0.8,0.8,0.8,2.3,0,3.1l-24.6,24.6
			c-0.5,0.5-1,0.8-1.6,0.8H91.1C90.1,93.7,89,92.6,89,91.6z"/>
	</g>
	<circle class="st7" cx="139.3" cy="66.9" r="8.6"/>
	<circle class="st8" cx="139.3" cy="92.1" r="8.6"/>
	<path class="st10" d="M100.4,120.6H36.6c-6.2,0-11.4-5.2-11.4-11.4s5.2-11.4,11.4-11.4c1.6,0,3.1,0.3,4.4,0.8
		c-0.3-0.8-0.3-1.3-0.3-2.1c0-5.7,4.7-10.4,10.4-10.4c2.1,0,3.9,0.5,5.4,1.6c1-5.4,5.7-9.3,11.2-9.3c5.2,0,9.3,3.4,10.9,8
		c1.8-1,3.9-1.6,6.2-1.6c7,0,13,5.7,13,13v0.3c0.8-0.3,1.6-0.3,2.6-0.3c6.2,0,11.4,5.2,11.4,11.4
		C111.8,115.4,106.7,120.6,100.4,120.6z"/>
	<g>
		<path class="st9" d="M23.4,109.2c0-7.3,6-13.2,13.2-13.2c0.8,0,1.6,0,2.3,0.3c0.3-6.7,5.7-11.9,12.2-11.9c1.6,0,3.1,0.3,4.4,0.8
			c1.8-4.9,6.7-8.6,12.4-8.6c5.2,0,9.6,2.9,11.9,7.3c1.6-0.5,3.4-1,5.2-1c7.5,0,13.7,5.7,14.5,13c0.3,0,0.5,0,0.8,0
			c7.3,0,13.2,6,13.2,13.2c0,7.3-6,13.2-13.2,13.2H36.6C29.4,122.4,23.4,116.5,23.4,109.2z M42.9,98.6c0,0.5-0.3,1-0.5,1.3
			c-0.5,0.5-1.3,0.5-1.8,0.3c-1.3-0.5-2.3-0.8-3.6-0.8c-5.4,0-9.6,4.4-9.6,9.6c0,5.4,4.4,9.6,9.6,9.6h63.5c5.4,0,9.6-4.4,9.6-9.6
			c0-5.4-4.4-9.6-9.6-9.6c-0.8,0-1.6,0-2.1,0.3c-0.5,0.3-1.3,0-1.6-0.5c-0.5-0.5-0.5-1-0.5-1.6c0-6-4.9-11.2-11.2-11.2
			c-1.8,0-3.6,0.5-5.2,1.3c-0.5,0.3-1,0.3-1.6,0c-0.5-0.3-0.8-0.5-1-1c-1.3-3.9-4.9-6.7-9.1-6.7c-4.7,0-8.6,3.4-9.6,7.8
			c0,0.5-0.5,1-1,1.3c-0.5,0.3-1.3,0.3-1.8-0.3c-1.3-0.8-2.9-1.3-4.7-1.3c-4.7,0-8.6,3.9-8.6,8.6c0,0.5,0,1.3,0.3,1.6
			C42.9,98.3,42.9,98.3,42.9,98.6z"/>
		<path class="st9" d="M91.4,104.3c0-0.5,0.3-1.3,1-1.6c0.8-0.5,2.1-0.3,2.3,0.8c2.3,4.1,5.7,3.1,5.7,3.1c1-0.3,2.1,0.3,2.3,1.3
			c0.3,1-0.3,2.1-1.3,2.3c-2.1,0.5-7,0.5-9.9-4.7C91.4,104.8,91.4,104.5,91.4,104.3z"/>
		<path class="st9" d="M52.2,103.8c0-0.5,0.3-1,0.8-1.6c3.9-2.6,3.4-7.5,3.4-7.5c0-1,0.5-1.8,1.6-2.1c1,0,1.8,0.5,2.1,1.6
			c0,0.3,0.8,7-4.9,10.9c-0.8,0.5-1.8,0.3-2.6-0.5C52.2,104.3,52.2,104,52.2,103.8z"/>
		<path class="st9" d="M54.8,89c0-0.5,0-1,0-1.3c0.3-1,1-1.6,2.1-1.6c1,0.3,1.6,1,1.6,2.1l0,0c0,0.3-0.5,5.4,3.4,7.3
			c1,0.5,1.3,1.6,1,2.3c-0.5,1-1.6,1.3-2.3,1C56.1,96.5,54.8,92.1,54.8,89z"/>
		<path class="st9" d="M57.6,109c0-0.5,0.3-1.3,0.8-1.6c5.7-3.6,9.6-2.9,12.2-1.6c3.6,1.8,5.2,5.7,5.4,7c0,1-0.8,1.8-1.8,1.8
			c-1,0-1.8-0.8-1.8-1.6c0-0.5-1.3-3.1-3.6-4.1c-2.3-1-4.9-0.5-8.3,1.6c-0.8,0.5-2.1,0.3-2.6-0.5C57.6,109.5,57.6,109.2,57.6,109z"
			/>
		<path class="st9" d="M39.2,98.6c0-0.3,0-0.8,0.3-1c0.5-0.8,1.6-1,2.6-0.5c2.3,1.6,6.2,6,3.4,12.2c-0.5,1-1.6,1.3-2.3,0.8
			c-1-0.5-1.3-1.6-0.8-2.3c2.1-4.9-1.6-7.5-2.1-7.8C39.5,99.9,39.2,99.1,39.2,98.6z"/>
		<path class="st9" d="M40.5,99.6c0-0.3,0-0.5,0.3-0.8c0.5-1,1.6-1.3,2.3-1c0.3,0,2.9,1,4.9-2.1c0.5-0.8,1.8-1,2.6-0.5
			c0.8,0.5,1,1.8,0.5,2.6c-3.1,4.4-7.5,3.9-9.3,3.1C40.8,100.9,40.5,100.1,40.5,99.6z"/>
		<path class="st9" d="M32.7,107.7c0-0.8,0-1.6,0.3-2.3c0.3-1,1.3-1.6,2.1-1.3c1,0.3,1.6,1.3,1.3,2.1c-1,4.4,2.3,5.7,2.6,6
			c1,0.3,1.3,1.6,1,2.3c-0.3,1-1.6,1.3-2.3,1C35.6,114.4,32.7,112.1,32.7,107.7z"/>
		<path class="st9" d="M86.2,113.4c0-0.3,0-0.8,0.3-1c4.4-6.2,12.2-5.7,12.4-5.7c1,0,1.8,1,1.6,2.1c0,1-1,1.8-2.1,1.6l0,0
			c-0.3,0-6-0.5-9.1,4.1c-0.5,0.8-1.8,1-2.6,0.5C86.4,114.4,86.2,113.9,86.2,113.4z"/>
		<path class="st9" d="M74.8,96c0-0.5,0-0.8,0.3-1c1.8-2.3,2.6-5.4,1.8-8.6c-0.3-1,0.3-2.1,1.3-2.1c1-0.3,2.1,0.3,2.1,1.3
			c1,4.1,0,8.3-2.6,11.7c-0.5,0.8-1.8,1-2.6,0.3C75,97,74.8,96.5,74.8,96z"/>
		<path class="st9" d="M77.1,91.1L77.1,91.1c0-1,0.8-1.8,1.8-1.8c1,0,1.8,0.8,1.8,1.8l0,0c0,0.3,0.3,4.4,6.7,6.2
			c1,0.3,1.6,1.3,1.3,2.1c-0.3,1-1.3,1.6-2.1,1.3C77.4,98.3,77.1,91.6,77.1,91.1z"/>
		<path class="st9" d="M63.3,106.6c0-0.5,0.3-1,0.5-1.3c0.3-0.3,6.5-6.5,2.6-14.5c-0.5-0.8,0-2.1,0.8-2.3c0.8-0.5,2.1,0,2.3,0.8
			c4.1,8.3-0.5,15.8-3.4,18.7c-0.8,0.8-1.8,0.8-2.6,0C63.6,107.4,63.3,107.1,63.3,106.6z"/>
	</g>
	<path class="st10" d="M100.4,120.6H36.6c-6.2,0-11.4,5.2-11.4,11.4c0,6.2,5.2,11.4,11.4,11.4c1.6,0,3.1-0.3,4.4-0.8
		c-0.3,0.8-0.3,1.3-0.3,2.1c0,5.7,4.7,10.4,10.4,10.4c2.1,0,3.9-0.5,5.4-1.6c1,5.4,5.7,9.3,11.2,9.3c5.2,0,9.3-3.4,10.9-8
		c1.8,1,3.9,1.6,6.2,1.6c7,0,13-5.7,13-13v-0.3c0.8,0.3,1.6,0.3,2.6,0.3c6.2,0,11.4-5.2,11.4-11.4
		C111.8,125.8,106.7,120.6,100.4,120.6z"/>
	<g>
		<path class="st9" d="M23.4,132c0-7.3,6-13.2,13.2-13.2h63.8c7.3,0,13.2,6,13.2,13.2s-6,13.2-13.2,13.2c-0.3,0-0.5,0-0.8,0
			c-0.8,7.3-7,13-14.5,13c-1.8,0-3.6-0.3-5.2-1c-2.3,4.4-6.7,7.3-11.9,7.3c-5.7,0-10.6-3.4-12.4-8.6c-1.3,0.5-2.9,0.8-4.4,0.8
			c-6.5,0-11.9-5.2-12.2-11.7c-0.8,0.3-1.6,0.3-2.3,0.3C29.4,145.3,23.4,139.3,23.4,132z M110,132c0-5.4-4.4-9.6-9.6-9.6H36.6
			c-5.4,0-9.6,4.4-9.6,9.6c0,5.4,4.4,9.6,9.6,9.6c1.3,0,2.6-0.3,3.6-0.8c0.5-0.3,1.3-0.3,1.8,0.3c0.5,0.5,0.8,1,0.5,1.8
			c0,0.5-0.3,1-0.3,1.6c0,4.7,3.9,8.6,8.6,8.6c1.6,0,3.1-0.5,4.7-1.3c0.5-0.3,1-0.3,1.8-0.3c0.5,0.3,1,0.8,1,1.3
			c0.8,4.7,4.9,7.8,9.6,7.8c4.1,0,7.8-2.6,9.1-6.7c0.3-0.5,0.5-1,1-1c0.5-0.3,1-0.3,1.6,0c1.6,0.8,3.4,1.3,5.2,1.3
			c6.2,0,11.2-4.9,11.2-11.2c0-0.5,0-1.3,0.5-1.6c0.5-0.5,1-0.5,1.6-0.5c0.5,0.3,1.3,0.3,2.1,0.3C105.6,141.6,110,137.5,110,132z"/>
		<path class="st9" d="M91.4,137c0-0.3,0-0.5,0.3-0.8c3.1-5.2,7.8-5.4,9.9-4.7c1,0.3,1.6,1.3,1.3,2.3c-0.3,1-1.3,1.6-2.3,1.3
			c-0.3,0-3.4-0.8-5.7,3.1c-0.5,0.8-1.6,1.3-2.3,0.8C91.6,138.3,91.4,137.5,91.4,137z"/>
		<path class="st9" d="M52.2,137.5c0-0.3,0-0.8,0.3-1c0.5-0.8,1.8-1,2.6-0.5c5.4,3.9,4.9,10.6,4.9,10.9c0,1-1,1.8-2.1,1.6
			c-1,0-1.6-1-1.6-2.1c0-0.3,0.5-4.9-3.4-7.5C52.5,138.8,52.2,138.3,52.2,137.5z"/>
		<path class="st9" d="M54.8,152.3c0-3.1,1-7.5,5.7-9.6c1-0.5,2.1,0,2.3,1c0.5,1,0,2.1-1,2.3c-4.1,1.8-3.6,7-3.4,7.3
			c0.3,1-0.5,1.8-1.6,2.1c-1,0.3-1.8-0.5-2.1-1.6C54.8,153.3,54.8,152.8,54.8,152.3z"/>
		<path class="st9" d="M57.6,132.3c0-0.3,0-0.8,0.3-1c0.5-0.8,1.6-1,2.6-0.5c3.1,2.1,6,2.6,8.3,1.6s3.6-3.6,3.6-4.1
			c0-1,0.8-1.8,1.8-1.6c1,0,1.8,1,1.8,1.8c0,1.3-1.8,5.2-5.4,7c-2.3,1.3-6.5,1.8-12.2-1.8C57.9,133.6,57.6,132.8,57.6,132.3z"/>
		<path class="st9" d="M39.2,142.7c0-0.5,0.3-1.3,0.8-1.6c0.5-0.3,4.1-2.9,2.1-7.8c-0.5-1,0-2.1,0.8-2.3c1-0.5,2.1,0,2.3,0.8
			c2.9,6.2-1,10.9-3.4,12.2c-0.8,0.5-2.1,0.3-2.6-0.5C39.5,143.5,39.2,142.9,39.2,142.7z"/>
		<path class="st9" d="M40.5,141.6c0-0.8,0.5-1.3,1-1.6c1.8-0.8,6.2-1,9.3,3.1c0.5,0.8,0.5,1.8-0.5,2.6c-0.8,0.5-1.8,0.5-2.6-0.5
			c-2.3-3.1-4.9-2.1-4.9-2.1c-1,0.5-2.1,0-2.3-1C40.5,142.2,40.5,141.9,40.5,141.6z"/>
		<path class="st9" d="M32.7,133.6c0-4.4,3.1-7,4.9-7.8c1-0.3,2.1,0,2.3,1c0.3,1,0,2.1-1,2.3c-0.3,0.3-3.4,1.6-2.6,6
			c0.3,1-0.5,1.8-1.3,2.1c-1,0.3-1.8-0.5-2.1-1.3C32.7,135.2,32.7,134.4,32.7,133.6z"/>
		<path class="st9" d="M86.2,127.9c0-0.5,0.3-1,0.8-1.6c0.8-0.5,1.8-0.5,2.6,0.5c3.4,4.7,8.8,4.1,9.1,4.1c1,0,1.8,0.5,2.1,1.6
			c0,1-0.5,1.8-1.6,2.1c-0.3,0-7.8,0.8-12.4-5.7C86.2,128.7,86.2,128.4,86.2,127.9z"/>
		<path class="st9" d="M74.8,145.3c0-0.5,0.3-1,0.8-1.3c0.8-0.5,1.8-0.5,2.6,0.3c2.6,3.4,3.4,7.5,2.6,11.7c-0.3,1-1.3,1.6-2.1,1.3
			c-1-0.3-1.6-1.3-1.3-2.1c0.8-2.9,0-6-1.8-8.6C74.8,146,74.8,145.5,74.8,145.3z"/>
		<path class="st9" d="M77.1,150.2c0-0.5,0.3-7.3,9.3-9.6c1-0.3,2.1,0.3,2.1,1.3c0.3,1-0.3,2.1-1.3,2.1c-6.7,1.8-6.7,6.2-6.7,6.2
			l0,0c0,1-0.8,1.8-1.8,1.8C78.1,152,77.1,151.2,77.1,150.2L77.1,150.2z"/>
		<path class="st9" d="M63.3,134.6c0-0.5,0.3-0.8,0.5-1.3c0.8-0.8,1.8-0.8,2.6,0c2.9,2.9,7.5,10.4,3.4,18.7
			c-0.5,0.8-1.6,1.3-2.3,0.8c-0.8-0.5-1.3-1.6-0.8-2.3c3.9-8-2.6-14.3-2.6-14.5C63.6,135.7,63.3,135.2,63.3,134.6z"/>
	</g>
</g>
</svg>
