<?xml version="1.0" encoding="utf-8"?>
<!-- Generator: Adobe Illustrator 20.1.0, SVG Export Plug-In . SVG Version: 6.00 Build 0)  -->
<svg version="1.1" id="Layer_1" xmlns="http://www.w3.org/2000/svg" xmlns:xlink="http://www.w3.org/1999/xlink" x="0px" y="0px"
	 viewBox="0 0 291.5 291.5" style="enable-background:new 0 0 291.5 291.5;" xml:space="preserve">
<style type="text/css">
	.st0{fill:#FFFFFF;}
</style>
<g>
	<path class="st0" d="M188.4,44.3c11-11.7,18.4-28,16.4-44.3c-15.8,0.6-35,9.3-46.3,21c-10.2,10.4-19.1,27-16.7,43
		C159.4,65.2,177.4,56,188.4,44.3z M222,156.6c-0.3-36.5,28.9-54,30.2-54.8c-16.4-24.8-42-28.1-51.1-28.5
		c-21.8-2.3-42.4,13.2-53.5,13.2c-11,0-28-12.9-46.1-12.5C77.8,74.3,55.9,88.1,43.7,110c-24.7,44.1-6.3,109.3,17.7,145.1
		c11.7,17.5,25.7,37.1,44.1,36.4c17.7-0.7,24.4-11.8,45.8-11.8c21.4,0,27.4,11.8,46.1,11.4c19-0.4,31.1-17.8,42.7-35.4
		c13.5-20.3,19-39.9,19.3-40.9C259.1,214.6,222.4,200.2,222,156.6z"/>
</g>
</svg>
