<?xml version="1.0" encoding="utf-8"?>
<!-- Generator: Adobe Illustrator 20.1.0, SVG Export Plug-In . SVG Version: 6.00 Build 0)  -->
<svg version="1.1" id="Capa_1" xmlns="http://www.w3.org/2000/svg" xmlns:xlink="http://www.w3.org/1999/xlink" x="0px" y="0px"
	 viewBox="0 0 478.2 478.2" style="enable-background:new 0 0 478.2 478.2;" xml:space="preserve">
<style type="text/css">
	.st0{fill:#FFFFFF;}
</style>
<g>
	<path id="LinkedIn_3_" class="st0" d="M478.2,290.8v176.7H375.6v-165c0-41.5-14.8-69.7-51.9-69.7c-28.4,0-45.1,19.1-52.6,37.5
		c-2.7,6.6-3.5,15.9-3.5,25v172.2H165.2c0,0,1.4-279.3,0-308.3h102.4v43.7c-0.1,0.4-0.4,0.7-0.6,1.1h0.6v-1.1
		c13.7-21,37.9-50.9,92.4-50.9C427.7,152,478.2,196.1,478.2,290.8z M58,10.6c-35,0-58,23-58,53.3c0,29.5,22.3,53.3,56.7,53.3h0.6
		c35.8,0,58-23.8,58-53.3C114.6,33.6,93.1,10.6,58,10.6z M6.1,467.5h102.5V159.2H6.1V467.5z"/>
</g>
</svg>
