<?xml version="1.0" encoding="utf-8"?>
<!-- Generator: Adobe Illustrator 20.1.0, SVG Export Plug-In . SVG Version: 6.00 Build 0)  -->
<svg version="1.1" id="Layer_1" xmlns="http://www.w3.org/2000/svg" xmlns:xlink="http://www.w3.org/1999/xlink" x="0px" y="0px"
	 viewBox="0 0 418 342" style="enable-background:new 0 0 418 342;" xml:space="preserve">
<style type="text/css">
	.st0{enable-background:new    ;}
	.st1{fill:#FFFFFF;}
	.st2{fill:#ED1F24;}
	.st3{fill:#F04C23;}
	.st4{fill:#EE3224;}
	.st5{fill:#620D0D;}
	.st6{fill:#EF4323;}
	.st7{fill:#ED1C24;}
	.st8{fill:#ED1E25;}
	.st9{fill:#AC1F23;}
	.st10{fill:#882D1B;}
</style>
<g>
	<g class="st0">
		<path class="st1" d="M37.1,322.9H22.4v-2.5l10.7-15H22.8V303h13.5v2.5l-10.6,15h11.4V322.9z"/>
		<path class="st1" d="M56.6,303l-11.3,26.9h-2.8l3-7.6L37.8,303h2.9l6.4,15.9l6.7-15.9H56.6z"/>
		<path class="st1" d="M74.2,322.9h-2.7v-11.7c0-1.7-0.6-3.1-1.8-4.3s-2.7-1.8-4.3-1.8c-1.7,0-3.1,0.6-4.3,1.8s-1.8,2.7-1.8,4.3
			v11.7h-2.7v-11.4c0-2.6,0.8-4.7,2.5-6.5c1.7-1.7,3.8-2.6,6.3-2.6c2.5,0,4.6,0.9,6.3,2.6s2.5,3.9,2.5,6.5V322.9z"/>
	</g>
	<g class="st0">
		<path class="st2" d="M101.2,312.9v0.1v9.9h-2.7v-3.1c-2.2,2.5-4.8,3.7-7.9,3.6c-2.7-0.1-5.1-1.2-7-3.2c-1.9-2-2.9-4.4-2.9-7.2
			c0-2.9,1-5.4,3.1-7.5c2.1-2.1,4.6-3.1,7.5-3c2.8,0.1,5.2,1.2,7.1,3.2C100.3,307.8,101.2,310.2,101.2,312.9z M98.5,312.7
			c0-2.1-0.8-3.9-2.2-5.4c-1.5-1.5-3.2-2.2-5.2-2.2c-2.1,0-3.9,0.7-5.4,2.2c-1.5,1.5-2.3,3.3-2.3,5.4c0,2.1,0.6,3.9,2.1,5.5
			c1.4,1.6,3.2,2.4,5.2,2.5c2.2,0.1,4.1-0.7,5.6-2.3C97.8,316.9,98.5,315,98.5,312.7z"/>
		<path class="st2" d="M124.5,312.9c0,2.9-1,5.4-3.1,7.5c-2.1,2.1-4.5,3.1-7.4,3c-2.9-0.1-5.4-1.3-7.4-3.5v10H104v-16.8
			c0-0.1,0-0.1,0-0.1c0-2.9,1-5.3,3.1-7.4s4.6-3.1,7.4-3c2.8,0.1,5.1,1.1,7.1,3.2C123.5,307.7,124.5,310.1,124.5,312.9z
			 M121.8,313.1c0-2.1-0.7-4-2.1-5.5c-1.4-1.6-3.2-2.4-5.2-2.5c-2.2-0.1-4.1,0.6-5.6,2.3c-1.6,1.6-2.3,3.6-2.3,5.8
			c0,2.1,0.8,3.9,2.2,5.4s3.2,2.2,5.3,2.2c2.1,0,3.9-0.8,5.4-2.2C121,317.1,121.8,315.3,121.8,313.1z"/>
		<path class="st2" d="M146.6,312.9c0,2.9-1,5.4-3.1,7.5c-2.1,2.1-4.5,3.1-7.4,3c-2.9-0.1-5.4-1.3-7.4-3.5v10h-2.6v-16.8
			c0-0.1,0-0.1,0-0.1c0-2.9,1-5.3,3.1-7.4s4.6-3.1,7.4-3c2.8,0.1,5.1,1.1,7.1,3.2C145.7,307.7,146.6,310.1,146.6,312.9z M144,313.1
			c0-2.1-0.7-4-2.1-5.5c-1.4-1.6-3.2-2.4-5.2-2.5c-2.2-0.1-4.1,0.6-5.6,2.3c-1.6,1.6-2.3,3.6-2.3,5.8c0,2.1,0.8,3.9,2.2,5.4
			s3.2,2.2,5.3,2.2c2.1,0,3.9-0.8,5.4-2.2C143.1,317.1,143.9,315.3,144,313.1z"/>
	</g>
	<g class="st0">
		<path class="st2" d="M162.9,317c0.1,1.8-0.5,3.4-1.9,4.7c-1.4,1.3-3,1.9-4.8,1.8c-1.7-0.1-3.1-0.8-4.2-2c-1.1-1.2-1.7-2.7-1.7-4.4
			h2.8v0.7c0,0.7,0.4,1.4,1.1,2.1c0.7,0.7,1.5,1.1,2.4,1.1c1.1,0,2-0.4,2.7-1c0.6-0.6,0.9-1.4,0.9-2.4c0-1.7-0.9-2.9-2.9-3.5
			l-2.3-0.7c-2.4-0.8-3.7-2.4-3.8-5c-0.1-1.5,0.5-2.9,1.6-4c1.1-1.1,2.5-1.7,4-1.8c1.4-0.1,2.6,0.4,3.8,1.3c1.2,0.9,1.8,2.1,1.9,3.5
			v0.6h-2.8v-0.5c0-0.7-0.3-1.3-0.9-1.7c-0.6-0.4-1.3-0.7-2-0.7c-0.7,0-1.4,0.3-1.9,0.8c-0.5,0.5-0.8,1.2-0.9,1.9
			c-0.1,1.4,0.8,2.5,2.6,3.1l2.3,0.8C161.2,312.6,162.7,314.4,162.9,317z"/>
	</g>
	<g class="st0">
		<path class="st1" d="M186.1,313.9h-17.9c0.2,2,1.1,3.7,2.6,5s3.3,1.9,5.3,1.9c3.1,0,5.4-1.5,6.8-4.4h2.8c-0.7,2.1-2,3.8-3.8,5.1
			c-1.8,1.3-3.7,1.9-5.9,1.9c-2.7,0-5.1-0.9-7.2-3c-2.1-2-3.2-4.5-3.2-7.3c-0.1-3,1-5.6,3.2-7.7c2.2-2.2,4.8-3.2,7.7-3
			c2.7,0.2,5,1.3,6.9,3.3c1.9,2,2.8,4.2,2.8,6.7V313.9z M183.4,311.4c-0.4-1.9-1.2-3.4-2.6-4.5c-1.4-1.2-3-1.7-4.9-1.8
			c-1.9,0-3.6,0.5-5,1.7c-1.4,1.2-2.3,2.7-2.7,4.6H183.4z"/>
		<path class="st1" d="M226.6,317.1l-0.3,0.6c-2.1,3.9-5.3,5.8-9.7,5.7c-2.9,0-5.4-1-7.5-3c-2.1-2-3.2-4.4-3.2-7.3
			c0-2.9,1-5.4,3.1-7.4c2.1-2.1,4.6-3.1,7.6-3.2c2.1,0,4.1,0.5,5.9,1.6c1.7,1.1,3,2.4,3.7,4.1l0.4,0.9h-3c-1.5-2.6-3.8-3.9-6.9-4
			c-2.1,0-3.9,0.7-5.5,2.2c-1.7,1.6-2.6,3.5-2.6,5.6c0,2.2,0.8,4,2.4,5.6s3.5,2.3,5.6,2.3c3.1,0,5.4-1.3,7-3.7H226.6z"/>
		<path class="st1" d="M247.5,313c0,2.9-1,5.3-3.1,7.4s-4.6,3.1-7.4,3c-2.8-0.1-5.1-1.1-7.1-3.2c-1.9-2-2.9-4.4-2.9-7.2
			c0-2.9,1-5.4,3.1-7.5c2.1-2.1,4.5-3.1,7.4-3c2.8,0.1,5.1,1.2,7.1,3.2C246.6,307.8,247.5,310.2,247.5,313z M244.9,312.8
			c-0.1-2.1-0.8-3.9-2.3-5.4s-3.2-2.2-5.2-2.2c-2.1,0-3.9,0.7-5.4,2.2c-1.5,1.5-2.3,3.3-2.3,5.5c0,2.1,0.6,4,2.1,5.5
			s3.2,2.4,5.2,2.5c2.2,0.1,4.1-0.6,5.6-2.3S244.9,315,244.9,312.8z"/>
		<path class="st1" d="M258.1,305.3c-1.2,0-2.2,0.4-3,1c-0.8,0.6-1.3,1.2-1.6,1.6c-0.4,0.8-0.7,1.8-0.7,3.1v11.9H250V303h2.5v2.8
			c0.6-1.1,1.4-1.9,2.5-2.5c1-0.5,2-0.8,3.1-0.7V305.3z"/>
		<path class="st1" d="M278,312.9c0,2.9-1,5.4-3.1,7.5c-2.1,2.1-4.5,3.1-7.4,3c-2.9-0.1-5.4-1.3-7.4-3.5v10h-2.6v-16.8
			c0-0.1,0-0.1,0-0.1c0-2.9,1-5.3,3.1-7.4s4.6-3.1,7.4-3c2.8,0.1,5.1,1.1,7.1,3.2C277,307.7,278,310.1,278,312.9z M275.3,313.1
			c0-2.1-0.7-4-2.1-5.5c-1.4-1.6-3.2-2.4-5.2-2.5c-2.2-0.1-4.1,0.6-5.6,2.3c-1.6,1.6-2.3,3.6-2.3,5.8c0,2.1,0.8,3.9,2.2,5.4
			s3.2,2.2,5.3,2.2c2.1,0,3.9-0.8,5.4-2.2C274.5,317.1,275.3,315.3,275.3,313.1z"/>
		<path class="st1" d="M301.1,313c0,2.9-1,5.3-3.1,7.4s-4.6,3.1-7.4,3c-2.8-0.1-5.1-1.1-7.1-3.2c-1.9-2-2.9-4.4-2.9-7.2
			c0-2.9,1-5.4,3.1-7.5c2.1-2.1,4.5-3.1,7.4-3c2.8,0.1,5.1,1.2,7.1,3.2C300.1,307.8,301.1,310.2,301.1,313z M298.4,312.8
			c-0.1-2.1-0.8-3.9-2.3-5.4s-3.2-2.2-5.2-2.2c-2.1,0-3.9,0.7-5.4,2.2c-1.5,1.5-2.3,3.3-2.3,5.5c0,2.1,0.6,4,2.1,5.5
			s3.2,2.4,5.2,2.5c2.2,0.1,4.1-0.6,5.6-2.3S298.5,315,298.4,312.8z"/>
		<path class="st1" d="M311.6,305.3c-1.2,0-2.2,0.4-3,1c-0.8,0.6-1.3,1.2-1.6,1.6c-0.4,0.8-0.7,1.8-0.7,3.1v11.9h-2.8V303h2.5v2.8
			c0.6-1.1,1.4-1.9,2.5-2.5c1-0.5,2-0.8,3.1-0.7V305.3z"/>
		<path class="st1" d="M331.4,312.9v0.1v9.9h-2.7v-3.1c-2.2,2.5-4.8,3.7-7.9,3.6c-2.7-0.1-5.1-1.2-7-3.2c-1.9-2-2.9-4.4-2.9-7.2
			c0-2.9,1-5.4,3.1-7.5c2.1-2.1,4.6-3.1,7.5-3c2.8,0.1,5.2,1.2,7.1,3.2C330.6,307.8,331.5,310.2,331.4,312.9z M328.8,312.7
			c0-2.1-0.8-3.9-2.2-5.4c-1.5-1.5-3.2-2.2-5.2-2.2c-2.1,0-3.9,0.7-5.4,2.2c-1.5,1.5-2.3,3.3-2.3,5.4c0,2.1,0.6,3.9,2.1,5.5
			c1.4,1.6,3.2,2.4,5.2,2.5c2.2,0.1,4.1-0.7,5.6-2.3S328.8,315,328.8,312.7z"/>
		<path class="st1" d="M341.5,323.4c-4.9,0-7.3-2.1-7.3-6.2V296h2.7v7h4.6v2.5h-4.6v11.3c0,3,1.5,4.4,4.6,4.4V323.4z"/>
		<path class="st1" d="M346.5,300.6h-2.7V296h2.7V300.6z M346.5,322.9h-2.7V303h2.7V322.9z"/>
		<path class="st1" d="M369.9,313c0,2.9-1,5.3-3.1,7.4s-4.6,3.1-7.4,3c-2.8-0.1-5.1-1.1-7.1-3.2c-1.9-2-2.9-4.4-2.9-7.2
			c0-2.9,1-5.4,3.1-7.5c2.1-2.1,4.5-3.1,7.4-3c2.8,0.1,5.1,1.2,7.1,3.2C369,307.8,369.9,310.2,369.9,313z M367.3,312.8
			c-0.1-2.1-0.8-3.9-2.3-5.4s-3.2-2.2-5.2-2.2c-2.1,0-3.9,0.7-5.4,2.2c-1.5,1.5-2.3,3.3-2.3,5.5c0,2.1,0.6,4,2.1,5.5
			s3.2,2.4,5.2,2.5c2.2,0.1,4.1-0.6,5.6-2.3S367.3,315,367.3,312.8z"/>
		<path class="st1" d="M390.2,322.9h-2.7v-11.7c0-1.7-0.6-3.1-1.8-4.3s-2.7-1.8-4.3-1.8c-1.7,0-3.1,0.6-4.3,1.8s-1.8,2.7-1.8,4.3
			v11.7h-2.7v-11.4c0-2.6,0.8-4.7,2.5-6.5c1.7-1.7,3.8-2.6,6.3-2.6c2.5,0,4.6,0.9,6.3,2.6s2.5,3.9,2.5,6.5V322.9z"/>
	</g>
	<g>
		<path class="st3" d="M293.9,226.1c13.2,1,23.1,13.1,22.1,26.9s-12.4,24.3-25.6,23.3s-23.1-13.1-22.1-26.9
			C269.3,235.5,280.8,225.1,293.9,226.1"/>
		<path class="st4" d="M87.8,237.8l4.4,14.3l164.6-54.7c-3.2-2.3-7.1-3.1-16-0.2L87.8,237.8z"/>
		<path class="st3" d="M128.5,252.1l-4.4,17.9l155.4-3.5c0,0,1.5,0.3,1.5-3.1s-1.5-5.5-1.5-5.5L128.5,252.1z"/>
		<polygon class="st5" points="204.7,50.5 215.3,50.2 197.5,57.1 		"/>
		<path class="st6" d="M98.9,287.7c24.6,0,44.7-20.1,44.7-44.7s-20.1-44.7-44.7-44.7S54.2,218.4,54.2,243S74.3,287.7,98.9,287.7"/>
		<path class="st7" d="M172.3,113.6c0-42.2,34.2-76.3,76.3-76.3c42.2,0,76.3,34.2,76.3,76.3C273.5,117.1,222.6,117.1,172.3,113.6"/>
		<path class="st8" d="M172.3,118.5c0,42.2,34.2,80.2,76.3,80.2c42.2,0,76.3-38,76.3-80.2C274,121.6,223.1,122.2,172.3,118.5"/>
		<path class="st8" d="M248.9,37.4c6.5,5.2-5.5,11.5-18.9,15.1l-129.9-6.3L99.4,38L248.9,37.4z"/>
		<path class="st9" d="M97,64.9c12.3-1.6,21.1-12.9,19.5-25.2s-12.9-21.1-25.2-19.5c-12.3,1.5-21,12.9-19.5,25.2
			C73.4,57.7,84.7,66.5,97,64.9"/>
		<path class="st10" d="M273.3,266.6l6.9-0.3l5.3,9c0,0-6-2.3-8.2-4.5C275,268.6,273.3,266.6,273.3,266.6"/>
	</g>
</g>
</svg>
